SourceSans3-ExtraLightItalic.ufo
<glyph name="quotesingle" format="2">
	<unicode hex="0027"/>
	<advance width="202"/>
	<outline>
		<contour>
			<point x="134" y="478" type="line"/>
			<point x="156" y="478" type="line"/>
			<point x="186" y="608" type="line"/>
			<point x="198" y="672" type="line"/>
			<point x="170" y="672" type="line"/>
			<point x="158" y="608" type="line"/>
		</contour>
	</outline>
</glyph>
<glyph name="comma" format="2">
	<unicode hex="002C"/>
	<advance width="202"/>
	<outline>
		<contour>
			<point x="-26" y="-146" type="line"/>
			<point x="44" y="-118"/>
			<point x="98" y="-52"/>
			<point x="98" y="22" type="curve" smooth="yes"/>
			<point x="98" y="46"/>
			<point x="87" y="64"/>
			<point x="66" y="64" type="curve" smooth="yes"/>
			<point x="42" y="64"/>
			<point x="26" y="42"/>
			<point x="26" y="22" type="curve" smooth="yes"/>
			<point x="26" y="4"/>
			<point x="38" y="-8"/>
			<point x="56" y="-8" type="curve" smooth="yes"/>
			<point x="64" y="-8"/>
			<point x="78" y="-6"/>
			<point x="84" y="4" type="curve"/>
			<point x="60" y="50" type="line"/>
			<point x="62" y="-6" type="line"/>
			<point x="56" y="-56"/>
			<point x="18" y="-98"/>
			<point x="-34" y="-122" type="curve"/>
		</contour>
	</outline>
</glyph>
<glyph name="period" format="2">
	<unicode hex="002E"/>
	<advance width="202"/>
	<outline>
		<contour>
			<point x="50" y="-12" type="curve" smooth="yes"/>
			<point x="72" y="-12"/>
			<point x="90" y="10"/>
			<point x="90" y="32" type="curve" smooth="yes"/>
			<point x="90" y="50"/>
			<point x="82" y="64"/>
			<point x="64" y="64" type="curve" smooth="yes"/>
			<point x="42" y="64"/>
			<point x="22" y="40"/>
			<point x="22" y="18" type="curve" smooth="yes"/>
			<point x="22" y="2"/>
			<point x="32" y="-12"/>
		</contour>
	</outline>
</glyph>
<glyph name="one" format="2">
	<unicode hex="0031"/>
	<advance width="456"/>
	<outline>
		<contour>
			<point x="32" y="0" type="line"/>
			<point x="346" y="0" type="line"/>
			<point x="350" y="26" type="line"/>
			<point x="210" y="26" type="line"/>
			<point x="334" y="640" type="line"/>
			<point x="310" y="640" type="line"/>
			<point x="280" y="622"/>
			<point x="234" y="608"/>
			<point x="186" y="602" type="curve"/>
			<point x="182" y="582" type="line"/>
			<point x="294" y="582" type="line"/>
			<point x="182" y="26" type="line"/>
			<point x="38" y="26" type="line"/>
		</contour>
	</outline>
</glyph>
<glyph name="three" format="2">
	<unicode hex="0033"/>
	<advance width="456"/>
	<outline>
		<contour>
			<point x="174" y="-12" type="curve" smooth="yes"/>
			<point x="304" y="-12"/>
			<point x="396" y="70"/>
			<point x="396" y="188" type="curve" smooth="yes"/>
			<point x="396" y="260"/>
			<point x="346" y="310"/>
			<point x="276" y="330" type="curve"/>
			<point x="276" y="334" type="line"/>
			<point x="374" y="358"/>
			<point x="434" y="430"/>
			<point x="434" y="512" type="curve" smooth="yes"/>
			<point x="434" y="596"/>
			<point x="388" y="652"/>
			<point x="288" y="652" type="curve" smooth="yes"/>
			<point x="230" y="652"/>
			<point x="170" y="626"/>
			<point x="124" y="588" type="curve"/>
			<point x="142" y="566" type="line"/>
			<point x="178" y="602"/>
			<point x="240" y="626"/>
			<point x="286" y="626" type="curve" smooth="yes"/>
			<point x="370" y="626"/>
			<point x="406" y="576"/>
			<point x="406" y="506" type="curve" smooth="yes"/>
			<point x="406" y="440"/>
			<point x="344" y="348"/>
			<point x="166" y="348" type="curve"/>
			<point x="160" y="322" type="line"/>
			<point x="306" y="322"/>
			<point x="368" y="260"/>
			<point x="368" y="182" type="curve" smooth="yes"/>
			<point x="368" y="88"/>
			<point x="288" y="14"/>
			<point x="178" y="14" type="curve" smooth="yes"/>
			<point x="96" y="14"/>
			<point x="48" y="66"/>
			<point x="18" y="110" type="curve"/>
			<point x="-4" y="94" type="line"/>
			<point x="24" y="50"/>
			<point x="82" y="-12"/>
		</contour>
	</outline>
</glyph>
<glyph name="five" format="2">
	<unicode hex="0035"/>
	<advance width="456"/>
	<outline>
		<contour>
			<point x="174" y="-12" type="curve" smooth="yes"/>
			<point x="296" y="-12"/>
			<point x="402" y="84"/>
			<point x="402" y="232" type="curve" smooth="yes"/>
			<point x="402" y="344"/>
			<point x="332" y="400"/>
			<point x="236" y="400" type="curve" smooth="yes"/>
			<point x="194" y="400"/>
			<point x="160" y="388"/>
			<point x="134" y="374" type="curve"/>
			<point x="200" y="614" type="line"/>
			<point x="440" y="614" type="line"/>
			<point x="446" y="640" type="line"/>
			<point x="180" y="640" type="line"/>
			<point x="100" y="352" type="line"/>
			<point x="118" y="338" type="line"/>
			<point x="158" y="360"/>
			<point x="188" y="374"/>
			<point x="236" y="374" type="curve" smooth="yes"/>
			<point x="318" y="374"/>
			<point x="374" y="326"/>
			<point x="374" y="226" type="curve" smooth="yes"/>
			<point x="374" y="100"/>
			<point x="282" y="14"/>
			<point x="180" y="14" type="curve" smooth="yes"/>
			<point x="88" y="14"/>
			<point x="50" y="66"/>
			<point x="24" y="108" type="curve"/>
			<point x="2" y="92" type="line"/>
			<point x="28" y="46"/>
			<point x="80" y="-12"/>
		</contour>
	</outline>
</glyph>
<glyph name="D" format="2">
	<unicode hex="0044"/>
	<advance width="572"/>
	<outline>
		<contour>
			<point x="40" y="0" type="line"/>
			<point x="194" y="0" type="line" smooth="yes"/>
			<point x="426" y="0"/>
			<point x="546" y="180"/>
			<point x="546" y="404" type="curve" smooth="yes"/>
			<point x="546" y="556"/>
			<point x="458" y="660"/>
			<point x="276" y="660" type="curve" smooth="yes"/>
			<point x="172" y="660" type="line"/>
		</contour>
		<contour>
			<point x="74" y="26" type="line"/>
			<point x="196" y="634" type="line"/>
			<point x="274" y="634" type="line" smooth="yes"/>
			<point x="438" y="634"/>
			<point x="516" y="538"/>
			<point x="516" y="402" type="curve" smooth="yes"/>
			<point x="516" y="202"/>
			<point x="402" y="26"/>
			<point x="196" y="26" type="curve" smooth="yes"/>
		</contour>
	</outline>
	<anchor name="aboveUC" x="350" y="682"/>
	<anchor name="belowLC" x="240" y="-22"/>
</glyph>
<glyph name="E" format="2">
	<unicode hex="0045"/>
	<advance width="484"/>
	<outline>
		<contour>
			<point x="40" y="0" type="line"/>
			<point x="390" y="0" type="line"/>
			<point x="396" y="26" type="line"/>
			<point x="74" y="26" type="line"/>
			<point x="138" y="338" type="line"/>
			<point x="400" y="338" type="line"/>
			<point x="406" y="364" type="line"/>
			<point x="142" y="364" type="line"/>
			<point x="196" y="634" type="line"/>
			<point x="508" y="634" type="line"/>
			<point x="514" y="660" type="line"/>
			<point x="172" y="660" type="line"/>
		</contour>
	</outline>
	<anchor name="aboveUC" x="350" y="682"/>
	<anchor name="baseLC" x="230" y="0"/>
	<anchor name="belowLC" x="220" y="-22"/>
	<anchor name="ogonekUC" x="330" y="0"/>
</glyph>
<glyph name="G" format="2">
	<unicode hex="0047"/>
	<advance width="570"/>
	<outline>
		<contour>
			<point x="288" y="-12" type="curve" smooth="yes"/>
			<point x="358" y="-12"/>
			<point x="414" y="14"/>
			<point x="460" y="54" type="curve"/>
			<point x="514" y="316" type="line"/>
			<point x="326" y="316" type="line"/>
			<point x="320" y="290" type="line"/>
			<point x="478" y="290" type="line"/>
			<point x="434" y="68" type="line"/>
			<point x="402" y="38"/>
			<point x="354" y="14"/>
			<point x="290" y="14" type="curve" smooth="yes"/>
			<point x="144" y="14"/>
			<point x="88" y="122"/>
			<point x="88" y="252" type="curve" smooth="yes"/>
			<point x="88" y="422"/>
			<point x="198" y="646"/>
			<point x="394" y="646" type="curve" smooth="yes"/>
			<point x="461" y="646"/>
			<point x="504" y="612"/>
			<point x="530" y="564" type="curve"/>
			<point x="552" y="578" type="line"/>
			<point x="526" y="628"/>
			<point x="474" y="672"/>
			<point x="396" y="672" type="curve" smooth="yes"/>
			<point x="178" y="672"/>
			<point x="58" y="441"/>
			<point x="58" y="246" type="curve" smooth="yes"/>
			<point x="58" y="96"/>
			<point x="132" y="-12"/>
		</contour>
	</outline>
	<anchor name="aboveUC" x="390" y="682"/>
	<anchor name="belowLC" x="270" y="-22"/>
</glyph>
<glyph name="I" format="2">
	<unicode hex="0049"/>
	<advance width="212"/>
	<outline>
		<contour>
			<point x="40" y="0" type="line"/>
			<point x="70" y="0" type="line"/>
			<point x="202" y="660" type="line"/>
			<point x="172" y="660" type="line"/>
		</contour>
	</outline>
	<anchor name="aboveUC" x="190" y="682"/>
	<anchor name="belowLC" x="50" y="-22"/>
	<anchor name="ogonekUC" x="50" y="0"/>
</glyph>
<glyph name="O" format="2">
	<unicode hex="004F"/>
	<advance width="612"/>
	<outline>
		<contour>
			<point x="274" y="-12" type="curve" smooth="yes"/>
			<point x="472" y="-12"/>
			<point x="584" y="222"/>
			<point x="584" y="398" type="curve" smooth="yes"/>
			<point x="584" y="558"/>
			<point x="516" y="672"/>
			<point x="372" y="672" type="curve" smooth="yes"/>
			<point x="174" y="672"/>
			<point x="62" y="438"/>
			<point x="62" y="262" type="curve" smooth="yes"/>
			<point x="62" y="102"/>
			<point x="130" y="-12"/>
		</contour>
		<contour>
			<point x="276" y="14" type="curve" smooth="yes"/>
			<point x="146" y="14"/>
			<point x="92" y="118"/>
			<point x="92" y="266" type="curve" smooth="yes"/>
			<point x="92" y="422"/>
			<point x="190" y="646"/>
			<point x="370" y="646" type="curve" smooth="yes"/>
			<point x="500" y="646"/>
			<point x="554" y="542"/>
			<point x="554" y="394" type="curve" smooth="yes"/>
			<point x="554" y="238"/>
			<point x="456" y="14"/>
		</contour>
	</outline>
	<anchor name="aboverightUC" x="560" y="682"/>
	<anchor name="aboveUC" x="390" y="682"/>
	<anchor name="belowLC" x="260" y="-22"/>
	<anchor name="hornLC" x="498" y="652"/>
	<anchor name="ogonekUC" x="260" y="0"/>
</glyph>
<glyph name="P" format="2">
	<unicode hex="0050"/>
	<advance width="524"/>
	<outline>
		<contour>
			<point x="40" y="0" type="line"/>
			<point x="70" y="0" type="line"/>
			<point x="128" y="294" type="line"/>
			<point x="256" y="294" type="line" smooth="yes"/>
			<point x="426" y="294"/>
			<point x="532" y="366"/>
			<point x="532" y="510" type="curve" smooth="yes"/>
			<point x="532" y="614"/>
			<point x="460" y="660"/>
			<point x="340" y="660" type="curve" smooth="yes"/>
			<point x="172" y="660" type="line"/>
		</contour>
		<contour>
			<point x="134" y="320" type="line"/>
			<point x="196" y="634" type="line"/>
			<point x="322" y="634" type="line" smooth="yes"/>
			<point x="440" y="634"/>
			<point x="502" y="598"/>
			<point x="502" y="508" type="curve" smooth="yes"/>
			<point x="502" y="384"/>
			<point x="416" y="320"/>
			<point x="250" y="320" type="curve" smooth="yes"/>
		</contour>
	</outline>
	<anchor name="aboverightUC" x="520" y="682"/>
	<anchor name="aboveUC" x="350" y="682"/>
	<anchor name="belowLC" x="60" y="-22"/>
</glyph>
<glyph name="Z" format="2">
	<unicode hex="005A"/>
	<advance width="502"/>
	<outline>
		<contour>
			<point x="2" y="0" type="line"/>
			<point x="410" y="0" type="line"/>
			<point x="416" y="26" type="line"/>
			<point x="46" y="26" type="line"/>
			<point x="524" y="642" type="line"/>
			<point x="528" y="660" type="line"/>
			<point x="158" y="660" type="line"/>
			<point x="152" y="634" type="line"/>
			<point x="486" y="634" type="line"/>
			<point x="6" y="18" type="line"/>
		</contour>
	</outline>
	<anchor name="aboveUC" x="340" y="682"/>
	<anchor name="belowLC" x="220" y="-22"/>
</glyph>
<glyph name="bracketleft" format="2">
	<unicode hex="005B"/>
	<advance width="262"/>
	<outline>
		<contour>
			<point x="18" y="-152" type="line"/>
			<point x="162" y="-152" type="line"/>
			<point x="168" y="-130" type="line"/>
			<point x="46" y="-130" type="line"/>
			<point x="208" y="686" type="line"/>
			<point x="332" y="686" type="line"/>
			<point x="334" y="708" type="line"/>
			<point x="190" y="708" type="line"/>
		</contour>
	</outline>
</glyph>
<glyph name="bracketright" format="2">
	<unicode hex="005D"/>
	<advance width="262"/>
	<outline>
		<contour>
			<point x="-64" y="-152" type="line"/>
			<point x="82" y="-152" type="line"/>
			<point x="254" y="708" type="line"/>
			<point x="108" y="708" type="line"/>
			<point x="104" y="686" type="line"/>
			<point x="228" y="686" type="line"/>
			<point x="62" y="-130" type="line"/>
			<point x="-60" y="-130" type="line"/>
		</contour>
	</outline>
</glyph>
<glyph name="e" format="2">
	<unicode hex="0065"/>
	<advance width="468"/>
	<outline>
		<contour>
			<point x="224" y="-12" type="curve" smooth="yes"/>
			<point x="282" y="-12"/>
			<point x="328" y="12"/>
			<point x="364" y="40" type="curve"/>
			<point x="350" y="58" type="line"/>
			<point x="314" y="32"/>
			<point x="276" y="14"/>
			<point x="226" y="14" type="curve" smooth="yes"/>
			<point x="144" y="14"/>
			<point x="72" y="60"/>
			<point x="72" y="186" type="curve" smooth="yes"/>
			<point x="72" y="344"/>
			<point x="182" y="464"/>
			<point x="288" y="464" type="curve" smooth="yes"/>
			<point x="374" y="464"/>
			<point x="404" y="396"/>
			<point x="404" y="328" type="curve" smooth="yes"/>
			<point x="404" y="306"/>
			<point x="402" y="288"/>
			<point x="398" y="268" type="curve"/>
			<point x="74" y="268" type="line"/>
			<point x="68" y="242" type="line"/>
			<point x="420" y="242" type="line"/>
			<point x="426" y="262"/>
			<point x="432" y="290"/>
			<point x="432" y="322" type="curve" smooth="yes"/>
			<point x="432" y="420"/>
			<point x="392" y="490"/>
			<point x="290" y="490" type="curve" smooth="yes"/>
			<point x="168" y="490"/>
			<point x="44" y="364"/>
			<point x="44" y="184" type="curve" smooth="yes"/>
			<point x="44" y="56"/>
			<point x="114" y="-12"/>
		</contour>
	</outline>
	<anchor name="aboveLC" x="300" y="502"/>
	<anchor name="baseLC" x="210" y="0"/>
	<anchor name="belowLC" x="210" y="-22"/>
	<anchor name="ogonekLC" x="280" y="0"/>
</glyph>
<glyph name="l" format="2">
	<unicode hex="006C"/>
	<advance width="226"/>
	<outline>
		<contour>
			<point x="86" y="-8" type="curve" smooth="yes"/>
			<point x="98" y="-8"/>
			<point x="104" y="-6"/>
			<point x="114" y="-2" type="curve"/>
			<point x="108" y="20" type="line"/>
			<point x="100" y="18"/>
			<point x="98" y="18"/>
			<point x="94" y="18" type="curve" smooth="yes"/>
			<point x="84" y="18"/>
			<point x="80" y="24"/>
			<point x="80" y="32" type="curve" smooth="yes"/>
			<point x="80" y="36"/>
			<point x="80" y="42"/>
			<point x="82" y="52" type="curve" smooth="yes"/>
			<point x="216" y="722" type="line"/>
			<point x="188" y="722" type="line"/>
			<point x="54" y="54" type="line" smooth="yes"/>
			<point x="52" y="44"/>
			<point x="50" y="34"/>
			<point x="50" y="28" type="curve" smooth="yes"/>
			<point x="50" y="4"/>
			<point x="66" y="-8"/>
		</contour>
	</outline>
	<anchor name="aboveUC" x="200" y="732"/>
	<anchor name="belowLC" x="80" y="-22"/>
	<anchor name="center" x="140" y="400"/>
</glyph>
<glyph name="r" format="2">
	<unicode hex="0072"/>
	<advance width="308"/>
	<outline>
		<contour>
			<point x="44" y="0" type="line"/>
			<point x="72" y="0" type="line"/>
			<point x="136" y="322" type="line"/>
			<point x="180" y="410"/>
			<point x="244" y="462"/>
			<point x="296" y="462" type="curve" smooth="yes"/>
			<point x="314" y="462"/>
			<point x="324" y="460"/>
			<point x="332" y="456" type="curve"/>
			<point x="344" y="482" type="line"/>
			<point x="330" y="488"/>
			<point x="314" y="490"/>
			<point x="302" y="490" type="curve" smooth="yes"/>
			<point x="240" y="490"/>
			<point x="192" y="444"/>
			<point x="152" y="388" type="curve"/>
			<point x="148" y="388" type="line"/>
			<point x="164" y="478" type="line"/>
			<point x="140" y="478" type="line"/>
		</contour>
	</outline>
	<anchor name="aboveLC" x="236" y="502"/>
	<anchor name="belowLC" x="64" y="-22"/>
	<anchor name="center" x="120" y="220"/>
</glyph>
<glyph name="t" format="2">
	<unicode hex="0074"/>
	<advance width="290"/>
	<outline>
		<contour>
			<point x="168" y="-8" type="curve" smooth="yes"/>
			<point x="200" y="-8"/>
			<point x="224" y="4"/>
			<point x="242" y="16" type="curve"/>
			<point x="230" y="34" type="line"/>
			<point x="214" y="24"/>
			<point x="192" y="18"/>
			<point x="170" y="18" type="curve" smooth="yes"/>
			<point x="118" y="18"/>
			<point x="102" y="42"/>
			<point x="102" y="88" type="curve" smooth="yes"/>
			<point x="102" y="102"/>
			<point x="104" y="114"/>
			<point x="106" y="126" type="curve" smooth="yes"/>
			<point x="174" y="452" type="line"/>
			<point x="306" y="452" type="line"/>
			<point x="312" y="478" type="line"/>
			<point x="180" y="478" type="line"/>
			<point x="212" y="636" type="line"/>
			<point x="188" y="636" type="line"/>
			<point x="152" y="478" type="line"/>
			<point x="76" y="474" type="line"/>
			<point x="70" y="452" type="line"/>
			<point x="146" y="452" type="line"/>
			<point x="78" y="128" type="line" smooth="yes"/>
			<point x="75" y="112"/>
			<point x="74" y="100"/>
			<point x="74" y="84" type="curve" smooth="yes"/>
			<point x="74" y="34"/>
			<point x="98" y="-8"/>
		</contour>
	</outline>
	<anchor name="aboveLC" x="200" y="632"/>
	<anchor name="aboverightLC" x="290" y="502"/>
	<anchor name="baseLC" x="160" y="0"/>
	<anchor name="belowLC" x="150" y="-22"/>
	<anchor name="center" x="130" y="240"/>
</glyph>
<glyph name="u" format="2">
	<unicode hex="0075"/>
	<advance width="504"/>
	<outline>
		<contour>
			<point x="178" y="-12" type="curve" smooth="yes"/>
			<point x="236" y="-12"/>
			<point x="294" y="28"/>
			<point x="350" y="80" type="curve"/>
			<point x="354" y="80" type="line"/>
			<point x="342" y="0" type="line"/>
			<point x="366" y="0" type="line"/>
			<point x="462" y="478" type="line"/>
			<point x="434" y="478" type="line"/>
			<point x="362" y="120" type="line"/>
			<point x="286" y="46"/>
			<point x="226" y="14"/>
			<point x="182" y="14" type="curve" smooth="yes"/>
			<point x="118" y="14"/>
			<point x="92" y="46"/>
			<point x="92" y="108" type="curve" smooth="yes"/>
			<point x="92" y="128"/>
			<point x="94" y="142"/>
			<point x="100" y="172" type="curve" smooth="yes"/>
			<point x="162" y="478" type="line"/>
			<point x="134" y="478" type="line"/>
			<point x="72" y="168" type="line" smooth="yes"/>
			<point x="66" y="140"/>
			<point x="64" y="128"/>
			<point x="64" y="104" type="curve" smooth="yes"/>
			<point x="64" y="36"/>
			<point x="96" y="-12"/>
		</contour>
	</outline>
	<anchor name="aboveLC" x="310" y="502"/>
	<anchor name="baseLC" x="190" y="0"/>
	<anchor name="belowLC" x="220" y="-22"/>
	<anchor name="hornLC" x="450" y="492"/>
	<anchor name="ogonekLC" x="330" y="0"/>
</glyph>
<glyph name="cent" format="2">
	<unicode hex="00A2"/>
	<advance width="456"/>
	<outline>
		<contour>
			<point x="244" y="102" type="curve" smooth="yes"/>
			<point x="316" y="102"/>
			<point x="360" y="132"/>
			<point x="398" y="156" type="curve"/>
			<point x="384" y="176" type="line"/>
			<point x="348" y="152"/>
			<point x="302" y="128"/>
			<point x="246" y="128" type="curve" smooth="yes"/>
			<point x="156" y="128"/>
			<point x="112" y="192"/>
			<point x="112" y="294" type="curve" smooth="yes"/>
			<point x="112" y="438"/>
			<point x="224" y="532"/>
			<point x="314" y="532" type="curve" smooth="yes"/>
			<point x="370" y="532"/>
			<point x="400" y="510"/>
			<point x="428" y="478" type="curve"/>
			<point x="446" y="494" type="line"/>
			<point x="420" y="528"/>
			<point x="378" y="558"/>
			<point x="316" y="558" type="curve" smooth="yes"/>
			<point x="208" y="558"/>
			<point x="82" y="456"/>
			<point x="82" y="288" type="curve" smooth="yes"/>
			<point x="82" y="168"/>
			<point x="144" y="102"/>
		</contour>
		<contour>
			<point x="196" y="-10" type="line"/>
			<point x="224" y="-10" type="line"/>
			<point x="358" y="666" type="line"/>
			<point x="330" y="666" type="line"/>
		</contour>
	</outline>
</glyph>
<glyph name="currency" format="2">
	<unicode hex="00A4"/>
	<advance width="456"/>
	<outline>
		<contour>
			<point x="30" y="132" type="line"/>
			<point x="102" y="195" type="line"/>
			<point x="124" y="163"/>
			<point x="159" y="146"/>
			<point x="204" y="146" type="curve" smooth="yes"/>
			<point x="250" y="146"/>
			<point x="295" y="166"/>
			<point x="330" y="199" type="curve"/>
			<point x="384" y="128" type="line"/>
			<point x="404" y="144" type="line"/>
			<point x="348" y="218" type="line"/>
			<point x="382" y="258"/>
			<point x="404" y="312"/>
			<point x="404" y="370" type="curve" smooth="yes"/>
			<point x="404" y="400"/>
			<point x="399" y="427"/>
			<point x="389" y="448" type="curve"/>
			<point x="466" y="516" type="line"/>
			<point x="450" y="536" type="line"/>
			<point x="376" y="471" type="line"/>
			<point x="353" y="501"/>
			<point x="319" y="518"/>
			<point x="276" y="518" type="curve" smooth="yes"/>
			<point x="232" y="518"/>
			<point x="191" y="500"/>
			<point x="157" y="471" type="curve"/>
			<point x="110" y="534" type="line"/>
			<point x="90" y="518" type="line"/>
			<point x="138" y="453" type="line"/>
			<point x="100" y="412"/>
			<point x="76" y="355"/>
			<point x="76" y="294" type="curve" smooth="yes"/>
			<point x="76" y="264"/>
			<point x="81" y="239"/>
			<point x="89" y="218" type="curve"/>
			<point x="14" y="152" type="line"/>
		</contour>
		<contour>
			<point x="206" y="172" type="curve" smooth="yes"/>
			<point x="140" y="172"/>
			<point x="104" y="217"/>
			<point x="104" y="300" type="curve" smooth="yes"/>
			<point x="104" y="408"/>
			<point x="191" y="492"/>
			<point x="274" y="492" type="curve" smooth="yes"/>
			<point x="340" y="492"/>
			<point x="376" y="447"/>
			<point x="376" y="364" type="curve" smooth="yes"/>
			<point x="376" y="256"/>
			<point x="289" y="172"/>
		</contour>
	</outline>
</glyph>
<glyph name="plusminus" format="2">
	<unicode hex="00B1"/>
	<advance width="456"/>
	<outline>
		<contour>
			<point x="228" y="110" type="line"/>
			<point x="256" y="110" type="line"/>
			<point x="256" y="318" type="line"/>
			<point x="436" y="318" type="line"/>
			<point x="436" y="344" type="line"/>
			<point x="256" y="344" type="line"/>
			<point x="256" y="546" type="line"/>
			<point x="228" y="546" type="line"/>
			<point x="228" y="344" type="line"/>
			<point x="48" y="344" type="line"/>
			<point x="48" y="318" type="line"/>
			<point x="228" y="318" type="line"/>
		</contour>
		<contour>
			<point x="48" y="0" type="line"/>
			<point x="436" y="0" type="line"/>
			<point x="436" y="26" type="line"/>
			<point x="48" y="26" type="line"/>
		</contour>
	</outline>
</glyph>
<glyph name="eth" format="2">
	<unicode hex="00F0"/>
	<advance width="514"/>
	<outline>
		<contour>
			<point x="210" y="-12" type="curve" smooth="yes"/>
			<point x="352" y="-12"/>
			<point x="448" y="144"/>
			<point x="448" y="340" type="curve" smooth="yes"/>
			<point x="448" y="532"/>
			<point x="366" y="642"/>
			<point x="222" y="722" type="curve"/>
			<point x="206" y="702" type="line"/>
			<point x="348" y="620"/>
			<point x="420" y="522"/>
			<point x="420" y="334" type="curve" smooth="yes"/>
			<point x="420" y="168"/>
			<point x="338" y="14"/>
			<point x="216" y="14" type="curve" smooth="yes"/>
			<point x="128" y="14"/>
			<point x="78" y="86"/>
			<point x="78" y="168" type="curve" smooth="yes"/>
			<point x="78" y="292"/>
			<point x="160" y="414"/>
			<point x="282" y="414" type="curve" smooth="yes"/>
			<point x="348" y="414"/>
			<point x="392" y="362"/>
			<point x="424" y="310" type="curve"/>
			<point x="432" y="340" type="line"/>
			<point x="396" y="398"/>
			<point x="344" y="440"/>
			<point x="284" y="440" type="curve" smooth="yes"/>
			<point x="142" y="440"/>
			<point x="50" y="306"/>
			<point x="50" y="164" type="curve" smooth="yes"/>
			<point x="50" y="68"/>
			<point x="116" y="-12"/>
		</contour>
		<contour>
			<point x="188" y="526" type="line"/>
			<point x="502" y="660" type="line"/>
			<point x="494" y="682" type="line"/>
			<point x="180" y="548" type="line"/>
		</contour>
	</outline>
	<anchor name="aboveUC" x="350" y="732"/>
	<anchor name="belowLC" x="210" y="-22"/>
</glyph>
<glyph name="Dhook" format="2">
	<unicode hex="018A"/>
	<advance width="686"/>
	<outline>
		<contour>
			<point x="184" y="0" type="line"/>
			<point x="309" y="0" type="line" smooth="yes"/>
			<point x="542" y="0"/>
			<point x="660" y="180"/>
			<point x="660" y="414" type="curve" smooth="yes"/>
			<point x="660" y="566"/>
			<point x="584" y="672"/>
			<point x="398" y="672" type="curve" smooth="yes"/>
			<point x="171" y="672"/>
			<point x="64" y="504"/>
			<point x="64" y="396" type="curve" smooth="yes"/>
			<point x="64" y="332"/>
			<point x="94" y="292"/>
			<point x="140" y="270" type="curve"/>
			<point x="154" y="292" type="line"/>
			<point x="112" y="316"/>
			<point x="94" y="344"/>
			<point x="94" y="398" type="curve" smooth="yes"/>
			<point x="94" y="492"/>
			<point x="190" y="646"/>
			<point x="394" y="646" type="curve" smooth="yes"/>
			<point x="398" y="646" type="line" smooth="yes"/>
			<point x="564" y="646"/>
			<point x="630" y="548"/>
			<point x="630" y="412" type="curve" smooth="yes"/>
			<point x="630" y="202"/>
			<point x="518" y="26"/>
			<point x="308" y="26" type="curve" smooth="yes"/>
			<point x="218" y="26" type="line"/>
			<point x="346" y="660" type="line"/>
			<point x="316" y="660" type="line"/>
		</contour>
	</outline>
	<anchor name="aboveUC" x="454" y="682"/>
	<anchor name="belowLC" x="380" y="-22"/>
</glyph>
<glyph name="Eopen" format="2">
	<unicode hex="0190"/>
	<advance width="524"/>
	<outline>
		<contour>
			<point x="210" y="-12" type="curve" smooth="yes"/>
			<point x="306" y="-12"/>
			<point x="377" y="23"/>
			<point x="450" y="88" type="curve"/>
			<point x="436" y="104" type="line"/>
			<point x="372" y="49"/>
			<point x="300" y="14"/>
			<point x="212" y="14" type="curve" smooth="yes"/>
			<point x="114" y="14"/>
			<point x="52" y="62"/>
			<point x="52" y="146" type="curve" smooth="yes"/>
			<point x="52" y="250"/>
			<point x="172" y="338"/>
			<point x="314" y="338" type="curve" smooth="yes"/>
			<point x="372" y="338" type="line"/>
			<point x="376" y="364" type="line"/>
			<point x="336" y="364" type="line" smooth="yes"/>
			<point x="208" y="364"/>
			<point x="160" y="421"/>
			<point x="160" y="492" type="curve" smooth="yes"/>
			<point x="160" y="582"/>
			<point x="242" y="646"/>
			<point x="339" y="646" type="curve" smooth="yes"/>
			<point x="410" y="646"/>
			<point x="460" y="617"/>
			<point x="485" y="566" type="curve"/>
			<point x="507" y="576" type="line"/>
			<point x="485" y="631"/>
			<point x="422" y="672"/>
			<point x="341" y="672" type="curve" smooth="yes"/>
			<point x="228" y="672"/>
			<point x="130" y="595"/>
			<point x="130" y="490" type="curve" smooth="yes"/>
			<point x="130" y="418"/>
			<point x="182" y="370"/>
			<point x="228" y="356" type="curve"/>
			<point x="228" y="352" type="line"/>
			<point x="138" y="330"/>
			<point x="22" y="260"/>
			<point x="22" y="140" type="curve" smooth="yes"/>
			<point x="22" y="46"/>
			<point x="94" y="-12"/>
		</contour>
	</outline>
	<anchor name="aboveUC" x="350" y="682"/>
	<anchor name="baseLC" x="210" y="0"/>
	<anchor name="belowLC" x="200" y="-22"/>
	<anchor name="ogonekUC" x="210" y="0"/>
</glyph>
<glyph name="Istroke" format="2">
	<unicode hex="0197"/>
	<advance width="252"/>
	<outline>
		<contour>
			<point x="48" y="338" type="line"/>
			<point x="236" y="338" type="line"/>
			<point x="242" y="364" type="line"/>
			<point x="134" y="364" type="line"/>
			<point x="54" y="360" type="line"/>
		</contour>
		<component base="I" xOffset="20"/>
	</outline>
	<anchor name="aboveUC" x="210" y="682"/>
	<anchor name="belowLC" x="70" y="-22"/>
</glyph>
<glyph name="uhorn" format="2">
	<unicode hex="01B0"/>
	<advance width="524"/>
	<outline>
		<contour>
			<point x="463" y="456" type="line"/>
			<point x="498" y="464"/>
			<point x="574" y="500"/>
			<point x="574" y="584" type="curve" smooth="yes"/>
			<point x="574" y="600"/>
			<point x="572" y="618"/>
			<point x="566" y="636" type="curve"/>
			<point x="538" y="622" type="line"/>
			<point x="543" y="607"/>
			<point x="545" y="592"/>
			<point x="544" y="580" type="curve" smooth="yes"/>
			<point x="540" y="515"/>
			<point x="491" y="482"/>
			<point x="440" y="478" type="curve"/>
		</contour>
		<component base="u"/>
	</outline>
	<anchor name="aboveLC" x="310" y="502"/>
	<anchor name="belowLC" x="220" y="-22"/>
</glyph>
<glyph name="Gstroke" format="2">
	<unicode hex="01E4"/>
	<advance width="610"/>
	<outline>
		<contour>
			<point x="288" y="-12" type="curve" smooth="yes"/>
			<point x="358" y="-12"/>
			<point x="414" y="14"/>
			<point x="460" y="54" type="curve"/>
			<point x="514" y="316" type="line"/>
			<point x="484" y="316" type="line"/>
			<point x="434" y="68" type="line"/>
			<point x="402" y="38"/>
			<point x="354" y="14"/>
			<point x="290" y="14" type="curve" smooth="yes"/>
			<point x="144" y="14"/>
			<point x="88" y="122"/>
			<point x="88" y="252" type="curve" smooth="yes"/>
			<point x="88" y="422"/>
			<point x="198" y="646"/>
			<point x="394" y="646" type="curve" smooth="yes"/>
			<point x="461" y="646"/>
			<point x="504" y="612"/>
			<point x="530" y="564" type="curve"/>
			<point x="552" y="578" type="line"/>
			<point x="526" y="628"/>
			<point x="474" y="672"/>
			<point x="396" y="672" type="curve" smooth="yes"/>
			<point x="178" y="672"/>
			<point x="58" y="441"/>
			<point x="58" y="246" type="curve" smooth="yes"/>
			<point x="58" y="96"/>
			<point x="132" y="-12"/>
		</contour>
		<contour>
			<point x="300" y="190" type="line"/>
			<point x="560" y="190" type="line"/>
			<point x="566" y="216" type="line"/>
			<point x="464" y="216" type="line"/>
			<point x="306" y="212" type="line"/>
		</contour>
	</outline>
	<anchor name="aboveUC" x="390" y="682"/>
	<anchor name="belowLC" x="270" y="-22"/>
	<guideline x="583" y="300" angle="79" identifier="eyoJSXDo5m"/>
</glyph>
<glyph name="Wynn" format="2">
	<unicode hex="01F7"/>
	<advance width="524"/>
	<outline>
		<contour>
			<point x="12" y="-140" type="line"/>
			<point x="42" y="-140" type="line"/>
			<point x="70" y="-2" type="line"/>
			<point x="414" y="186"/>
			<point x="532" y="380"/>
			<point x="532" y="538" type="curve" smooth="yes"/>
			<point x="532" y="634"/>
			<point x="474" y="672"/>
			<point x="396" y="672" type="curve" smooth="yes"/>
			<point x="320" y="672"/>
			<point x="246" y="624"/>
			<point x="184" y="572" type="curve"/>
			<point x="202" y="660" type="line"/>
			<point x="172" y="660" type="line"/>
		</contour>
		<contour>
			<point x="76" y="32" type="curve"/>
			<point x="176" y="532" type="line"/>
			<point x="252" y="604"/>
			<point x="344" y="646"/>
			<point x="394" y="646" type="curve" smooth="yes"/>
			<point x="452" y="646"/>
			<point x="502" y="616"/>
			<point x="502" y="532" type="curve" smooth="yes"/>
			<point x="502" y="396"/>
			<point x="396" y="210"/>
		</contour>
	</outline>
	<anchor name="aboveUC" x="370" y="682"/>
	<anchor name="belowLC" x="40" y="-142"/>
</glyph>
<glyph name="Yogh" format="2">
	<unicode hex="021C"/>
	<advance width="466"/>
	<outline>
		<contour>
			<point x="14" y="-150" type="line"/>
			<point x="298" y="-48"/>
			<point x="402" y="96"/>
			<point x="402" y="214" type="curve" smooth="yes"/>
			<point x="402" y="296"/>
			<point x="338" y="342"/>
			<point x="240" y="328" type="curve"/>
			<point x="367" y="404"/>
			<point x="434" y="470"/>
			<point x="434" y="564" type="curve" smooth="yes"/>
			<point x="434" y="633"/>
			<point x="389" y="672"/>
			<point x="314" y="672" type="curve" smooth="yes"/>
			<point x="219" y="672"/>
			<point x="156" y="632"/>
			<point x="78" y="562" type="curve"/>
			<point x="96" y="544" type="line"/>
			<point x="174" y="612"/>
			<point x="232" y="646"/>
			<point x="312" y="646" type="curve" smooth="yes"/>
			<point x="368" y="646"/>
			<point x="404" y="614"/>
			<point x="404" y="556" type="curve" smooth="yes"/>
			<point x="404" y="482"/>
			<point x="360" y="416"/>
			<point x="124" y="292" type="curve"/>
			<point x="136" y="270" type="line"/>
			<point x="182" y="297"/>
			<point x="221" y="306"/>
			<point x="258" y="306" type="curve" smooth="yes"/>
			<point x="330" y="306"/>
			<point x="372" y="272"/>
			<point x="372" y="208" type="curve" smooth="yes"/>
			<point x="372" y="114"/>
			<point x="286" y="-24"/>
			<point x="4" y="-126" type="curve"/>
		</contour>
	</outline>
	<anchor name="aboveUC" x="300" y="682"/>
	<anchor name="belowLC" x="170" y="-142"/>
</glyph>
<glyph name="Astroke" format="2">
	<unicode hex="023A"/>
	<advance width="480"/>
	<outline>
		<contour>
			<point x="86" y="-38" type="line"/>
			<point x="452" y="688" type="line"/>
			<point x="430" y="700" type="line"/>
			<point x="64" y="-26" type="line"/>
		</contour>
		<component base="A"/>
	</outline>
	<anchor name="aboveUC" x="330" y="682"/>
	<anchor name="belowLC" x="210" y="-22"/>
</glyph>
<glyph name="Tstroke" format="2">
	<unicode hex="023E"/>
	<advance width="492"/>
	<outline>
		<contour>
			<point x="-6" y="-20" type="line"/>
			<point x="566" y="676" type="line"/>
			<point x="546" y="692" type="line"/>
			<point x="-26" y="-4" type="line"/>
		</contour>
		<component base="T"/>
	</outline>
	<anchor name="aboveUC" x="330" y="682"/>
	<anchor name="belowLC" x="190" y="-22"/>
</glyph>
<glyph name="Glottalstop" format="2">
	<unicode hex="0241"/>
	<advance width="462"/>
	<outline>
		<contour>
			<point x="148" y="0" type="line"/>
			<point x="178" y="0" type="line"/>
			<point x="230" y="258" type="line"/>
			<point x="380" y="308"/>
			<point x="472" y="400"/>
			<point x="472" y="518" type="curve" smooth="yes"/>
			<point x="472" y="620"/>
			<point x="404" y="672"/>
			<point x="306" y="672" type="curve" smooth="yes"/>
			<point x="214" y="672"/>
			<point x="136" y="628"/>
			<point x="88" y="586" type="curve"/>
			<point x="105" y="566" type="line"/>
			<point x="152" y="606"/>
			<point x="224" y="646"/>
			<point x="304" y="646" type="curve" smooth="yes"/>
			<point x="394" y="646"/>
			<point x="442" y="598"/>
			<point x="442" y="512" type="curve" smooth="yes"/>
			<point x="442" y="418"/>
			<point x="374" y="334"/>
			<point x="204" y="278" type="curve"/>
		</contour>
	</outline>
	<anchor name="aboveUC" x="310" y="682"/>
	<anchor name="belowLC" x="160" y="-22"/>
</glyph>
<glyph name="alphalatin" format="2">
	<unicode hex="0251"/>
	<advance width="524"/>
	<outline>
		<contour>
			<point x="186" y="-12" type="curve" smooth="yes"/>
			<point x="254" y="-12"/>
			<point x="316" y="26"/>
			<point x="366" y="78" type="curve"/>
			<point x="370" y="78" type="line"/>
			<point x="364" y="50"/>
			<point x="362" y="37"/>
			<point x="362" y="26" type="curve" smooth="yes"/>
			<point x="362" y="4"/>
			<point x="378" y="-8"/>
			<point x="396" y="-8" type="curve" smooth="yes"/>
			<point x="408" y="-8"/>
			<point x="414" y="-6"/>
			<point x="424" y="-2" type="curve"/>
			<point x="418" y="20" type="line"/>
			<point x="412" y="18"/>
			<point x="408" y="18"/>
			<point x="404" y="18" type="curve" smooth="yes"/>
			<point x="394" y="18"/>
			<point x="390" y="24"/>
			<point x="390" y="32" type="curve" smooth="yes"/>
			<point x="390" y="36"/>
			<point x="390" y="42"/>
			<point x="392" y="52" type="curve" smooth="yes"/>
			<point x="478" y="478" type="line"/>
			<point x="454" y="478" type="line"/>
			<point x="436" y="410" type="line"/>
			<point x="432" y="410" type="line"/>
			<point x="406" y="458"/>
			<point x="364" y="490"/>
			<point x="306" y="490" type="curve" smooth="yes"/>
			<point x="174" y="490"/>
			<point x="46" y="344"/>
			<point x="46" y="160" type="curve" smooth="yes"/>
			<point x="46" y="48"/>
			<point x="102" y="-12"/>
		</contour>
		<contour>
			<point x="188" y="14" type="curve" smooth="yes"/>
			<point x="118" y="14"/>
			<point x="74" y="64"/>
			<point x="74" y="166" type="curve" smooth="yes"/>
			<point x="74" y="314"/>
			<point x="184" y="464"/>
			<point x="304" y="464" type="curve" smooth="yes"/>
			<point x="352" y="464"/>
			<point x="392" y="438"/>
			<point x="430" y="372" type="curve"/>
			<point x="378" y="122" type="line"/>
			<point x="318" y="54"/>
			<point x="254" y="14"/>
		</contour>
	</outline>
	<anchor name="aboveLC" x="310" y="502"/>
	<anchor name="belowLC" x="220" y="-22"/>
</glyph>
<glyph name="bhook" format="2">
	<unicode hex="0253"/>
	<advance width="522"/>
	<outline>
		<contour>
			<point x="216" y="-12" type="curve" smooth="yes"/>
			<point x="348" y="-12"/>
			<point x="476" y="134"/>
			<point x="476" y="318" type="curve" smooth="yes"/>
			<point x="476" y="430"/>
			<point x="420" y="490"/>
			<point x="336" y="490" type="curve" smooth="yes"/>
			<point x="268" y="490"/>
			<point x="206" y="450"/>
			<point x="154" y="408" type="curve"/>
			<point x="152" y="408" type="line"/>
			<point x="172" y="506" type="line"/>
			<point x="190" y="594" type="line" smooth="yes"/>
			<point x="204" y="662"/>
			<point x="240" y="708"/>
			<point x="296" y="708" type="curve" smooth="yes"/>
			<point x="326" y="708"/>
			<point x="346" y="700"/>
			<point x="364" y="688" type="curve"/>
			<point x="378" y="708" type="line"/>
			<point x="356" y="724"/>
			<point x="334" y="734"/>
			<point x="298" y="734" type="curve" smooth="yes"/>
			<point x="236" y="734"/>
			<point x="182" y="694"/>
			<point x="162" y="594" type="curve" smooth="yes"/>
			<point x="44" y="0" type="line"/>
			<point x="68" y="0" type="line"/>
			<point x="86" y="68" type="line"/>
			<point x="90" y="68" type="line"/>
			<point x="116" y="20"/>
			<point x="158" y="-12"/>
		</contour>
		<contour>
			<point x="218" y="14" type="curve" smooth="yes"/>
			<point x="170" y="14"/>
			<point x="130" y="40"/>
			<point x="92" y="106" type="curve"/>
			<point x="146" y="372" type="line"/>
			<point x="204" y="424"/>
			<point x="278" y="464"/>
			<point x="334" y="464" type="curve" smooth="yes"/>
			<point x="404" y="464"/>
			<point x="448" y="413"/>
			<point x="448" y="312" type="curve" smooth="yes"/>
			<point x="448" y="164"/>
			<point x="338" y="14"/>
		</contour>
	</outline>
	<anchor name="aboveUC" x="380" y="732"/>
	<anchor name="belowLC" x="230" y="-22"/>
</glyph>
<glyph name="ccurl" format="2">
	<unicode hex="0255"/>
	<advance width="428"/>
	<outline>
		<contour>
			<point x="35" y="-66" type="line"/>
			<point x="95" y="48"/>
			<point x="204" y="134"/>
			<point x="280" y="134" type="curve" smooth="yes"/>
			<point x="324" y="134"/>
			<point x="339" y="106"/>
			<point x="334" y="80" type="curve" smooth="yes"/>
			<point x="326" y="41"/>
			<point x="274" y="14"/>
			<point x="212" y="14" type="curve" smooth="yes"/>
			<point x="118" y="14"/>
			<point x="72" y="72"/>
			<point x="72" y="182" type="curve" smooth="yes"/>
			<point x="72" y="334"/>
			<point x="184" y="464"/>
			<point x="296" y="464" type="curve" smooth="yes"/>
			<point x="342" y="464"/>
			<point x="372" y="448"/>
			<point x="400" y="416" type="curve"/>
			<point x="418" y="432" type="line"/>
			<point x="390" y="468"/>
			<point x="352" y="490"/>
			<point x="298" y="490" type="curve" smooth="yes"/>
			<point x="174" y="490"/>
			<point x="44" y="364"/>
			<point x="44" y="176" type="curve" smooth="yes"/>
			<point x="44" y="56"/>
			<point x="108" y="-12"/>
			<point x="210" y="-12" type="curve" smooth="yes"/>
			<point x="295" y="-12"/>
			<point x="356" y="30"/>
			<point x="366" y="82" type="curve" smooth="yes"/>
			<point x="374" y="126"/>
			<point x="347" y="162"/>
			<point x="285" y="162" type="curve" smooth="yes"/>
			<point x="191" y="162"/>
			<point x="86" y="74"/>
			<point x="9" y="-56" type="curve"/>
		</contour>
	</outline>
	<anchor name="aboveLC" x="290" y="502"/>
	<anchor name="belowLC" x="220" y="-22"/>
</glyph>
<glyph name="dhook" format="2">
	<unicode hex="0257"/>
	<advance width="526"/>
	<outline>
		<contour>
			<point x="186" y="-12" type="curve" smooth="yes"/>
			<point x="254" y="-12"/>
			<point x="316" y="26"/>
			<point x="366" y="78" type="curve"/>
			<point x="370" y="78" type="line"/>
			<point x="358" y="0" type="line"/>
			<point x="382" y="0" type="line"/>
			<point x="504" y="604" type="line" smooth="yes"/>
			<point x="520" y="682"/>
			<point x="544" y="708"/>
			<point x="584" y="708" type="curve" smooth="yes"/>
			<point x="600" y="708"/>
			<point x="612" y="704"/>
			<point x="620" y="700" type="curve"/>
			<point x="632" y="722" type="line"/>
			<point x="620" y="728"/>
			<point x="604" y="734"/>
			<point x="586" y="734" type="curve" smooth="yes"/>
			<point x="532" y="734"/>
			<point x="496" y="700"/>
			<point x="476" y="604" type="curve" smooth="yes"/>
			<point x="456" y="506" type="line"/>
			<point x="436" y="410" type="line"/>
			<point x="432" y="410" type="line"/>
			<point x="406" y="458"/>
			<point x="364" y="490"/>
			<point x="306" y="490" type="curve" smooth="yes"/>
			<point x="174" y="490"/>
			<point x="46" y="344"/>
			<point x="46" y="160" type="curve" smooth="yes"/>
			<point x="46" y="48"/>
			<point x="102" y="-12"/>
		</contour>
		<contour>
			<point x="188" y="14" type="curve" smooth="yes"/>
			<point x="118" y="14"/>
			<point x="74" y="64"/>
			<point x="74" y="166" type="curve" smooth="yes"/>
			<point x="74" y="314"/>
			<point x="184" y="464"/>
			<point x="304" y="464" type="curve" smooth="yes"/>
			<point x="352" y="464"/>
			<point x="392" y="438"/>
			<point x="430" y="372" type="curve"/>
			<point x="378" y="122" type="line"/>
			<point x="318" y="54"/>
			<point x="254" y="14"/>
		</contour>
	</outline>
	<anchor name="aboveUC" x="350" y="732"/>
	<anchor name="belowLC" x="200" y="-22"/>
</glyph>
<glyph name="gammalatin" format="2">
	<unicode hex="0263"/>
	<advance width="408"/>
	<outline>
		<contour>
			<point x="104" y="-234" type="curve" smooth="yes"/>
			<point x="164" y="-234"/>
			<point x="194" y="-182"/>
			<point x="194" y="-110" type="curve" smooth="yes"/>
			<point x="194" y="-78"/>
			<point x="190" y="-38"/>
			<point x="172" y="42" type="curve"/>
			<point x="166" y="6" type="line"/>
			<point x="438" y="478" type="line"/>
			<point x="408" y="478" type="line"/>
			<point x="240" y="186" type="line" smooth="yes"/>
			<point x="213" y="140"/>
			<point x="188" y="91"/>
			<point x="164" y="44" type="curve"/>
			<point x="160" y="44" type="line"/>
			<point x="152" y="89"/>
			<point x="146" y="139"/>
			<point x="138" y="186" type="curve" smooth="yes"/>
			<point x="86" y="478" type="line"/>
			<point x="58" y="478" type="line"/>
			<point x="142" y="8" type="line"/>
			<point x="150" y="44" type="line"/>
			<point x="88" y="-46"/>
			<point x="46" y="-116"/>
			<point x="46" y="-172" type="curve" smooth="yes"/>
			<point x="46" y="-212"/>
			<point x="70" y="-234"/>
		</contour>
		<contour>
			<point x="108" y="-208" type="curve" smooth="yes"/>
			<point x="90" y="-208"/>
			<point x="74" y="-194"/>
			<point x="74" y="-168" type="curve" smooth="yes"/>
			<point x="74" y="-120"/>
			<point x="110" y="-57"/>
			<point x="152" y="4" type="curve"/>
			<point x="156" y="4" type="line"/>
			<point x="164" y="-32"/>
			<point x="166" y="-70"/>
			<point x="166" y="-106" type="curve" smooth="yes"/>
			<point x="166" y="-160"/>
			<point x="152" y="-208"/>
		</contour>
	</outline>
	<anchor name="aboveLC" x="250" y="502"/>
	<anchor name="belowLC" x="100" y="-222"/>
</glyph>
<glyph name="hhook" format="2">
	<unicode hex="0266"/>
	<advance width="498"/>
	<outline>
		<contour>
			<point x="44" y="0" type="line"/>
			<point x="72" y="0" type="line"/>
			<point x="144" y="358" type="line"/>
			<point x="220" y="432"/>
			<point x="280" y="464"/>
			<point x="324" y="464" type="curve" smooth="yes"/>
			<point x="388" y="464"/>
			<point x="414" y="432"/>
			<point x="414" y="370" type="curve" smooth="yes"/>
			<point x="414" y="350"/>
			<point x="412" y="336"/>
			<point x="406" y="306" type="curve" smooth="yes"/>
			<point x="344" y="0" type="line"/>
			<point x="372" y="0" type="line"/>
			<point x="434" y="310" type="line" smooth="yes"/>
			<point x="440" y="338"/>
			<point x="442" y="350"/>
			<point x="442" y="374" type="curve" smooth="yes"/>
			<point x="442" y="442"/>
			<point x="410" y="490"/>
			<point x="328" y="490" type="curve" smooth="yes"/>
			<point x="270" y="490"/>
			<point x="216" y="452"/>
			<point x="152" y="398" type="curve"/>
			<point x="148" y="398" type="line"/>
			<point x="160" y="444" type="line"/>
			<point x="190" y="594" type="line" smooth="yes"/>
			<point x="204" y="662"/>
			<point x="240" y="708"/>
			<point x="296" y="708" type="curve" smooth="yes"/>
			<point x="326" y="708"/>
			<point x="345" y="700"/>
			<point x="364" y="686" type="curve"/>
			<point x="378" y="708" type="line"/>
			<point x="357" y="724"/>
			<point x="335" y="734"/>
			<point x="298" y="734" type="curve" smooth="yes"/>
			<point x="236" y="734"/>
			<point x="182" y="694"/>
			<point x="162" y="594" type="curve" smooth="yes"/>
		</contour>
	</outline>
	<anchor name="aboveUC" x="370" y="732"/>
	<anchor name="belowLC" x="220" y="-22"/>
</glyph>
<glyph name="mhook" format="2">
	<unicode hex="0271"/>
	<advance width="776"/>
	<outline>
		<contour>
			<point x="512" y="-234" type="curve" smooth="yes"/>
			<point x="572" y="-234"/>
			<point x="606" y="-184"/>
			<point x="624" y="-98" type="curve"/>
			<point x="706" y="310" type="line" smooth="yes"/>
			<point x="712" y="338"/>
			<point x="714" y="350"/>
			<point x="714" y="374" type="curve" smooth="yes"/>
			<point x="714" y="442"/>
			<point x="682" y="490"/>
			<point x="602" y="490" type="curve" smooth="yes"/>
			<point x="556" y="490"/>
			<point x="494" y="454"/>
			<point x="426" y="388" type="curve"/>
			<point x="424" y="442"/>
			<point x="396" y="490"/>
			<point x="316" y="490" type="curve" smooth="yes"/>
			<point x="270" y="490"/>
			<point x="210" y="452"/>
			<point x="156" y="400" type="curve"/>
			<point x="152" y="400" type="line"/>
			<point x="164" y="478" type="line"/>
			<point x="140" y="478" type="line"/>
			<point x="44" y="0" type="line"/>
			<point x="72" y="0" type="line"/>
			<point x="144" y="358" type="line"/>
			<point x="214" y="432"/>
			<point x="280" y="464"/>
			<point x="312" y="464" type="curve" smooth="yes"/>
			<point x="374" y="464"/>
			<point x="400" y="432"/>
			<point x="400" y="370" type="curve" smooth="yes"/>
			<point x="400" y="350"/>
			<point x="398" y="336"/>
			<point x="392" y="306" type="curve" smooth="yes"/>
			<point x="330" y="0" type="line"/>
			<point x="358" y="0" type="line"/>
			<point x="430" y="358" type="line"/>
			<point x="500" y="432"/>
			<point x="566" y="464"/>
			<point x="598" y="464" type="curve" smooth="yes"/>
			<point x="660" y="464"/>
			<point x="686" y="432"/>
			<point x="686" y="370" type="curve" smooth="yes"/>
			<point x="686" y="350"/>
			<point x="684" y="336"/>
			<point x="678" y="306" type="curve" smooth="yes"/>
			<point x="594" y="-104" type="line"/>
			<point x="580" y="-166"/>
			<point x="554" y="-208"/>
			<point x="514" y="-208" type="curve" smooth="yes"/>
			<point x="488" y="-208"/>
			<point x="478" y="-202"/>
			<point x="466" y="-194" type="curve"/>
			<point x="454" y="-218" type="line"/>
			<point x="468" y="-226"/>
			<point x="484" y="-234"/>
		</contour>
	</outline>
	<anchor name="aboveLC" x="460" y="502"/>
	<anchor name="belowLC" x="300" y="-222"/>
</glyph>
<glyph name="rturned" format="2">
	<unicode hex="0279"/>
	<advance width="308"/>
	<outline>
		<contour>
			<point x="4" y="-12" type="curve" smooth="yes"/>
			<point x="66" y="-12"/>
			<point x="114" y="34"/>
			<point x="154" y="90" type="curve"/>
			<point x="158" y="90" type="line"/>
			<point x="142" y="0" type="line"/>
			<point x="166" y="0" type="line"/>
			<point x="262" y="478" type="line"/>
			<point x="234" y="478" type="line"/>
			<point x="170" y="156" type="line"/>
			<point x="126" y="68"/>
			<point x="62" y="16"/>
			<point x="10" y="16" type="curve" smooth="yes"/>
			<point x="-8" y="16"/>
			<point x="-18" y="20"/>
			<point x="-26" y="24" type="curve"/>
			<point x="-38" y="-4" type="line"/>
			<point x="-22" y="-10"/>
			<point x="-8" y="-12"/>
		</contour>
	</outline>
	<anchor name="aboveLC" x="250" y="502"/>
	<anchor name="belowLC" x="60" y="-22"/>
	<anchor name="center" x="190" y="260"/>
</glyph>
<glyph name="rtail" format="2">
	<unicode hex="027D"/>
	<advance width="308"/>
	<outline>
		<contour>
			<point x="84" y="-234" type="curve" smooth="yes"/>
			<point x="99" y="-234"/>
			<point x="121" y="-228"/>
			<point x="132" y="-222" type="curve"/>
			<point x="126" y="-198" type="line"/>
			<point x="116" y="-202"/>
			<point x="101" y="-208"/>
			<point x="86" y="-208" type="curve" smooth="yes"/>
			<point x="56" y="-208"/>
			<point x="46" y="-192"/>
			<point x="46" y="-158" type="curve" smooth="yes"/>
			<point x="46" y="-138"/>
			<point x="48" y="-126"/>
			<point x="52" y="-104" type="curve" smooth="yes"/>
			<point x="136" y="322" type="line"/>
			<point x="180" y="410"/>
			<point x="244" y="462"/>
			<point x="296" y="462" type="curve" smooth="yes"/>
			<point x="314" y="462"/>
			<point x="324" y="458"/>
			<point x="332" y="454" type="curve"/>
			<point x="344" y="482" type="line"/>
			<point x="328" y="488"/>
			<point x="314" y="490"/>
			<point x="302" y="490" type="curve" smooth="yes"/>
			<point x="240" y="490"/>
			<point x="192" y="444"/>
			<point x="152" y="388" type="curve"/>
			<point x="148" y="388" type="line"/>
			<point x="164" y="478" type="line"/>
			<point x="140" y="478" type="line"/>
			<point x="24" y="-104" type="line" smooth="yes"/>
			<point x="20" y="-126"/>
			<point x="18" y="-144"/>
			<point x="18" y="-162" type="curve" smooth="yes"/>
			<point x="18" y="-214"/>
			<point x="44" y="-234"/>
		</contour>
	</outline>
	<anchor name="aboveLC" x="290" y="502"/>
	<anchor name="belowLC" x="80" y="-222"/>
</glyph>
<glyph name="apicalretroflex" format="2">
	<unicode hex="0285"/>
	<advance width="236"/>
	<outline>
		<contour>
			<point x="104" y="-234" type="curve" smooth="yes"/>
			<point x="120" y="-234"/>
			<point x="140" y="-228"/>
			<point x="152" y="-220" type="curve"/>
			<point x="144" y="-200" type="line"/>
			<point x="132" y="-206"/>
			<point x="120" y="-208"/>
			<point x="106" y="-208" type="curve" smooth="yes"/>
			<point x="76" y="-208"/>
			<point x="66" y="-192"/>
			<point x="66" y="-158" type="curve" smooth="yes"/>
			<point x="66" y="-138"/>
			<point x="68" y="-126"/>
			<point x="72" y="-104" type="curve" smooth="yes"/>
			<point x="164" y="360" type="line" smooth="yes"/>
			<point x="168" y="382"/>
			<point x="170" y="400"/>
			<point x="170" y="418" type="curve" smooth="yes"/>
			<point x="170" y="470"/>
			<point x="144" y="490"/>
			<point x="104" y="490" type="curve" smooth="yes"/>
			<point x="88" y="490"/>
			<point x="68" y="484"/>
			<point x="56" y="476" type="curve"/>
			<point x="64" y="456" type="line"/>
			<point x="76" y="462"/>
			<point x="88" y="464"/>
			<point x="102" y="464" type="curve" smooth="yes"/>
			<point x="132" y="464"/>
			<point x="142" y="448"/>
			<point x="142" y="414" type="curve" smooth="yes"/>
			<point x="142" y="394"/>
			<point x="140" y="382"/>
			<point x="136" y="360" type="curve" smooth="yes"/>
			<point x="44" y="-104" type="line" smooth="yes"/>
			<point x="40" y="-126"/>
			<point x="38" y="-144"/>
			<point x="38" y="-162" type="curve" smooth="yes"/>
			<point x="38" y="-214"/>
			<point x="64" y="-234"/>
		</contour>
	</outline>
	<anchor name="aboveLC" x="140" y="502"/>
	<anchor name="belowLC" x="90" y="-222"/>
</glyph>
<glyph name="tretroflex" format="2">
	<unicode hex="0288"/>
	<advance width="290"/>
	<outline>
		<contour>
			<point x="124" y="-234" type="curve" smooth="yes"/>
			<point x="152" y="-234"/>
			<point x="178" y="-222"/>
			<point x="196" y="-212" type="curve"/>
			<point x="186" y="-190" type="line"/>
			<point x="170" y="-198"/>
			<point x="150" y="-208"/>
			<point x="126" y="-208" type="curve" smooth="yes"/>
			<point x="72" y="-208"/>
			<point x="56" y="-184"/>
			<point x="56" y="-138" type="curve" smooth="yes"/>
			<point x="56" y="-124"/>
			<point x="58" y="-112"/>
			<point x="60" y="-100" type="curve" smooth="yes"/>
			<point x="174" y="452" type="line"/>
			<point x="306" y="452" type="line"/>
			<point x="312" y="478" type="line"/>
			<point x="180" y="478" type="line"/>
			<point x="212" y="636" type="line"/>
			<point x="188" y="636" type="line"/>
			<point x="152" y="478" type="line"/>
			<point x="74" y="474" type="line"/>
			<point x="70" y="452" type="line"/>
			<point x="146" y="452" type="line"/>
			<point x="32" y="-98" type="line" smooth="yes"/>
			<point x="29" y="-114"/>
			<point x="28" y="-126"/>
			<point x="28" y="-144" type="curve" smooth="yes"/>
			<point x="28" y="-192"/>
			<point x="52" y="-234"/>
		</contour>
	</outline>
	<anchor name="aboveLC" x="194" y="632"/>
	<anchor name="belowLC" x="110" y="-222"/>
</glyph>
<glyph name="yturned" format="2">
	<unicode hex="028E"/>
	<advance width="408"/>
	<outline>
		<contour>
			<point x="-24" y="0" type="line"/>
			<point x="6" y="0" type="line"/>
			<point x="176" y="312" type="line" smooth="yes"/>
			<point x="202" y="360"/>
			<point x="228" y="408"/>
			<point x="252" y="454" type="curve"/>
			<point x="256" y="454" type="line"/>
			<point x="262" y="410"/>
			<point x="270" y="358"/>
			<point x="278" y="312" type="curve" smooth="yes"/>
			<point x="328" y="0" type="line"/>
			<point x="356" y="0" type="line"/>
			<point x="276" y="488" type="line"/>
			<point x="316" y="566" type="line" smooth="yes"/>
			<point x="358" y="648"/>
			<point x="394" y="708"/>
			<point x="460" y="708" type="curve" smooth="yes"/>
			<point x="472" y="708"/>
			<point x="484" y="704"/>
			<point x="494" y="700" type="curve"/>
			<point x="506" y="724" type="line"/>
			<point x="494" y="730"/>
			<point x="478" y="734"/>
			<point x="462" y="734" type="curve" smooth="yes"/>
			<point x="380" y="734"/>
			<point x="336" y="662"/>
			<point x="294" y="578" type="curve"/>
		</contour>
	</outline>
	<anchor name="aboveUC" x="390" y="732"/>
	<anchor name="belowLC" x="180" y="-22"/>
</glyph>
<glyph name="ysmall" format="2">
	<unicode hex="028F"/>
	<advance width="374"/>
	<outline>
		<contour>
			<point x="124" y="0" type="line"/>
			<point x="152" y="0" type="line"/>
			<point x="188" y="178" type="line"/>
			<point x="412" y="478" type="line"/>
			<point x="380" y="478" type="line"/>
			<point x="262" y="316" type="line"/>
			<point x="233" y="276"/>
			<point x="208" y="242"/>
			<point x="178" y="202" type="curve"/>
			<point x="176" y="202" type="line"/>
			<point x="160" y="242"/>
			<point x="148" y="276"/>
			<point x="134" y="316" type="curve"/>
			<point x="78" y="478" type="line"/>
			<point x="48" y="478" type="line"/>
			<point x="160" y="178" type="line"/>
		</contour>
	</outline>
	<anchor name="aboveLC" x="230" y="502"/>
	<anchor name="belowLC" x="140" y="-22"/>
</glyph>
<glyph name="bsmall" format="2">
	<unicode hex="0299"/>
	<advance width="458"/>
	<outline>
		<contour>
			<point x="44" y="0" type="line"/>
			<point x="216" y="0" type="line" smooth="yes"/>
			<point x="353" y="0"/>
			<point x="424" y="71"/>
			<point x="424" y="152" type="curve" smooth="yes"/>
			<point x="424" y="212"/>
			<point x="376" y="242"/>
			<point x="336" y="256" type="curve"/>
			<point x="336" y="258" type="line"/>
			<point x="388" y="276"/>
			<point x="442" y="315"/>
			<point x="442" y="382" type="curve" smooth="yes"/>
			<point x="442" y="447"/>
			<point x="384" y="478"/>
			<point x="305" y="478" type="curve" smooth="yes"/>
			<point x="140" y="478" type="line"/>
		</contour>
		<contour>
			<point x="126" y="268" type="line"/>
			<point x="162" y="452" type="line"/>
			<point x="290" y="452" type="line" smooth="yes"/>
			<point x="376" y="452"/>
			<point x="414" y="425"/>
			<point x="414" y="372" type="curve" smooth="yes"/>
			<point x="414" y="323"/>
			<point x="358" y="268"/>
			<point x="245" y="268" type="curve" smooth="yes"/>
		</contour>
		<contour>
			<point x="78" y="26" type="line"/>
			<point x="120" y="242" type="line"/>
			<point x="244" y="242" type="line" smooth="yes"/>
			<point x="346" y="242"/>
			<point x="396" y="206"/>
			<point x="396" y="146" type="curve" smooth="yes"/>
			<point x="396" y="89"/>
			<point x="339" y="26"/>
			<point x="211" y="26" type="curve" smooth="yes"/>
		</contour>
	</outline>
	<anchor name="aboveLC" x="300" y="502"/>
	<anchor name="belowLC" x="220" y="-22"/>
</glyph>
<glyph name="ringhalfleftmod" format="2">
	<unicode hex="02BF"/>
	<advance width="210"/>
	<outline>
		<contour>
			<point x="214" y="502" type="curve"/>
			<point x="220" y="524" type="line"/>
			<point x="156" y="524"/>
			<point x="124" y="554"/>
			<point x="124" y="600" type="curve" smooth="yes"/>
			<point x="124" y="652"/>
			<point x="168" y="708"/>
			<point x="256" y="708" type="curve"/>
			<point x="262" y="730" type="line"/>
			<point x="152" y="734"/>
			<point x="98" y="664"/>
			<point x="98" y="596" type="curve" smooth="yes"/>
			<point x="98" y="536"/>
			<point x="146" y="498"/>
		</contour>
	</outline>
</glyph>
<glyph name="acutecmb" format="2">
	<unicode hex="0301"/>
	<outline>
		<contour>
			<point x="40" y="570" type="line"/>
			<point x="70" y="570" type="line"/>
			<point x="240" y="716" type="line"/>
			<point x="238" y="720" type="line"/>
			<point x="200" y="720" type="line"/>
		</contour>
	</outline>
	<anchor name="_aboveLC" x="100" y="502"/>
</glyph>
<glyph name="hoicmb" format="2">
	<unicode hex="0309"/>
	<outline>
		<contour>
			<point x="84" y="558" type="line"/>
			<point x="152" y="576"/>
			<point x="184" y="616"/>
			<point x="184" y="664" type="curve" smooth="yes"/>
			<point x="184" y="714"/>
			<point x="140" y="734"/>
			<point x="90" y="736" type="curve"/>
			<point x="84" y="712" type="line"/>
			<point x="128" y="710"/>
			<point x="156" y="694"/>
			<point x="156" y="658" type="curve" smooth="yes"/>
			<point x="156" y="626"/>
			<point x="132" y="596"/>
			<point x="78" y="580" type="curve"/>
		</contour>
	</outline>
	<anchor name="_aboveLC" x="100" y="502"/>
	<anchor name="aboveLC" x="140" y="722"/>
</glyph>
<glyph name="verticallineabovecmb" format="2">
	<unicode hex="030D"/>
	<outline>
		<contour>
			<point x="100" y="564" type="line"/>
			<point x="118" y="564" type="line"/>
			<point x="160" y="730" type="line"/>
			<point x="130" y="730" type="line"/>
		</contour>
	</outline>
	<anchor name="_aboveLC" x="100" y="502"/>
	<anchor name="aboveLC" x="140" y="712"/>
</glyph>
<glyph name="dblgravecmb" format="2">
	<unicode hex="030F"/>
	<outline>
		<contour>
			<point x="44" y="570" type="line"/>
			<point x="70" y="570" type="line"/>
			<point x="-6" y="720" type="line"/>
			<point x="-38" y="720" type="line"/>
			<point x="-40" y="716" type="line"/>
		</contour>
		<contour>
			<point x="194" y="570" type="line"/>
			<point x="220" y="570" type="line"/>
			<point x="144" y="720" type="line"/>
			<point x="112" y="720" type="line"/>
			<point x="110" y="716" type="line"/>
		</contour>
	</outline>
	<anchor name="_aboveLC" x="100" y="502"/>
</glyph>
<glyph name="uptackbelowcmb" format="2">
	<unicode hex="031D"/>
	<outline>
		<contour>
			<point x="-124" y="-196" type="line"/>
			<point x="48" y="-196" type="line"/>
			<point x="53" y="-168" type="line"/>
			<point x="-19" y="-168" type="line"/>
			<point x="2" y="-62" type="line"/>
			<point x="-26" y="-62" type="line"/>
			<point x="-47" y="-168" type="line"/>
			<point x="-119" y="-168" type="line"/>
		</contour>
	</outline>
	<anchor name="_belowLC" x="0" y="-22"/>
</glyph>
<glyph name="ogonekcmb" format="2">
	<unicode hex="0328"/>
	<outline>
		<contour>
			<point x="-30" y="-212" type="curve" smooth="yes"/>
			<point x="-4" y="-212"/>
			<point x="18" y="-202"/>
			<point x="42" y="-180" type="curve"/>
			<point x="30" y="-164" type="line"/>
			<point x="8" y="-180"/>
			<point x="-6" y="-186"/>
			<point x="-26" y="-186" type="curve" smooth="yes"/>
			<point x="-52" y="-186"/>
			<point x="-70" y="-168"/>
			<point x="-70" y="-138" type="curve" smooth="yes"/>
			<point x="-70" y="-88"/>
			<point x="-30" y="-44"/>
			<point x="24" y="4" type="curve"/>
			<point x="-2" y="4" type="line"/>
			<point x="-48" y="-28"/>
			<point x="-100" y="-88"/>
			<point x="-100" y="-144" type="curve" smooth="yes"/>
			<point x="-100" y="-190"/>
			<point x="-70" y="-212"/>
		</contour>
	</outline>
	<anchor name="_ogonekLC" x="0" y="0"/>
</glyph>
<glyph name="bridgebelowcmb" format="2">
	<unicode hex="032A"/>
	<outline>
		<contour>
			<point x="-161" y="-230" type="line"/>
			<point x="-135" y="-230" type="line"/>
			<point x="-112" y="-114" type="line"/>
			<point x="68" y="-114" type="line"/>
			<point x="45" y="-230" type="line"/>
			<point x="71" y="-230" type="line"/>
			<point x="99" y="-86" type="line"/>
			<point x="-133" y="-86" type="line"/>
		</contour>
	</outline>
	<anchor name="_belowLC" x="0" y="-22"/>
</glyph>
<glyph name="slashlongcmb" format="2">
	<unicode hex="0338"/>
	<outline>
		<contour>
			<point x="-588" y="-22" type="line"/>
			<point x="30" y="660" type="line"/>
			<point x="14" y="678" type="line"/>
			<point x="-610" y="-4" type="line"/>
		</contour>
	</outline>
</glyph>
<glyph name="ringhalfrightbelowcmb" format="2">
	<unicode hex="0339"/>
	<outline>
		<contour>
			<point x="-110" y="-258" type="line"/>
			<point x="-42" y="-260"/>
			<point x="28" y="-228"/>
			<point x="28" y="-150" type="curve" smooth="yes"/>
			<point x="28" y="-99"/>
			<point x="-24" y="-70"/>
			<point x="-74" y="-74" type="curve"/>
			<point x="-78" y="-94" type="line"/>
			<point x="-32" y="-94"/>
			<point x="0" y="-112"/>
			<point x="0" y="-152" type="curve" smooth="yes"/>
			<point x="0" y="-210"/>
			<point x="-50" y="-238"/>
			<point x="-106" y="-238" type="curve"/>
		</contour>
	</outline>
	<anchor name="_belowLC" x="0" y="-22"/>
</glyph>
<glyph name="bridgeinvertedbelowcmb" format="2">
	<unicode hex="033A"/>
	<outline>
		<contour>
			<point x="-161" y="-234" type="line"/>
			<point x="71" y="-234" type="line"/>
			<point x="99" y="-90" type="line"/>
			<point x="73" y="-90" type="line"/>
			<point x="50" y="-206" type="line"/>
			<point x="-130" y="-206" type="line"/>
			<point x="-107" y="-90" type="line"/>
			<point x="-133" y="-90" type="line"/>
		</contour>
	</outline>
	<anchor name="_belowLC" x="0" y="-22"/>
</glyph>
<glyph name="brevedoublebelowcmb" format="2">
	<unicode hex="035C"/>
	<outline>
		<contour>
			<point x="-58" y="-234" type="curve" smooth="yes"/>
			<point x="122" y="-234"/>
			<point x="272" y="-186"/>
			<point x="404" y="-104" type="curve"/>
			<point x="394" y="-84" type="line"/>
			<point x="258" y="-164"/>
			<point x="102" y="-206"/>
			<point x="-52" y="-206" type="curve" smooth="yes"/>
			<point x="-206" y="-206"/>
			<point x="-344" y="-164"/>
			<point x="-450" y="-84" type="curve"/>
			<point x="-464" y="-104" type="line"/>
			<point x="-352" y="-186"/>
			<point x="-226" y="-234"/>
		</contour>
	</outline>
</glyph>
<glyph name="Theta" format="2">
	<unicode hex="0398"/>
	<advance width="612"/>
	<outline>
		<contour>
			<point x="204" y="338" type="line"/>
			<point x="444" y="338" type="line"/>
			<point x="450" y="364" type="line"/>
			<point x="210" y="364" type="line"/>
		</contour>
		<component base="O"/>
	</outline>
	<anchor name="aboveUC" x="390" y="682"/>
</glyph>
<glyph name="Lambda" format="2">
	<unicode hex="039B"/>
	<advance width="444"/>
	<outline>
		<contour>
			<point x="-46" y="0" type="line"/>
			<point x="-16" y="0" type="line"/>
			<point x="194" y="400" type="line"/>
			<point x="232" y="470"/>
			<point x="272" y="550"/>
			<point x="308" y="622" type="curve"/>
			<point x="312" y="622" type="line"/>
			<point x="318" y="548"/>
			<point x="326" y="472"/>
			<point x="334" y="400" type="curve"/>
			<point x="370" y="0" type="line"/>
			<point x="398" y="0" type="line"/>
			<point x="336" y="660" type="line"/>
			<point x="302" y="660" type="line"/>
		</contour>
	</outline>
</glyph>
<glyph name="Sigma" format="2">
	<unicode hex="03A3"/>
	<advance width="506"/>
	<outline>
		<contour>
			<point x="-9" y="0" type="line"/>
			<point x="415" y="0" type="line"/>
			<point x="420" y="26" type="line"/>
			<point x="40" y="26" type="line"/>
			<point x="328" y="334" type="line"/>
			<point x="162" y="634" type="line"/>
			<point x="511" y="634" type="line"/>
			<point x="516" y="660" type="line"/>
			<point x="129" y="660" type="line"/>
			<point x="125" y="644" type="line"/>
			<point x="295" y="336" type="line"/>
			<point x="-6" y="16" type="line"/>
		</contour>
	</outline>
</glyph>
<glyph name="gamma" format="2">
	<unicode hex="03B3"/>
	<advance width="424"/>
	<outline>
		<contour>
			<point x="100" y="-180" type="curve"/>
			<point x="126" y="-184" type="line"/>
			<point x="142" y="-136"/>
			<point x="162" y="-56"/>
			<point x="168" y="2" type="curve"/>
			<point x="310" y="178"/>
			<point x="390" y="322"/>
			<point x="440" y="478" type="curve"/>
			<point x="412" y="484" type="line"/>
			<point x="372" y="338"/>
			<point x="290" y="194"/>
			<point x="174" y="46" type="curve"/>
			<point x="170" y="46" type="line"/>
			<point x="168" y="218"/>
			<point x="118" y="394"/>
			<point x="76" y="490" type="curve"/>
			<point x="50" y="480" type="line"/>
			<point x="94" y="392"/>
			<point x="146" y="198"/>
			<point x="146" y="30" type="curve" smooth="yes"/>
			<point x="146" y="-34"/>
			<point x="122" y="-124"/>
		</contour>
	</outline>
	<anchor name="aboveLC" x="250" y="502"/>
	<anchor name="belowLC" x="110" y="-182"/>
</glyph>
<glyph name="iota" format="2">
	<unicode hex="03B9"/>
	<advance width="226"/>
	<outline>
		<contour>
			<point x="86" y="-8" type="curve" smooth="yes"/>
			<point x="96" y="-8"/>
			<point x="104" y="-6"/>
			<point x="114" y="-2" type="curve"/>
			<point x="110" y="22" type="line"/>
			<point x="100" y="18"/>
			<point x="97" y="18"/>
			<point x="93" y="18" type="curve" smooth="yes"/>
			<point x="83" y="18"/>
			<point x="78" y="23"/>
			<point x="78" y="32" type="curve" smooth="yes"/>
			<point x="78" y="54"/>
			<point x="118" y="242"/>
			<point x="168" y="478" type="curve"/>
			<point x="140" y="478" type="line"/>
			<point x="54" y="54" type="line" smooth="yes"/>
			<point x="52" y="44"/>
			<point x="50" y="34"/>
			<point x="50" y="28" type="curve" smooth="yes"/>
			<point x="50" y="4"/>
			<point x="66" y="-8"/>
		</contour>
	</outline>
	<anchor name="aboveLC" x="160" y="502"/>
	<anchor name="belowLC" x="80" y="-22"/>
</glyph>
<glyph name="lambda" format="2">
	<unicode hex="03BB"/>
	<advance width="400"/>
	<outline>
		<contour>
			<point x="340" y="-6" type="curve"/>
			<point x="368" y="0" type="line"/>
			<point x="334" y="78"/>
			<point x="309" y="354"/>
			<point x="286" y="544" type="curve" smooth="yes"/>
			<point x="274" y="642"/>
			<point x="266" y="734"/>
			<point x="180" y="734" type="curve" smooth="yes"/>
			<point x="154" y="734"/>
			<point x="138" y="730"/>
			<point x="122" y="724" type="curve"/>
			<point x="132" y="698" type="line"/>
			<point x="146" y="704"/>
			<point x="156" y="706"/>
			<point x="176" y="706" type="curve" smooth="yes"/>
			<point x="238" y="706"/>
			<point x="248" y="640"/>
			<point x="262" y="532" type="curve" smooth="yes"/>
			<point x="285" y="349"/>
			<point x="310" y="72"/>
		</contour>
		<contour>
			<point x="-30" y="0" type="curve"/>
			<point x="0" y="-6" type="line"/>
			<point x="90" y="156"/>
			<point x="180" y="306"/>
			<point x="278" y="450" type="curve"/>
			<point x="274" y="486" type="line"/>
			<point x="162" y="324"/>
			<point x="68" y="170"/>
		</contour>
	</outline>
	<anchor name="aboveUC" x="290" y="732"/>
	<anchor name="belowLC" x="180" y="-22"/>
</glyph>
<glyph name="pi" format="2">
	<unicode hex="03C0"/>
	<advance width="520"/>
	<outline>
		<contour>
			<point x="394" y="-8" type="curve" smooth="yes"/>
			<point x="410" y="-8"/>
			<point x="424" y="-4"/>
			<point x="432" y="0" type="curve"/>
			<point x="428" y="24" type="line"/>
			<point x="416" y="20"/>
			<point x="406" y="18"/>
			<point x="400" y="18" type="curve" smooth="yes"/>
			<point x="376" y="18"/>
			<point x="364" y="30"/>
			<point x="364" y="52" type="curve" smooth="yes"/>
			<point x="364" y="70"/>
			<point x="410" y="294"/>
			<point x="450" y="452" type="curve"/>
			<point x="536" y="452" type="line"/>
			<point x="542" y="478" type="line"/>
			<point x="146" y="478" type="line"/>
			<point x="82" y="474" type="line"/>
			<point x="78" y="452" type="line"/>
			<point x="180" y="452" type="line"/>
			<point x="152" y="304"/>
			<point x="110" y="140"/>
			<point x="62" y="0" type="curve"/>
			<point x="90" y="-4" type="line"/>
			<point x="134" y="136"/>
			<point x="174" y="296"/>
			<point x="206" y="452" type="curve"/>
			<point x="424" y="452" type="line"/>
			<point x="390" y="300"/>
			<point x="338" y="80"/>
			<point x="338" y="48" type="curve" smooth="yes"/>
			<point x="338" y="9"/>
			<point x="358" y="-8"/>
		</contour>
	</outline>
	<anchor name="aboveLC" x="320" y="502"/>
	<anchor name="belowLC" x="230" y="-22"/>
</glyph>
<glyph name="sigma" format="2">
	<unicode hex="03C3"/>
	<advance width="512"/>
	<outline>
		<contour>
			<point x="206" y="-12" type="curve" smooth="yes"/>
			<point x="330" y="-12"/>
			<point x="444" y="122"/>
			<point x="444" y="296" type="curve" smooth="yes"/>
			<point x="444" y="372"/>
			<point x="420" y="422"/>
			<point x="378" y="452" type="curve"/>
			<point x="378" y="456" type="line"/>
			<point x="434" y="456"/>
			<point x="487" y="454"/>
			<point x="542" y="450" type="curve"/>
			<point x="548" y="478" type="line"/>
			<point x="300" y="478" type="line" smooth="yes"/>
			<point x="178" y="478"/>
			<point x="46" y="362"/>
			<point x="46" y="178" type="curve" smooth="yes"/>
			<point x="46" y="50"/>
			<point x="112" y="-12"/>
		</contour>
		<contour>
			<point x="208" y="14" type="curve" smooth="yes"/>
			<point x="126" y="14"/>
			<point x="74" y="64"/>
			<point x="74" y="182" type="curve" smooth="yes"/>
			<point x="74" y="344"/>
			<point x="188" y="452"/>
			<point x="298" y="452" type="curve" smooth="yes"/>
			<point x="383" y="452"/>
			<point x="416" y="382"/>
			<point x="416" y="291" type="curve" smooth="yes"/>
			<point x="416" y="146"/>
			<point x="318" y="14"/>
		</contour>
	</outline>
	<anchor name="aboveLC" x="310" y="502"/>
	<anchor name="belowLC" x="190" y="-22"/>
</glyph>
<glyph name="upsilon" format="2">
	<unicode hex="03C5"/>
	<advance width="474"/>
	<outline>
		<contour>
			<point x="188" y="-12" type="curve" smooth="yes"/>
			<point x="296" y="-12"/>
			<point x="432" y="99"/>
			<point x="432" y="374" type="curve" smooth="yes"/>
			<point x="432" y="406"/>
			<point x="427" y="455"/>
			<point x="420" y="488" type="curve"/>
			<point x="392" y="480" type="line"/>
			<point x="399" y="449"/>
			<point x="404" y="400"/>
			<point x="404" y="368" type="curve" smooth="yes"/>
			<point x="404" y="116"/>
			<point x="280" y="14"/>
			<point x="190" y="14" type="curve" smooth="yes"/>
			<point x="134" y="14"/>
			<point x="88" y="44"/>
			<point x="88" y="134" type="curve" smooth="yes"/>
			<point x="88" y="178"/>
			<point x="150" y="414"/>
			<point x="150" y="480" type="curve"/>
			<point x="122" y="478" type="line"/>
			<point x="122" y="406"/>
			<point x="62" y="194"/>
			<point x="62" y="128" type="curve" smooth="yes"/>
			<point x="62" y="31"/>
			<point x="116" y="-12"/>
		</contour>
	</outline>
	<anchor name="aboveLC" x="280" y="502"/>
	<anchor name="belowLC" x="190" y="-22"/>
</glyph>
<glyph name="psi" format="2">
	<unicode hex="03C8"/>
	<advance width="578"/>
	<outline>
		<contour>
			<point x="186" y="-180" type="line"/>
			<point x="214" y="-180" type="line"/>
			<point x="378" y="640" type="line"/>
			<point x="350" y="640" type="line"/>
		</contour>
		<contour>
			<point x="224" y="-12" type="curve"/>
			<point x="226" y="14" type="line"/>
			<point x="136" y="14"/>
			<point x="86" y="70"/>
			<point x="86" y="156" type="curve" smooth="yes"/>
			<point x="86" y="218"/>
			<point x="144" y="412"/>
			<point x="144" y="480" type="curve"/>
			<point x="116" y="478" type="line"/>
			<point x="116" y="404"/>
			<point x="60" y="239"/>
			<point x="60" y="150" type="curve" smooth="yes"/>
			<point x="60" y="58"/>
			<point x="118" y="-12"/>
		</contour>
		<contour>
			<point x="234" y="-12" type="line"/>
			<point x="392" y="-12"/>
			<point x="532" y="112"/>
			<point x="532" y="382" type="curve" smooth="yes"/>
			<point x="532" y="414"/>
			<point x="526" y="458"/>
			<point x="520" y="488" type="curve"/>
			<point x="494" y="482" type="line"/>
			<point x="500" y="451"/>
			<point x="504" y="409"/>
			<point x="504" y="378" type="curve" smooth="yes"/>
			<point x="504" y="130"/>
			<point x="376" y="14"/>
			<point x="236" y="14" type="curve"/>
		</contour>
	</outline>
	<anchor name="aboveLC" x="360" y="632"/>
	<anchor name="belowLC" x="210" y="-182"/>
</glyph>
<glyph name="stigma" format="2">
	<unicode hex="03DB"/>
	<advance width="426"/>
	<outline>
		<contour>
			<point x="232" y="-186" type="line"/>
			<point x="262" y="-152"/>
			<point x="298" y="-110"/>
			<point x="298" y="-66" type="curve" smooth="yes"/>
			<point x="298" y="-19"/>
			<point x="258" y="2"/>
			<point x="192" y="24" type="curve" smooth="yes"/>
			<point x="120" y="48"/>
			<point x="72" y="96"/>
			<point x="72" y="188" type="curve" smooth="yes"/>
			<point x="72" y="346"/>
			<point x="197" y="454"/>
			<point x="316" y="454" type="curve"/>
			<point x="362" y="454"/>
			<point x="392" y="454"/>
			<point x="438" y="450" type="curve"/>
			<point x="444" y="478" type="line"/>
			<point x="318" y="478" type="line" smooth="yes"/>
			<point x="174" y="478"/>
			<point x="44" y="362"/>
			<point x="44" y="182" type="curve" smooth="yes"/>
			<point x="44" y="88"/>
			<point x="96" y="28"/>
			<point x="172" y="2" type="curve" smooth="yes"/>
			<point x="248" y="-24"/>
			<point x="270" y="-45"/>
			<point x="270" y="-70" type="curve" smooth="yes"/>
			<point x="270" y="-104"/>
			<point x="244" y="-138"/>
			<point x="212" y="-172" type="curve"/>
		</contour>
	</outline>
	<anchor name="aboveLC" x="310" y="501"/>
	<anchor name="belowLC" x="120" y="-182"/>
</glyph>
<glyph name="Dje" format="2">
	<unicode hex="0402"/>
	<advance width="650"/>
	<outline>
		<contour>
			<point x="370" y="-12" type="curve" smooth="yes"/>
			<point x="464" y="-12"/>
			<point x="570" y="70"/>
			<point x="570" y="234" type="curve" smooth="yes"/>
			<point x="570" y="338"/>
			<point x="486" y="396"/>
			<point x="368" y="396" type="curve" smooth="yes"/>
			<point x="330" y="396"/>
			<point x="286" y="390"/>
			<point x="258" y="382" type="curve"/>
			<point x="308" y="632" type="line"/>
			<point x="552" y="632" type="line"/>
			<point x="558" y="660" type="line"/>
			<point x="106" y="660" type="line"/>
			<point x="100" y="632" type="line"/>
			<point x="278" y="632" type="line"/>
			<point x="152" y="0" type="line"/>
			<point x="182" y="0" type="line"/>
			<point x="252" y="354" type="line"/>
			<point x="280" y="362"/>
			<point x="325" y="368"/>
			<point x="366" y="368" type="curve" smooth="yes"/>
			<point x="466" y="368"/>
			<point x="540" y="322"/>
			<point x="540" y="228" type="curve" smooth="yes"/>
			<point x="540" y="83"/>
			<point x="444" y="14"/>
			<point x="372" y="14" type="curve" smooth="yes"/>
			<point x="352" y="14"/>
			<point x="336" y="18"/>
			<point x="324" y="22" type="curve"/>
			<point x="314" y="-2" type="line"/>
			<point x="328" y="-8"/>
			<point x="348" y="-12"/>
		</contour>
	</outline>
</glyph>
<glyph name="Dzhe" format="2">
	<unicode hex="040F"/>
	<advance width="596"/>
	<outline>
		<contour>
			<point x="198" y="-188" type="line"/>
			<point x="220" y="-188" type="line"/>
			<point x="264" y="0" type="line"/>
			<point x="454" y="0" type="line"/>
			<point x="586" y="660" type="line"/>
			<point x="556" y="660" type="line"/>
			<point x="428" y="26" type="line"/>
			<point x="74" y="26" type="line"/>
			<point x="202" y="660" type="line"/>
			<point x="172" y="660" type="line"/>
			<point x="40" y="0" type="line"/>
			<point x="234" y="0" type="line"/>
		</contour>
	</outline>
</glyph>
<glyph name="Ecyr" format="2">
	<unicode hex="042D"/>
	<advance width="539"/>
	<outline>
		<contour>
			<point x="194" y="-12" type="curve" smooth="yes"/>
			<point x="376" y="-12"/>
			<point x="508" y="174"/>
			<point x="508" y="398" type="curve" smooth="yes"/>
			<point x="508" y="574"/>
			<point x="436" y="672"/>
			<point x="308" y="672" type="curve" smooth="yes"/>
			<point x="232" y="672"/>
			<point x="166" y="636"/>
			<point x="122" y="594" type="curve"/>
			<point x="140" y="574" type="line"/>
			<point x="184" y="616"/>
			<point x="246" y="646"/>
			<point x="306" y="646" type="curve" smooth="yes"/>
			<point x="418" y="646"/>
			<point x="478" y="552"/>
			<point x="478" y="394" type="curve" smooth="yes"/>
			<point x="478" y="190"/>
			<point x="356" y="14"/>
			<point x="196" y="14" type="curve" smooth="yes"/>
			<point x="124" y="14"/>
			<point x="74" y="42"/>
			<point x="36" y="98" type="curve"/>
			<point x="16" y="82" type="line"/>
			<point x="54" y="22"/>
			<point x="110" y="-12"/>
		</contour>
		<contour>
			<point x="167" y="340" type="line"/>
			<point x="493" y="340" type="line"/>
			<point x="499" y="365" type="line"/>
			<point x="172" y="365" type="line"/>
		</contour>
	</outline>
	<anchor name="aboveUC" x="310" y="682"/>
</glyph>
<glyph name="shcha" format="2">
	<unicode hex="0449"/>
	<advance width="780"/>
	<outline>
		<contour>
			<point x="638" y="-172" type="line"/>
			<point x="660" y="-172" type="line"/>
			<point x="702" y="12" type="line"/>
			<point x="704" y="26" type="line"/>
			<point x="662" y="26"/>
			<point x="650" y="32"/>
			<point x="650" y="56" type="curve" smooth="yes"/>
			<point x="650" y="62"/>
			<point x="651" y="66"/>
			<point x="652" y="72" type="curve"/>
			<point x="734" y="478" type="line"/>
			<point x="706" y="478" type="line"/>
			<point x="634" y="120" type="line"/>
			<point x="564" y="46"/>
			<point x="498" y="14"/>
			<point x="466" y="14" type="curve" smooth="yes"/>
			<point x="404" y="14"/>
			<point x="378" y="46"/>
			<point x="378" y="108" type="curve" smooth="yes"/>
			<point x="378" y="128"/>
			<point x="380" y="142"/>
			<point x="386" y="172" type="curve" smooth="yes"/>
			<point x="448" y="478" type="line"/>
			<point x="420" y="478" type="line"/>
			<point x="348" y="120" type="line"/>
			<point x="278" y="46"/>
			<point x="212" y="14"/>
			<point x="180" y="14" type="curve" smooth="yes"/>
			<point x="118" y="14"/>
			<point x="92" y="46"/>
			<point x="92" y="108" type="curve" smooth="yes"/>
			<point x="92" y="128"/>
			<point x="94" y="142"/>
			<point x="100" y="172" type="curve" smooth="yes"/>
			<point x="162" y="478" type="line"/>
			<point x="134" y="478" type="line"/>
			<point x="72" y="168" type="line" smooth="yes"/>
			<point x="66" y="140"/>
			<point x="64" y="128"/>
			<point x="64" y="104" type="curve" smooth="yes"/>
			<point x="64" y="36"/>
			<point x="96" y="-12"/>
			<point x="176" y="-12" type="curve" smooth="yes"/>
			<point x="222" y="-12"/>
			<point x="284" y="24"/>
			<point x="352" y="90" type="curve"/>
			<point x="354" y="36"/>
			<point x="382" y="-12"/>
			<point x="462" y="-12" type="curve" smooth="yes"/>
			<point x="508" y="-12"/>
			<point x="572" y="28"/>
			<point x="624" y="80" type="curve"/>
			<point x="628" y="80" type="line"/>
			<point x="626" y="66"/>
			<point x="624" y="60"/>
			<point x="624" y="52" type="curve" smooth="yes"/>
			<point x="624" y="18"/>
			<point x="646" y="6"/>
			<point x="672" y="2" type="curve"/>
		</contour>
	</outline>
</glyph>
<glyph name="soft" format="2">
	<unicode hex="044C"/>
	<advance width="436"/>
	<outline>
		<contour>
			<point x="191" y="-12" type="curve" smooth="yes"/>
			<point x="288" y="-12"/>
			<point x="388" y="70"/>
			<point x="388" y="180" type="curve" smooth="yes"/>
			<point x="388" y="245"/>
			<point x="346" y="298"/>
			<point x="262" y="298" type="curve" smooth="yes"/>
			<point x="220" y="298"/>
			<point x="172" y="290"/>
			<point x="114" y="248" type="curve"/>
			<point x="175" y="478" type="line"/>
			<point x="147" y="478" type="line"/>
			<point x="68" y="182" type="line" smooth="yes"/>
			<point x="64" y="166"/>
			<point x="60" y="142"/>
			<point x="60" y="116" type="curve" smooth="yes"/>
			<point x="60" y="30"/>
			<point x="114" y="-12"/>
		</contour>
		<contour>
			<point x="194" y="14" type="curve" smooth="yes"/>
			<point x="132" y="14"/>
			<point x="88" y="40"/>
			<point x="88" y="122" type="curve" smooth="yes"/>
			<point x="88" y="144"/>
			<point x="94" y="176"/>
			<point x="106" y="218" type="curve"/>
			<point x="172" y="264"/>
			<point x="217" y="272"/>
			<point x="259" y="272" type="curve" smooth="yes"/>
			<point x="325" y="272"/>
			<point x="360" y="232"/>
			<point x="360" y="174" type="curve" smooth="yes"/>
			<point x="360" y="82"/>
			<point x="268" y="14"/>
		</contour>
	</outline>
</glyph>
<glyph name="Zedescender" format="2">
	<unicode hex="0498"/>
	<advance width="524"/>
	<outline>
		<contour>
			<point x="148" y="-188" type="line"/>
			<point x="170" y="-188" type="line"/>
			<point x="214" y="0" type="line"/>
			<point x="184" y="0" type="line"/>
		</contour>
		<component base="Ze"/>
	</outline>
</glyph>
<glyph name="ghedescender" format="2">
	<unicode hex="04F7"/>
	<advance width="366"/>
	<outline>
		<contour>
			<point x="88" y="-172" type="line"/>
			<point x="118" y="-172" type="line"/>
			<point x="148" y="-50" type="line"/>
			<point x="126" y="-50" type="line"/>
		</contour>
		<component base="ghe"/>
	</outline>
</glyph>
<glyph name="B.sups" format="2">
	<unicode hex="1D2E"/>
	<advance width="364"/>
	<outline>
		<contour>
			<point x="92" y="410" type="line"/>
			<point x="220" y="410" type="line" smooth="yes"/>
			<point x="324" y="410"/>
			<point x="396" y="454"/>
			<point x="396" y="548" type="curve" smooth="yes"/>
			<point x="396" y="602"/>
			<point x="354" y="630"/>
			<point x="310" y="638" type="curve"/>
			<point x="310" y="642" type="line"/>
			<point x="352" y="648"/>
			<point x="410" y="684"/>
			<point x="410" y="750" type="curve" smooth="yes"/>
			<point x="410" y="806"/>
			<point x="362" y="842"/>
			<point x="284" y="842" type="curve" smooth="yes"/>
			<point x="178" y="842" type="line"/>
		</contour>
		<contour>
			<point x="168" y="652" type="line"/>
			<point x="200" y="818" type="line"/>
			<point x="272" y="818" type="line" smooth="yes"/>
			<point x="348" y="818"/>
			<point x="382" y="794"/>
			<point x="382" y="749" type="curve" smooth="yes"/>
			<point x="382" y="692"/>
			<point x="336" y="652"/>
			<point x="240" y="652" type="curve" smooth="yes"/>
		</contour>
		<contour>
			<point x="124" y="434" type="line"/>
			<point x="162" y="628" type="line"/>
			<point x="249" y="628" type="line" smooth="yes"/>
			<point x="324" y="628"/>
			<point x="368" y="594"/>
			<point x="368" y="546" type="curve" smooth="yes"/>
			<point x="368" y="464"/>
			<point x="304" y="434"/>
			<point x="208" y="434" type="curve" smooth="yes"/>
		</contour>
	</outline>
</glyph>
<glyph name="M.sups" format="2">
	<unicode hex="1D39"/>
	<advance width="444"/>
	<outline>
		<contour>
			<point x="94" y="410" type="line"/>
			<point x="120" y="410" type="line"/>
			<point x="178" y="696" type="line" smooth="yes"/>
			<point x="184" y="726"/>
			<point x="192" y="774"/>
			<point x="198" y="810" type="curve"/>
			<point x="202" y="810" type="line"/>
			<point x="216" y="716" type="line"/>
			<point x="254" y="456" type="line"/>
			<point x="280" y="456" type="line"/>
			<point x="422" y="716" type="line"/>
			<point x="472" y="810" type="line"/>
			<point x="476" y="810" type="line"/>
			<point x="468" y="774"/>
			<point x="454" y="726"/>
			<point x="448" y="696" type="curve" smooth="yes"/>
			<point x="392" y="410" type="line"/>
			<point x="418" y="410" type="line"/>
			<point x="506" y="842" type="line"/>
			<point x="464" y="842" type="line"/>
			<point x="328" y="590" type="line" smooth="yes"/>
			<point x="312" y="560"/>
			<point x="294" y="526"/>
			<point x="276" y="492" type="curve"/>
			<point x="272" y="492" type="line"/>
			<point x="268" y="526"/>
			<point x="262" y="560"/>
			<point x="258" y="590" type="curve" smooth="yes"/>
			<point x="222" y="842" type="line"/>
			<point x="180" y="842" type="line"/>
		</contour>
	</outline>
</glyph>
<glyph name="T.sups" format="2">
	<unicode hex="1D40"/>
	<advance width="326"/>
	<outline>
		<contour>
			<point x="182" y="410" type="line"/>
			<point x="210" y="410" type="line"/>
			<point x="292" y="818" type="line"/>
			<point x="424" y="818" type="line"/>
			<point x="430" y="842" type="line"/>
			<point x="134" y="842" type="line"/>
			<point x="128" y="818" type="line"/>
			<point x="264" y="818" type="line"/>
		</contour>
	</outline>
</glyph>
<glyph name="U.sups" format="2">
	<unicode hex="1D41"/>
	<advance width="401"/>
	<outline>
		<contour>
			<point x="245" y="402" type="curve" smooth="yes"/>
			<point x="314" y="402"/>
			<point x="380" y="444"/>
			<point x="404" y="562" type="curve" smooth="yes"/>
			<point x="460" y="842" type="line"/>
			<point x="434" y="842" type="line"/>
			<point x="380" y="570" type="line" smooth="yes"/>
			<point x="360" y="468"/>
			<point x="304" y="428"/>
			<point x="248" y="428" type="curve" smooth="yes"/>
			<point x="182" y="428"/>
			<point x="148" y="466"/>
			<point x="148" y="536" type="curve" smooth="yes"/>
			<point x="148" y="552"/>
			<point x="148" y="556"/>
			<point x="155" y="590" type="curve" smooth="yes"/>
			<point x="204" y="842" type="line"/>
			<point x="178" y="842" type="line"/>
			<point x="127" y="585" type="line" smooth="yes"/>
			<point x="122" y="560"/>
			<point x="120" y="548"/>
			<point x="120" y="532" type="curve" smooth="yes"/>
			<point x="120" y="450"/>
			<point x="167" y="402"/>
		</contour>
	</outline>
</glyph>
<glyph name="eng.sups" format="2">
	<unicode hex="1D51"/>
	<advance width="342"/>
	<outline>
		<contour>
			<point x="224" y="258" type="curve" smooth="yes"/>
			<point x="270" y="258"/>
			<point x="295" y="290"/>
			<point x="306" y="348" type="curve" smooth="yes"/>
			<point x="358" y="614" type="line" smooth="yes"/>
			<point x="362" y="632"/>
			<point x="364" y="640"/>
			<point x="364" y="656" type="curve" smooth="yes"/>
			<point x="364" y="704"/>
			<point x="346" y="734"/>
			<point x="290" y="734" type="curve" smooth="yes"/>
			<point x="250" y="734"/>
			<point x="214" y="710"/>
			<point x="176" y="678" type="curve"/>
			<point x="172" y="678" type="line"/>
			<point x="178" y="726" type="line"/>
			<point x="156" y="726" type="line"/>
			<point x="94" y="410" type="line"/>
			<point x="120" y="410" type="line"/>
			<point x="166" y="640" type="line"/>
			<point x="214" y="688"/>
			<point x="252" y="710"/>
			<point x="288" y="710" type="curve" smooth="yes"/>
			<point x="321" y="710"/>
			<point x="338" y="690"/>
			<point x="338" y="650" type="curve" smooth="yes"/>
			<point x="338" y="638"/>
			<point x="336" y="628"/>
			<point x="332" y="610" type="curve" smooth="yes"/>
			<point x="280" y="348" type="line" smooth="yes"/>
			<point x="273" y="310"/>
			<point x="256" y="282"/>
			<point x="226" y="282" type="curve" smooth="yes"/>
			<point x="210" y="282"/>
			<point x="200" y="288"/>
			<point x="192" y="292" type="curve"/>
			<point x="180" y="272" type="line"/>
			<point x="194" y="264"/>
			<point x="208" y="258"/>
		</contour>
	</outline>
	<anchor name="aboveLC" x="270" y="742"/>
</glyph>
<glyph name="p.sups" format="2">
	<unicode hex="1D56"/>
	<advance width="350"/>
	<outline>
		<contour>
			<point x="66" y="270" type="line"/>
			<point x="92" y="270" type="line"/>
			<point x="114" y="380" type="line"/>
			<point x="126" y="452" type="line"/>
			<point x="130" y="452" type="line"/>
			<point x="148" y="416"/>
			<point x="178" y="402"/>
			<point x="210" y="402" type="curve" smooth="yes"/>
			<point x="300" y="402"/>
			<point x="386" y="498"/>
			<point x="386" y="618" type="curve" smooth="yes"/>
			<point x="386" y="694"/>
			<point x="348" y="734"/>
			<point x="292" y="734" type="curve" smooth="yes"/>
			<point x="246" y="734"/>
			<point x="212" y="714"/>
			<point x="178" y="686" type="curve"/>
			<point x="174" y="686" type="line"/>
			<point x="178" y="726" type="line"/>
			<point x="156" y="726" type="line"/>
		</contour>
		<contour>
			<point x="290" y="710" type="curve" smooth="yes"/>
			<point x="330" y="710"/>
			<point x="360" y="680"/>
			<point x="360" y="614" type="curve" smooth="yes"/>
			<point x="360" y="520"/>
			<point x="286" y="426"/>
			<point x="212" y="426" type="curve" smooth="yes"/>
			<point x="184" y="426"/>
			<point x="158" y="440"/>
			<point x="134" y="484" type="curve"/>
			<point x="168" y="652" type="line"/>
			<point x="206" y="686"/>
			<point x="250" y="710"/>
		</contour>
	</outline>
</glyph>
<glyph name="nmiddletilde" format="2">
	<unicode hex="1D70"/>
	<advance width="604"/>
	<outline>
		<contour>
			<point x="504" y="156" type="curve" smooth="yes"/>
			<point x="570" y="156"/>
			<point x="600" y="218"/>
			<point x="612" y="274" type="curve"/>
			<point x="590" y="280" type="line"/>
			<point x="578" y="226"/>
			<point x="552" y="180"/>
			<point x="508" y="180" type="curve" smooth="yes"/>
			<point x="432" y="180"/>
			<point x="184" y="282"/>
			<point x="96" y="282" type="curve" smooth="yes"/>
			<point x="30" y="282"/>
			<point x="0" y="222"/>
			<point x="-12" y="164" type="curve"/>
			<point x="10" y="158" type="line"/>
			<point x="22" y="214"/>
			<point x="48" y="258"/>
			<point x="92" y="258" type="curve" smooth="yes"/>
			<point x="168" y="258"/>
			<point x="418" y="156"/>
		</contour>
		<component base="n" xOffset="50"/>
	</outline>
	<anchor name="aboveLC" x="370" y="502"/>
	<anchor name="belowLC" x="270" y="-22"/>
	<guideline x="274" y="218" angle="0" identifier="NM8wXEm57z"/>
</glyph>
<glyph name="nsmall.sups" format="2">
	<unicode hex="1DB0"/>
	<advance width="348"/>
	<outline>
		<contour>
			<point x="94" y="410" type="line"/>
			<point x="120" y="410" type="line"/>
			<point x="160" y="608" type="line" smooth="yes"/>
			<point x="166" y="638"/>
			<point x="168" y="658"/>
			<point x="172" y="692" type="curve"/>
			<point x="176" y="692" type="line"/>
			<point x="184" y="672"/>
			<point x="193" y="650"/>
			<point x="200" y="632" type="curve" smooth="yes"/>
			<point x="286" y="410" type="line"/>
			<point x="320" y="410" type="line"/>
			<point x="382" y="726" type="line"/>
			<point x="356" y="726" type="line"/>
			<point x="316" y="528" type="line" smooth="yes"/>
			<point x="310" y="498"/>
			<point x="308" y="478"/>
			<point x="304" y="444" type="curve"/>
			<point x="300" y="444" type="line"/>
			<point x="292" y="464"/>
			<point x="283" y="486"/>
			<point x="276" y="504" type="curve" smooth="yes"/>
			<point x="190" y="726" type="line"/>
			<point x="156" y="726" type="line"/>
		</contour>
	</outline>
</glyph>
<glyph name="iotaadscript" format="2">
	<unicode hex="1FBE"/>
	<advance width="226"/>
	<outline>
		<contour>
			<point x="86" y="-8" type="curve" smooth="yes"/>
			<point x="96" y="-8"/>
			<point x="104" y="-6"/>
			<point x="114" y="-2" type="curve"/>
			<point x="110" y="22" type="line"/>
			<point x="100" y="18"/>
			<point x="97" y="18"/>
			<point x="93" y="18" type="curve" smooth="yes"/>
			<point x="86" y="18"/>
			<point x="80" y="22"/>
			<point x="80" y="32" type="curve" smooth="yes"/>
			<point x="80" y="58"/>
			<point x="110" y="196"/>
			<point x="152" y="398" type="curve"/>
			<point x="124" y="398" type="line"/>
			<point x="54" y="54" type="line" smooth="yes"/>
			<point x="52" y="44"/>
			<point x="50" y="34"/>
			<point x="50" y="28" type="curve" smooth="yes"/>
			<point x="50" y="4"/>
			<point x="66" y="-8"/>
		</contour>
	</outline>
</glyph>
<glyph name="endash" format="2">
	<unicode hex="2013"/>
	<advance width="462"/>
	<outline>
		<contour>
			<point x="36" y="238" type="line"/>
			<point x="418" y="238" type="line"/>
			<point x="426" y="264" type="line"/>
			<point x="42" y="264" type="line"/>
		</contour>
	</outline>
</glyph>
<glyph name="emdash" format="2">
	<unicode hex="2014"/>
	<advance width="768"/>
	<outline>
		<contour>
			<point x="36" y="238" type="line"/>
			<point x="726" y="238" type="line"/>
			<point x="732" y="264" type="line"/>
			<point x="42" y="264" type="line"/>
		</contour>
	</outline>
</glyph>
<glyph name="guilsinglleft" format="2">
	<unicode hex="2039"/>
	<advance width="236"/>
	<outline>
		<contour>
			<point x="142" y="74" type="line"/>
			<point x="162" y="86" type="line"/>
			<point x="72" y="252" type="line"/>
			<point x="220" y="412" type="line"/>
			<point x="204" y="428" type="line"/>
			<point x="46" y="272" type="line"/>
			<point x="40" y="240" type="line"/>
		</contour>
	</outline>
</glyph>
<glyph name="interrobang" format="2">
	<unicode hex="203D"/>
	<advance width="380"/>
	<outline>
		<contour>
			<point x="164" y="174" type="line"/>
			<point x="198" y="356"/>
			<point x="386" y="390"/>
			<point x="386" y="554" type="curve" smooth="yes"/>
			<point x="386" y="634"/>
			<point x="338" y="682"/>
			<point x="258" y="682" type="curve" smooth="yes"/>
			<point x="198" y="682"/>
			<point x="142" y="650"/>
			<point x="110" y="614" type="curve"/>
			<point x="128" y="594" type="line"/>
			<point x="160" y="630"/>
			<point x="208" y="656"/>
			<point x="256" y="656" type="curve" smooth="yes"/>
			<point x="320" y="656"/>
			<point x="358" y="616"/>
			<point x="358" y="548" type="curve" smooth="yes"/>
			<point x="358" y="424"/>
			<point x="205" y="364"/>
			<point x="178" y="268" type="curve"/>
			<point x="186" y="268" type="line"/>
			<point x="234" y="488" type="line"/>
			<point x="246" y="550" type="line"/>
			<point x="220" y="550" type="line"/>
			<point x="145" y="176" type="line"/>
		</contour>
		<contour>
			<point x="126" y="-12" type="curve" smooth="yes"/>
			<point x="148" y="-12"/>
			<point x="166" y="10"/>
			<point x="166" y="32" type="curve" smooth="yes"/>
			<point x="166" y="50"/>
			<point x="158" y="64"/>
			<point x="140" y="64" type="curve" smooth="yes"/>
			<point x="118" y="64"/>
			<point x="98" y="40"/>
			<point x="98" y="18" type="curve" smooth="yes"/>
			<point x="98" y="2"/>
			<point x="108" y="-12"/>
		</contour>
	</outline>
</glyph>
<glyph name="i.sups" format="2">
	<unicode hex="2071"/>
	<advance width="150"/>
	<outline>
		<contour>
			<point x="94" y="410" type="line"/>
			<point x="120" y="410" type="line"/>
			<point x="182" y="726" type="line"/>
			<point x="156" y="726" type="line"/>
		</contour>
		<contour>
			<point x="186" y="802" type="curve" smooth="yes"/>
			<point x="202" y="802"/>
			<point x="214" y="816"/>
			<point x="214" y="832" type="curve" smooth="yes"/>
			<point x="214" y="846"/>
			<point x="204" y="856"/>
			<point x="192" y="856" type="curve" smooth="yes"/>
			<point x="176" y="856"/>
			<point x="164" y="842"/>
			<point x="164" y="826" type="curve" smooth="yes"/>
			<point x="164" y="812"/>
			<point x="174" y="802"/>
		</contour>
	</outline>
</glyph>
<glyph name="hryvnia" format="2">
	<unicode hex="20B4"/>
	<advance width="456"/>
	<outline>
		<contour>
			<point x="188" y="-12" type="curve" smooth="yes"/>
			<point x="255" y="-12"/>
			<point x="317" y="28"/>
			<point x="358" y="66" type="curve"/>
			<point x="346" y="86" type="line"/>
			<point x="308" y="52"/>
			<point x="255" y="14"/>
			<point x="193" y="14" type="curve" smooth="yes"/>
			<point x="120" y="14"/>
			<point x="81" y="52"/>
			<point x="81" y="106" type="curve" smooth="yes"/>
			<point x="81" y="335"/>
			<point x="416" y="326"/>
			<point x="416" y="543" type="curve" smooth="yes"/>
			<point x="416" y="606"/>
			<point x="370" y="652"/>
			<point x="302" y="652" type="curve" smooth="yes"/>
			<point x="235" y="652"/>
			<point x="192" y="620"/>
			<point x="152" y="582" type="curve"/>
			<point x="167" y="564" type="line"/>
			<point x="208" y="602"/>
			<point x="241" y="626"/>
			<point x="298" y="626" type="curve" smooth="yes"/>
			<point x="354" y="626"/>
			<point x="386" y="588"/>
			<point x="386" y="541" type="curve" smooth="yes"/>
			<point x="386" y="340"/>
			<point x="52" y="349"/>
			<point x="52" y="103" type="curve" smooth="yes"/>
			<point x="52" y="29"/>
			<point x="111" y="-12"/>
		</contour>
		<contour>
			<point x="18" y="252" type="line"/>
			<point x="426" y="252" type="line"/>
			<point x="432" y="276" type="line"/>
			<point x="85" y="276" type="line"/>
			<point x="24" y="272" type="line"/>
		</contour>
		<contour>
			<point x="40" y="360" type="line"/>
			<point x="448" y="360" type="line"/>
			<point x="454" y="384" type="line"/>
			<point x="108" y="384" type="line"/>
			<point x="46" y="380" type="line"/>
		</contour>
	</outline>
</glyph>
<glyph name="numero" format="2">
	<unicode hex="2116"/>
	<advance width="797"/>
	<outline>
		<contour>
			<point x="25" y="-12" type="curve" smooth="yes"/>
			<point x="53" y="-12"/>
			<point x="70" y="9"/>
			<point x="80" y="59" type="curve" smooth="yes"/>
			<point x="122" y="270" type="line" smooth="yes"/>
			<point x="146" y="390"/>
			<point x="162" y="466"/>
			<point x="184" y="596" type="curve"/>
			<point x="187" y="596" type="line"/>
			<point x="200" y="535"/>
			<point x="214" y="474"/>
			<point x="228" y="418" type="curve" smooth="yes"/>
			<point x="332" y="0" type="line"/>
			<point x="366" y="0" type="line"/>
			<point x="483" y="586" type="line" smooth="yes"/>
			<point x="489" y="616"/>
			<point x="502" y="626"/>
			<point x="520" y="626" type="curve"/>
			<point x="521" y="650" type="line"/>
			<point x="515" y="652"/>
			<point x="513" y="652"/>
			<point x="510" y="652" type="curve" smooth="yes"/>
			<point x="482" y="652"/>
			<point x="464" y="631"/>
			<point x="454" y="582" type="curve" smooth="yes"/>
			<point x="412" y="370" type="line" smooth="yes"/>
			<point x="388" y="250"/>
			<point x="372" y="174"/>
			<point x="350" y="44" type="curve"/>
			<point x="347" y="44" type="line"/>
			<point x="334" y="105"/>
			<point x="320" y="166"/>
			<point x="306" y="222" type="curve" smooth="yes"/>
			<point x="202" y="640" type="line"/>
			<point x="168" y="640" type="line"/>
			<point x="52" y="54" type="line" smooth="yes"/>
			<point x="46" y="24"/>
			<point x="32" y="14"/>
			<point x="15" y="14" type="curve"/>
			<point x="14" y="-10" type="line"/>
			<point x="19" y="-12"/>
			<point x="21" y="-12"/>
		</contour>
		<contour>
			<point x="658" y="282" type="curve" smooth="yes"/>
			<point x="738" y="282"/>
			<point x="822" y="356"/>
			<point x="822" y="470" type="curve" smooth="yes"/>
			<point x="822" y="547"/>
			<point x="778" y="592"/>
			<point x="706" y="592" type="curve" smooth="yes"/>
			<point x="626" y="592"/>
			<point x="542" y="518"/>
			<point x="542" y="404" type="curve" smooth="yes"/>
			<point x="542" y="327"/>
			<point x="586" y="282"/>
		</contour>
		<contour>
			<point x="660" y="306" type="curve" smooth="yes"/>
			<point x="600" y="306"/>
			<point x="568" y="343"/>
			<point x="568" y="408" type="curve" smooth="yes"/>
			<point x="568" y="492"/>
			<point x="634" y="568"/>
			<point x="704" y="568" type="curve" smooth="yes"/>
			<point x="764" y="568"/>
			<point x="796" y="531"/>
			<point x="796" y="466" type="curve" smooth="yes"/>
			<point x="796" y="382"/>
			<point x="730" y="306"/>
		</contour>
		<contour>
			<point x="511" y="168" type="line"/>
			<point x="745" y="168" type="line"/>
			<point x="750" y="195" type="line"/>
			<point x="516" y="195" type="line"/>
		</contour>
	</outline>
</glyph>
<glyph name="servicemark" format="2">
	<unicode hex="2120"/>
	<advance width="568"/>
	<outline>
		<contour>
			<point x="146" y="358" type="curve" smooth="yes"/>
			<point x="212" y="358"/>
			<point x="254" y="402"/>
			<point x="254" y="454" type="curve" smooth="yes"/>
			<point x="254" y="486"/>
			<point x="236" y="506"/>
			<point x="212" y="520" type="curve" smooth="yes"/>
			<point x="168" y="548" type="line" smooth="yes"/>
			<point x="154" y="556"/>
			<point x="136" y="574"/>
			<point x="136" y="600" type="curve" smooth="yes"/>
			<point x="136" y="626"/>
			<point x="164" y="656"/>
			<point x="206" y="656" type="curve" smooth="yes"/>
			<point x="228" y="656"/>
			<point x="244" y="646"/>
			<point x="266" y="622" type="curve"/>
			<point x="288" y="642" type="line"/>
			<point x="264" y="666"/>
			<point x="238" y="682"/>
			<point x="208" y="682" type="curve" smooth="yes"/>
			<point x="150" y="682"/>
			<point x="106" y="646"/>
			<point x="106" y="590" type="curve" smooth="yes"/>
			<point x="106" y="554"/>
			<point x="136" y="534"/>
			<point x="150" y="524" type="curve"/>
			<point x="194" y="496" type="line" smooth="yes"/>
			<point x="214" y="484"/>
			<point x="226" y="472"/>
			<point x="226" y="448" type="curve" smooth="yes"/>
			<point x="226" y="412"/>
			<point x="188" y="384"/>
			<point x="148" y="384" type="curve" smooth="yes"/>
			<point x="114" y="384"/>
			<point x="88" y="402"/>
			<point x="72" y="428" type="curve"/>
			<point x="50" y="410" type="line"/>
			<point x="66" y="382"/>
			<point x="100" y="358"/>
		</contour>
		<contour>
			<point x="306" y="370" type="line"/>
			<point x="334" y="370" type="line"/>
			<point x="368" y="540" type="line"/>
			<point x="384" y="642" type="line"/>
			<point x="388" y="642" type="line"/>
			<point x="430" y="418" type="line"/>
			<point x="456" y="418" type="line"/>
			<point x="586" y="642" type="line"/>
			<point x="590" y="642" type="line"/>
			<point x="566" y="540" type="line"/>
			<point x="532" y="370" type="line"/>
			<point x="560" y="370" type="line"/>
			<point x="622" y="676" type="line"/>
			<point x="580" y="676" type="line"/>
			<point x="500" y="544" type="line"/>
			<point x="452" y="456" type="line"/>
			<point x="448" y="456" type="line"/>
			<point x="434" y="544" type="line"/>
			<point x="410" y="676" type="line"/>
			<point x="368" y="676" type="line"/>
		</contour>
	</outline>
</glyph>
<glyph name="arrowboth" format="2">
	<unicode hex="2194"/>
	<advance width="594"/>
	<outline>
		<contour>
			<point x="609" y="254" type="line"/>
			<point x="431" y="458" type="line"/>
			<point x="412" y="438" type="line"/>
			<point x="567" y="265" type="line"/>
			<point x="27" y="265" type="line"/>
			<point x="182" y="438" type="line"/>
			<point x="163" y="458" type="line"/>
			<point x="-15" y="254" type="line"/>
			<point x="-15" y="250" type="line"/>
			<point x="163" y="46" type="line"/>
			<point x="182" y="66" type="line"/>
			<point x="27" y="239" type="line"/>
			<point x="567" y="239" type="line"/>
			<point x="412" y="66" type="line"/>
			<point x="431" y="46" type="line"/>
			<point x="609" y="250" type="line"/>
		</contour>
	</outline>
</glyph>
<glyph name="arrowdownleft" format="2">
	<unicode hex="2199"/>
	<advance width="594"/>
	<outline>
		<contour>
			<point x="104" y="55" type="line"/>
			<point x="480" y="58" type="line"/>
			<point x="480" y="85" type="line"/>
			<point x="142" y="78" type="line"/>
			<point x="500" y="436" type="line"/>
			<point x="483" y="454" type="line"/>
			<point x="124" y="97" type="line"/>
			<point x="130" y="434" type="line"/>
			<point x="104" y="434" type="line"/>
			<point x="101" y="58" type="line"/>
		</contour>
	</outline>
</glyph>
<glyph name="Delta" format="2">
	<unicode hex="2206"/>
	<unicode hex="0394"/>
	<advance width="480"/>
	<outline>
		<contour>
			<point x="-42" y="0" type="line"/>
			<point x="426" y="0" type="line"/>
			<point x="432" y="16" type="line"/>
			<point x="350" y="660" type="line"/>
			<point x="320" y="660" type="line"/>
			<point x="-36" y="16" type="line"/>
		</contour>
		<contour>
			<point x="2" y="26" type="line"/>
			<point x="204" y="396" type="line" smooth="yes"/>
			<point x="248" y="476"/>
			<point x="286" y="548"/>
			<point x="326" y="626" type="curve"/>
			<point x="330" y="626" type="line"/>
			<point x="338" y="548"/>
			<point x="346" y="474"/>
			<point x="356" y="396" type="curve" smooth="yes"/>
			<point x="402" y="26" type="line"/>
		</contour>
	</outline>
	<anchor name="aboveUC" x="330" y="682"/>
</glyph>
<glyph name="greaterequal" format="2">
	<unicode hex="2265"/>
	<advance width="456"/>
	<outline>
		<contour>
			<point x="48" y="156" type="line"/>
			<point x="438" y="316" type="line"/>
			<point x="438" y="344" type="line"/>
			<point x="48" y="504" type="line"/>
			<point x="48" y="476" type="line"/>
			<point x="278" y="382" type="line"/>
			<point x="400" y="332" type="line"/>
			<point x="400" y="328" type="line"/>
			<point x="278" y="278" type="line"/>
			<point x="48" y="184" type="line"/>
		</contour>
		<contour>
			<point x="48" y="0" type="line"/>
			<point x="436" y="0" type="line"/>
			<point x="436" y="26" type="line"/>
			<point x="48" y="26" type="line"/>
		</contour>
	</outline>
</glyph>
<glyph name="integraltp" format="2">
	<unicode hex="2320"/>
	<advance width="312"/>
	<outline>
		<contour>
			<point x="156" y="-80" type="line"/>
			<point x="184" y="-80" type="line"/>
			<point x="184" y="708" type="line" smooth="yes"/>
			<point x="184" y="819"/>
			<point x="194" y="893"/>
			<point x="252" y="893" type="curve" smooth="yes"/>
			<point x="266" y="893"/>
			<point x="278" y="891"/>
			<point x="286" y="889" type="curve"/>
			<point x="292" y="914" type="line"/>
			<point x="286" y="918"/>
			<point x="270" y="920"/>
			<point x="254" y="920" type="curve" smooth="yes"/>
			<point x="174" y="920"/>
			<point x="156" y="826"/>
			<point x="156" y="706" type="curve" smooth="yes"/>
		</contour>
	</outline>
</glyph>
<glyph name="option" format="2">
	<unicode hex="2325"/>
	<advance width="1000"/>
	<outline>
		<contour>
			<point x="676" y="-1" type="line"/>
			<point x="962" y="-1" type="line"/>
			<point x="962" y="26" type="line"/>
			<point x="694" y="26" type="line"/>
			<point x="324" y="650" type="line"/>
			<point x="38" y="650" type="line"/>
			<point x="38" y="624" type="line"/>
			<point x="306" y="624" type="line"/>
		</contour>
		<contour>
			<point x="620" y="624" type="line"/>
			<point x="962" y="624" type="line"/>
			<point x="962" y="650" type="line"/>
			<point x="620" y="650" type="line"/>
		</contour>
	</outline>
</glyph>
<glyph name="xballot" format="2">
	<unicode hex="2717"/>
	<advance width="494"/>
	<outline>
		<contour>
			<point x="18" y="-16" type="line"/>
			<point x="146" y="241"/>
			<point x="348" y="500"/>
			<point x="551" y="658" type="curve"/>
			<point x="534" y="680" type="line"/>
			<point x="332" y="520"/>
			<point x="115" y="249"/>
			<point x="-10" y="-8" type="curve"/>
		</contour>
		<contour>
			<point x="325" y="10" type="curve"/>
			<point x="352" y="16" type="line"/>
			<point x="346" y="268"/>
			<point x="293" y="496"/>
			<point x="218" y="670" type="curve"/>
			<point x="191" y="653" type="line"/>
			<point x="269" y="478"/>
			<point x="315" y="258"/>
		</contour>
	</outline>
</glyph>
<glyph name="bracketrightwhite" format="2">
	<unicode hex="27E7"/>
	<advance width="322"/>
	<outline>
		<contour>
			<point x="-64" y="-152" type="line"/>
			<point x="142" y="-152" type="line"/>
			<point x="314" y="708" type="line"/>
			<point x="108" y="708" type="line"/>
			<point x="104" y="686" type="line"/>
			<point x="228" y="686" type="line"/>
			<point x="62" y="-130" type="line"/>
			<point x="-60" y="-130" type="line"/>
		</contour>
		<contour>
			<point x="86" y="-130" type="line"/>
			<point x="250" y="686" type="line"/>
			<point x="288" y="686" type="line"/>
			<point x="122" y="-130" type="line"/>
		</contour>
	</outline>
</glyph>
<glyph name="brackhalftopleft" format="2">
	<unicode hex="2E22"/>
	<advance width="262"/>
	<outline>
		<contour>
			<point x="104" y="278" type="line"/>
			<point x="128" y="278" type="line"/>
			<point x="210" y="686" type="line"/>
			<point x="332" y="686" type="line"/>
			<point x="336" y="708" type="line"/>
			<point x="190" y="708" type="line"/>
		</contour>
	</outline>
</glyph>
<glyph name="brackhalftopright" format="2">
	<unicode hex="2E23"/>
	<advance width="262"/>
	<outline>
		<contour>
			<point x="146" y="278" type="line"/>
			<point x="168" y="278" type="line"/>
			<point x="254" y="708" type="line"/>
			<point x="108" y="708" type="line"/>
			<point x="104" y="686" type="line"/>
			<point x="226" y="686" type="line"/>
		</contour>
	</outline>
</glyph>
<glyph name="brackhalfbotright" format="2">
	<unicode hex="2E25"/>
	<advance width="262"/>
	<outline>
		<contour>
			<point x="-64" y="-152" type="line"/>
			<point x="82" y="-152" type="line"/>
			<point x="168" y="278" type="line"/>
			<point x="144" y="278" type="line"/>
			<point x="62" y="-130" type="line"/>
			<point x="-60" y="-130" type="line"/>
		</contour>
	</outline>
</glyph>
<glyph name="arrowdownmod" format="2">
	<unicode hex="A71C"/>
	<advance width="202"/>
	<outline>
		<contour>
			<point x="140" y="482" type="line"/>
			<point x="146" y="482" type="line"/>
			<point x="226" y="598" type="line"/>
			<point x="178" y="598" type="line"/>
			<point x="208" y="722" type="line"/>
			<point x="178" y="722" type="line"/>
			<point x="154" y="598" type="line"/>
			<point x="110" y="598" type="line"/>
		</contour>
	</outline>
</glyph>
<glyph name="OO" format="2">
	<unicode hex="A74E"/>
	<advance width="1026"/>
	<outline>
		<contour>
			<point x="248" y="-12" type="curve" smooth="yes"/>
			<point x="352" y="-12"/>
			<point x="446" y="62"/>
			<point x="520" y="230" type="curve"/>
			<point x="506" y="230" type="line"/>
			<point x="506" y="62"/>
			<point x="582" y="-12"/>
			<point x="690" y="-12" type="curve" smooth="yes"/>
			<point x="853" y="-12"/>
			<point x="998" y="176"/>
			<point x="998" y="430" type="curve" smooth="yes"/>
			<point x="998" y="582"/>
			<point x="926" y="672"/>
			<point x="812" y="672" type="curve" smooth="yes"/>
			<point x="708" y="672"/>
			<point x="614" y="598"/>
			<point x="540" y="430" type="curve"/>
			<point x="554" y="430" type="line"/>
			<point x="554" y="598"/>
			<point x="478" y="672"/>
			<point x="370" y="672" type="curve" smooth="yes"/>
			<point x="207" y="672"/>
			<point x="62" y="484"/>
			<point x="62" y="230" type="curve" smooth="yes"/>
			<point x="62" y="78"/>
			<point x="134" y="-12"/>
		</contour>
		<contour>
			<point x="250" y="14" type="curve" smooth="yes"/>
			<point x="146" y="14"/>
			<point x="92" y="100"/>
			<point x="92" y="232" type="curve" smooth="yes"/>
			<point x="92" y="464"/>
			<point x="229" y="646"/>
			<point x="368" y="646" type="curve" smooth="yes"/>
			<point x="472" y="646"/>
			<point x="526" y="564"/>
			<point x="526" y="438" type="curve" smooth="yes"/>
			<point x="526" y="200"/>
			<point x="388" y="14"/>
		</contour>
		<contour>
			<point x="692" y="14" type="curve" smooth="yes"/>
			<point x="588" y="14"/>
			<point x="534" y="96"/>
			<point x="534" y="222" type="curve" smooth="yes"/>
			<point x="534" y="460"/>
			<point x="672" y="646"/>
			<point x="810" y="646" type="curve" smooth="yes"/>
			<point x="914" y="646"/>
			<point x="968" y="560"/>
			<point x="968" y="428" type="curve" smooth="yes"/>
			<point x="968" y="196"/>
			<point x="831" y="14"/>
		</contour>
	</outline>
	<anchor name="aboveUC" x="480" y="682"/>
	<anchor name="belowLC" x="480" y="-22"/>
	<guideline x="535" y="516" angle="90" identifier="oUs4jqDEQ6"/>
</glyph>
<glyph name="oo" format="2">
	<unicode hex="A74F"/>
	<advance width="870"/>
	<outline>
		<contour>
			<point x="204" y="-12" type="curve" smooth="yes"/>
			<point x="298" y="-12"/>
			<point x="377" y="52"/>
			<point x="432" y="184" type="curve"/>
			<point x="418" y="184" type="line"/>
			<point x="422" y="52"/>
			<point x="480" y="-12"/>
			<point x="574" y="-12" type="curve" smooth="yes"/>
			<point x="704" y="-12"/>
			<point x="824" y="124"/>
			<point x="824" y="302" type="curve" smooth="yes"/>
			<point x="824" y="422"/>
			<point x="762" y="490"/>
			<point x="666" y="490" type="curve" smooth="yes"/>
			<point x="572" y="490"/>
			<point x="493" y="426"/>
			<point x="438" y="294" type="curve"/>
			<point x="452" y="294" type="line"/>
			<point x="448" y="426"/>
			<point x="390" y="490"/>
			<point x="296" y="490" type="curve" smooth="yes"/>
			<point x="166" y="490"/>
			<point x="46" y="354"/>
			<point x="46" y="176" type="curve" smooth="yes"/>
			<point x="46" y="56"/>
			<point x="108" y="-12"/>
		</contour>
		<contour>
			<point x="206" y="14" type="curve" smooth="yes"/>
			<point x="122" y="14"/>
			<point x="74" y="72"/>
			<point x="74" y="182" type="curve" smooth="yes"/>
			<point x="74" y="334"/>
			<point x="186" y="464"/>
			<point x="294" y="464" type="curve" smooth="yes"/>
			<point x="378" y="464"/>
			<point x="426" y="406"/>
			<point x="426" y="296" type="curve" smooth="yes"/>
			<point x="426" y="144"/>
			<point x="314" y="14"/>
		</contour>
		<contour>
			<point x="576" y="14" type="curve" smooth="yes"/>
			<point x="492" y="14"/>
			<point x="444" y="72"/>
			<point x="444" y="182" type="curve" smooth="yes"/>
			<point x="444" y="334"/>
			<point x="556" y="464"/>
			<point x="664" y="464" type="curve" smooth="yes"/>
			<point x="748" y="464"/>
			<point x="796" y="406"/>
			<point x="796" y="296" type="curve" smooth="yes"/>
			<point x="796" y="144"/>
			<point x="684" y="14"/>
		</contour>
	</outline>
	<anchor name="aboveLC" x="480" y="502"/>
	<anchor name="belowLC" x="400" y="-22"/>
</glyph>
<glyph name="That" format="2">
	<unicode hex="A764"/>
	<advance width="556"/>
	<outline>
		<contour>
			<point x="54" y="338" type="line"/>
			<point x="326" y="338" type="line"/>
			<point x="332" y="364" type="line"/>
			<point x="134" y="364" type="line"/>
			<point x="60" y="360" type="line"/>
		</contour>
		<contour>
			<point x="60" y="0" type="line"/>
			<point x="90" y="0" type="line"/>
			<point x="124" y="170" type="line"/>
			<point x="250" y="170" type="line" smooth="yes"/>
			<point x="420" y="170"/>
			<point x="526" y="242"/>
			<point x="526" y="386" type="curve" smooth="yes"/>
			<point x="526" y="490"/>
			<point x="454" y="536"/>
			<point x="334" y="536" type="curve" smooth="yes"/>
			<point x="198" y="536" type="line"/>
			<point x="222" y="660" type="line"/>
			<point x="192" y="660" type="line"/>
		</contour>
		<contour>
			<point x="130" y="196" type="line"/>
			<point x="192" y="510" type="line"/>
			<point x="316" y="510" type="line" smooth="yes"/>
			<point x="434" y="510"/>
			<point x="496" y="474"/>
			<point x="496" y="384" type="curve" smooth="yes"/>
			<point x="496" y="260"/>
			<point x="410" y="196"/>
			<point x="244" y="196" type="curve" smooth="yes"/>
		</contour>
	</outline>
</glyph>
<glyph name="dinsular" format="2">
	<unicode hex="A77A"/>
	<advance width="494"/>
	<outline>
		<contour>
			<point x="212" y="-12" type="curve" smooth="yes"/>
			<point x="353" y="-12"/>
			<point x="448" y="153"/>
			<point x="448" y="340" type="curve" smooth="yes"/>
			<point x="448" y="516"/>
			<point x="320" y="655"/>
			<point x="192" y="724" type="curve"/>
			<point x="178" y="700" type="line"/>
			<point x="306" y="635"/>
			<point x="420" y="502"/>
			<point x="420" y="334" type="curve" smooth="yes"/>
			<point x="420" y="172"/>
			<point x="337" y="14"/>
			<point x="214" y="14" type="curve" smooth="yes"/>
			<point x="132" y="14"/>
			<point x="76" y="78"/>
			<point x="76" y="182" type="curve" smooth="yes"/>
			<point x="76" y="304"/>
			<point x="157" y="446"/>
			<point x="400" y="456" type="curve"/>
			<point x="390" y="480" type="line"/>
			<point x="141" y="468"/>
			<point x="48" y="317"/>
			<point x="48" y="176" type="curve" smooth="yes"/>
			<point x="48" y="56"/>
			<point x="122" y="-12"/>
		</contour>
	</outline>
	<anchor name="aboveUC" x="360" y="732"/>
	<anchor name="belowLC" x="200" y="-22"/>
</glyph>
<glyph name="Rinsular" format="2">
	<unicode hex="A782"/>
	<advance width="512"/>
	<outline>
		<contour>
			<point x="12" y="-140" type="line"/>
			<point x="42" y="-140" type="line"/>
			<point x="176" y="532" type="line"/>
			<point x="248" y="614"/>
			<point x="318" y="646"/>
			<point x="376" y="646" type="curve" smooth="yes"/>
			<point x="436" y="646"/>
			<point x="472" y="612"/>
			<point x="472" y="548" type="curve" smooth="yes"/>
			<point x="472" y="432"/>
			<point x="378" y="306"/>
			<point x="94" y="162" type="curve"/>
			<point x="110" y="44"/>
			<point x="202" y="-12"/>
			<point x="362" y="-12" type="curve" smooth="yes"/>
			<point x="394" y="-12"/>
			<point x="424" y="-4"/>
			<point x="442" y="2" type="curve"/>
			<point x="436" y="26" type="line"/>
			<point x="418" y="22"/>
			<point x="394" y="16"/>
			<point x="364" y="16" type="curve" smooth="yes"/>
			<point x="225" y="16"/>
			<point x="144" y="64"/>
			<point x="124" y="148" type="curve"/>
			<point x="388" y="282"/>
			<point x="502" y="420"/>
			<point x="502" y="554" type="curve" smooth="yes"/>
			<point x="502" y="630"/>
			<point x="456" y="672"/>
			<point x="378" y="672" type="curve" smooth="yes"/>
			<point x="310" y="672"/>
			<point x="246" y="640"/>
			<point x="184" y="570" type="curve"/>
			<point x="200" y="660" type="line"/>
			<point x="172" y="660" type="line"/>
		</contour>
	</outline>
	<anchor name="aboveUC" x="360" y="682"/>
	<anchor name="belowLC" x="40" y="-142"/>
</glyph>
<glyph name="I.a" format="2">
	<unicode hex="A7AE"/>
	<advance width="290"/>
	<outline>
		<contour>
			<point x="-8" y="0" type="line"/>
			<point x="198" y="0" type="line"/>
			<point x="204" y="26" type="line"/>
			<point x="114" y="26" type="line"/>
			<point x="236" y="634" type="line"/>
			<point x="326" y="634" type="line"/>
			<point x="332" y="660" type="line"/>
			<point x="124" y="660" type="line"/>
			<point x="118" y="634" type="line"/>
			<point x="206" y="634" type="line"/>
			<point x="84" y="26" type="line"/>
			<point x="-2" y="26" type="line"/>
		</contour>
	</outline>
	<anchor name="aboveUC" x="230" y="682"/>
	<anchor name="belowLC" x="90" y="-22"/>
	<anchor name="ogonekUC" x="90" y="0"/>
</glyph>
<glyph name="chilatin" format="2">
	<unicode hex="AB53"/>
	<advance width="426"/>
	<outline>
		<contour>
			<point x="-28" y="-222" type="line"/>
			<point x="3" y="-222" type="line"/>
			<point x="156" y="12" type="line"/>
			<point x="177" y="46"/>
			<point x="215" y="107"/>
			<point x="235" y="138" type="curve"/>
			<point x="239" y="138" type="line"/>
			<point x="247" y="107"/>
			<point x="262" y="51"/>
			<point x="271" y="12" type="curve"/>
			<point x="331" y="-222" type="line"/>
			<point x="364" y="-222" type="line"/>
			<point x="260" y="160" type="line"/>
			<point x="488" y="478" type="line"/>
			<point x="457" y="478" type="line"/>
			<point x="328" y="292" type="line"/>
			<point x="312" y="269"/>
			<point x="271" y="211"/>
			<point x="252" y="184" type="curve"/>
			<point x="248" y="184" type="line"/>
			<point x="240" y="211"/>
			<point x="223" y="265"/>
			<point x="215" y="292" type="curve"/>
			<point x="159" y="478" type="line"/>
			<point x="127" y="478" type="line"/>
			<point x="227" y="162" type="line"/>
		</contour>
	</outline>
	<anchor name="aboveLC" x="310" y="502"/>
	<anchor name="belowLC" x="190" y="-222"/>
</glyph>
<glyph name="marcaregistrada" format="2">
	<unicode hex="1F16C"/>
	<advance width="560"/>
	<outline>
		<contour>
			<point x="50" y="370" type="line"/>
			<point x="78" y="370" type="line"/>
			<point x="112" y="540" type="line"/>
			<point x="128" y="642" type="line"/>
			<point x="132" y="642" type="line"/>
			<point x="174" y="418" type="line"/>
			<point x="200" y="418" type="line"/>
			<point x="330" y="642" type="line"/>
			<point x="334" y="642" type="line"/>
			<point x="310" y="540" type="line"/>
			<point x="276" y="370" type="line"/>
			<point x="304" y="370" type="line"/>
			<point x="366" y="676" type="line"/>
			<point x="324" y="676" type="line"/>
			<point x="244" y="544" type="line"/>
			<point x="196" y="456" type="line"/>
			<point x="192" y="456" type="line"/>
			<point x="178" y="544" type="line"/>
			<point x="154" y="676" type="line"/>
			<point x="112" y="676" type="line"/>
		</contour>
		<contour>
			<point x="390" y="370" type="line"/>
			<point x="418" y="370" type="line"/>
			<point x="446" y="506" type="line"/>
			<point x="509" y="506" type="line" smooth="yes"/>
			<point x="580" y="506"/>
			<point x="628" y="550"/>
			<point x="628" y="602" type="curve" smooth="yes"/>
			<point x="628" y="656"/>
			<point x="594" y="676"/>
			<point x="536" y="676" type="curve" smooth="yes"/>
			<point x="452" y="676" type="line"/>
		</contour>
		<contour>
			<point x="450" y="532" type="line"/>
			<point x="474" y="650" type="line"/>
			<point x="534" y="650" type="line" smooth="yes"/>
			<point x="576" y="650"/>
			<point x="598" y="636"/>
			<point x="598" y="600" type="curve" smooth="yes"/>
			<point x="598" y="564"/>
			<point x="566" y="532"/>
			<point x="510" y="532" type="curve" smooth="yes"/>
		</contour>
		<contour>
			<point x="552" y="370" type="line"/>
			<point x="584" y="370" type="line"/>
			<point x="526" y="522" type="line"/>
			<point x="498" y="518" type="line"/>
		</contour>
	</outline>
</glyph>
<glyph name="attribution" format="2">
	<unicode hex="1F16F"/>
	<advance width="660"/>
	<outline>
		<contour>
			<point x="298" y="-12" type="curve" smooth="yes"/>
			<point x="514" y="-12"/>
			<point x="652" y="190"/>
			<point x="652" y="376" type="curve" smooth="yes"/>
			<point x="652" y="540"/>
			<point x="548" y="652"/>
			<point x="394" y="652" type="curve" smooth="yes"/>
			<point x="178" y="652"/>
			<point x="40" y="450"/>
			<point x="40" y="264" type="curve" smooth="yes"/>
			<point x="40" y="100"/>
			<point x="144" y="-12"/>
		</contour>
		<contour>
			<point x="300" y="12" type="curve" smooth="yes"/>
			<point x="158" y="12"/>
			<point x="66" y="112"/>
			<point x="66" y="268" type="curve" smooth="yes"/>
			<point x="66" y="434"/>
			<point x="194" y="628"/>
			<point x="392" y="628" type="curve" smooth="yes"/>
			<point x="534" y="628"/>
			<point x="626" y="528"/>
			<point x="626" y="372" type="curve" smooth="yes"/>
			<point x="626" y="206"/>
			<point x="498" y="12"/>
		</contour>
		<contour>
			<point x="348" y="88" type="line"/>
			<point x="408" y="88" type="line"/>
			<point x="412" y="139"/>
			<point x="416" y="184"/>
			<point x="416" y="251" type="curve" smooth="yes"/>
			<point x="416" y="287"/>
			<point x="405" y="293"/>
			<point x="405" y="304" type="curve" smooth="yes"/>
			<point x="405" y="331"/>
			<point x="422" y="346"/>
			<point x="425" y="376" type="curve"/>
			<point x="385" y="380" type="line"/>
			<point x="394" y="310"/>
			<point x="403" y="280"/>
			<point x="416" y="230" type="curve"/>
			<point x="442" y="230"/>
			<point x="462" y="248"/>
			<point x="462" y="276" type="curve" smooth="yes"/>
			<point x="462" y="311"/>
			<point x="458" y="348"/>
			<point x="450" y="380" type="curve" smooth="yes"/>
			<point x="442" y="409"/>
			<point x="429" y="420"/>
			<point x="406" y="426" type="curve" smooth="yes"/>
			<point x="396" y="428"/>
			<point x="374" y="430"/>
			<point x="348" y="430" type="curve" smooth="yes"/>
			<point x="322" y="430"/>
			<point x="300" y="428"/>
			<point x="290" y="426" type="curve" smooth="yes"/>
			<point x="267" y="420"/>
			<point x="253" y="408"/>
			<point x="246" y="380" type="curve" smooth="yes"/>
			<point x="238" y="348"/>
			<point x="234" y="310"/>
			<point x="234" y="276" type="curve" smooth="yes"/>
			<point x="234" y="248"/>
			<point x="254" y="230"/>
			<point x="280" y="230" type="curve"/>
			<point x="293" y="280"/>
			<point x="302" y="310"/>
			<point x="311" y="380" type="curve"/>
			<point x="271" y="376" type="line"/>
			<point x="274" y="346"/>
			<point x="291" y="331"/>
			<point x="291" y="304" type="curve" smooth="yes"/>
			<point x="291" y="293"/>
			<point x="280" y="287"/>
			<point x="280" y="251" type="curve" smooth="yes"/>
			<point x="280" y="184"/>
			<point x="284" y="139"/>
			<point x="288" y="88" type="curve"/>
		</contour>
		<contour>
			<point x="348" y="454" type="curve" smooth="yes"/>
			<point x="378" y="454"/>
			<point x="406" y="480"/>
			<point x="406" y="512" type="curve" smooth="yes"/>
			<point x="406" y="546"/>
			<point x="380" y="570"/>
			<point x="348" y="570" type="curve" smooth="yes"/>
			<point x="316" y="570"/>
			<point x="290" y="546"/>
			<point x="290" y="512" type="curve" smooth="yes"/>
			<point x="290" y="480"/>
			<point x="316" y="454"/>
		</contour>
	</outline>
</glyph>
<glyph name="Eng.a" format="2">
	<advance width="600"/>
	<outline>
		<contour>
			<point x="342" y="-150" type="curve" smooth="yes"/>
			<point x="402" y="-150"/>
			<point x="438" y="-100"/>
			<point x="454" y="-18" type="curve" smooth="yes"/>
			<point x="590" y="660" type="line"/>
			<point x="560" y="660" type="line"/>
			<point x="474" y="230" type="line" smooth="yes"/>
			<point x="462" y="170"/>
			<point x="450" y="110"/>
			<point x="440" y="46" type="curve"/>
			<point x="436" y="46" type="line"/>
			<point x="420" y="92"/>
			<point x="402" y="140"/>
			<point x="386" y="182" type="curve" smooth="yes"/>
			<point x="206" y="660" type="line"/>
			<point x="172" y="660" type="line"/>
			<point x="40" y="0" type="line"/>
			<point x="70" y="0" type="line"/>
			<point x="156" y="436" type="line" smooth="yes"/>
			<point x="168" y="496"/>
			<point x="180" y="556"/>
			<point x="190" y="620" type="curve"/>
			<point x="194" y="620" type="line"/>
			<point x="210" y="574"/>
			<point x="228" y="526"/>
			<point x="244" y="484" type="curve" smooth="yes"/>
			<point x="426" y="0" type="line"/>
			<point x="430" y="0" type="line"/>
			<point x="414" y="-88"/>
			<point x="386" y="-124"/>
			<point x="344" y="-124" type="curve" smooth="yes"/>
			<point x="324" y="-124"/>
			<point x="308" y="-122"/>
			<point x="294" y="-114" type="curve"/>
			<point x="284" y="-136" type="line"/>
			<point x="300" y="-146"/>
			<point x="318" y="-150"/>
		</contour>
	</outline>
	<anchor name="aboveUC" x="400" y="682"/>
	<anchor name="belowLC" x="230" y="-122"/>
</glyph>
<glyph name="Kadescender.a" format="2">
	<advance width="542"/>
	<outline>
		<contour>
			<point x="414" y="-188" type="line"/>
			<point x="438" y="-188" type="line"/>
			<point x="484" y="10" type="line"/>
			<point x="486" y="26" type="line"/>
			<point x="445" y="26" type="line"/>
			<point x="440" y="0" type="line"/>
			<point x="452" y="0" type="line"/>
		</contour>
		<component base="Ka.a"/>
	</outline>
</glyph>
<glyph name="THEIR" format="2">
	<advance width="983"/>
	<outline>
		<contour>
			<point x="641" y="336" type="line"/>
			<point x="746" y="292"/>
			<point x="778" y="282"/>
			<point x="855" y="282" type="curve" smooth="yes"/>
			<point x="943" y="282"/>
			<point x="1014" y="346"/>
			<point x="1030" y="428" type="curve" smooth="yes"/>
			<point x="1037" y="462"/>
			<point x="1034" y="486"/>
			<point x="1024" y="512" type="curve"/>
			<point x="996" y="498" type="line"/>
			<point x="1003" y="474"/>
			<point x="1003" y="454"/>
			<point x="997" y="426" type="curve" smooth="yes"/>
			<point x="984" y="360"/>
			<point x="924" y="312"/>
			<point x="863" y="312" type="curve" smooth="yes"/>
			<point x="794" y="312"/>
			<point x="756" y="322"/>
			<point x="686" y="348" type="curve"/>
		</contour>
		<component base="THEY"/>
	</outline>
</glyph>
<glyph name="THEY" format="2">
	<advance width="837"/>
	<outline>
		<contour>
			<point x="311" y="-12" type="curve" smooth="yes"/>
			<point x="384" y="-12"/>
			<point x="459" y="60"/>
			<point x="507" y="298" type="curve" smooth="yes"/>
			<point x="527" y="400"/>
			<point x="526" y="530"/>
			<point x="540" y="664" type="curve"/>
			<point x="531" y="666"/>
			<point x="526" y="666"/>
			<point x="519" y="666" type="curve" smooth="yes"/>
			<point x="356" y="666"/>
			<point x="152" y="490"/>
			<point x="100" y="232" type="curve" smooth="yes"/>
			<point x="78" y="122"/>
			<point x="92" y="56"/>
			<point x="110" y="-8" type="curve"/>
			<point x="139" y="4" type="line"/>
			<point x="121" y="68"/>
			<point x="113" y="132"/>
			<point x="133" y="232" type="curve" smooth="yes"/>
			<point x="182" y="476"/>
			<point x="377" y="638"/>
			<point x="508" y="638" type="curve"/>
			<point x="498" y="520"/>
			<point x="494" y="388"/>
			<point x="475" y="294" type="curve" smooth="yes"/>
			<point x="433" y="84"/>
			<point x="370" y="18"/>
			<point x="318" y="18" type="curve" smooth="yes"/>
			<point x="278" y="18"/>
			<point x="260" y="42"/>
			<point x="269" y="86" type="curve" smooth="yes"/>
			<point x="292" y="202"/>
			<point x="390" y="268"/>
			<point x="501" y="296" type="curve" smooth="yes"/>
			<point x="638" y="331" type="line" smooth="yes"/>
			<point x="832" y="380"/>
			<point x="907" y="466"/>
			<point x="930" y="578" type="curve" smooth="yes"/>
			<point x="940" y="630"/>
			<point x="919" y="672"/>
			<point x="866" y="672" type="curve" smooth="yes"/>
			<point x="785" y="672"/>
			<point x="677" y="544"/>
			<point x="636" y="338" type="curve" smooth="yes"/>
			<point x="590" y="108"/>
			<point x="613" y="-12"/>
			<point x="714" y="-12" type="curve" smooth="yes"/>
			<point x="763" y="-12"/>
			<point x="796" y="11"/>
			<point x="827" y="36" type="curve"/>
			<point x="816" y="56" type="line"/>
			<point x="780" y="32"/>
			<point x="760" y="18"/>
			<point x="722" y="18" type="curve" smooth="yes"/>
			<point x="642" y="18"/>
			<point x="627" y="130"/>
			<point x="669" y="342" type="curve" smooth="yes"/>
			<point x="707" y="530"/>
			<point x="805" y="642"/>
			<point x="858" y="642" type="curve" smooth="yes"/>
			<point x="890" y="642"/>
			<point x="905" y="616"/>
			<point x="897" y="578" type="curve" smooth="yes"/>
			<point x="878" y="482"/>
			<point x="806" y="402"/>
			<point x="646" y="361" type="curve" smooth="yes"/>
			<point x="509" y="326" type="line" smooth="yes"/>
			<point x="375" y="292"/>
			<point x="263" y="220"/>
			<point x="236" y="84" type="curve" smooth="yes"/>
			<point x="224" y="26"/>
			<point x="253" y="-12"/>
		</contour>
	</outline>
</glyph>
<glyph name="Their" format="2">
	<advance width="954"/>
	<outline>
		<contour>
			<point x="596" y="252" type="line"/>
			<point x="700" y="208"/>
			<point x="733" y="198"/>
			<point x="809" y="198" type="curve" smooth="yes"/>
			<point x="898" y="198"/>
			<point x="968" y="262"/>
			<point x="985" y="344" type="curve" smooth="yes"/>
			<point x="991" y="378"/>
			<point x="988" y="402"/>
			<point x="978" y="428" type="curve"/>
			<point x="951" y="414" type="line"/>
			<point x="957" y="390"/>
			<point x="957" y="370"/>
			<point x="952" y="342" type="curve" smooth="yes"/>
			<point x="938" y="276"/>
			<point x="879" y="228"/>
			<point x="817" y="228" type="curve" smooth="yes"/>
			<point x="748" y="228"/>
			<point x="710" y="238"/>
			<point x="640" y="264" type="curve"/>
		</contour>
		<component base="They"/>
	</outline>
</glyph>
<glyph name="a.a" format="2">
	<advance width="474"/>
	<outline>
		<contour>
			<point x="158" y="-12" type="curve" smooth="yes"/>
			<point x="216" y="-12"/>
			<point x="280" y="20"/>
			<point x="328" y="62" type="curve"/>
			<point x="332" y="62" type="line"/>
			<point x="324" y="0" type="line"/>
			<point x="348" y="0" type="line"/>
			<point x="406" y="296" type="line" smooth="yes"/>
			<point x="410" y="316"/>
			<point x="414" y="340"/>
			<point x="414" y="358" type="curve" smooth="yes"/>
			<point x="414" y="456"/>
			<point x="364" y="490"/>
			<point x="282" y="490" type="curve" smooth="yes"/>
			<point x="228" y="490"/>
			<point x="168" y="466"/>
			<point x="124" y="440" type="curve"/>
			<point x="138" y="418" type="line"/>
			<point x="180" y="444"/>
			<point x="238" y="464"/>
			<point x="280" y="464" type="curve" smooth="yes"/>
			<point x="354" y="464"/>
			<point x="386" y="436"/>
			<point x="386" y="356" type="curve" smooth="yes"/>
			<point x="386" y="336"/>
			<point x="384" y="320"/>
			<point x="378" y="294" type="curve"/>
			<point x="170" y="288"/>
			<point x="40" y="234"/>
			<point x="40" y="102" type="curve" smooth="yes"/>
			<point x="40" y="26"/>
			<point x="96" y="-12"/>
		</contour>
		<contour>
			<point x="164" y="14" type="curve" smooth="yes"/>
			<point x="110" y="14"/>
			<point x="68" y="42"/>
			<point x="68" y="108" type="curve" smooth="yes"/>
			<point x="68" y="214"/>
			<point x="188" y="264"/>
			<point x="374" y="268" type="curve"/>
			<point x="340" y="100" type="line"/>
			<point x="274" y="42"/>
			<point x="216" y="14"/>
		</contour>
	</outline>
	<anchor name="aboveLC" x="290" y="502"/>
	<anchor name="belowLC" x="200" y="-22"/>
	<anchor name="ogonekLC" x="300" y="0"/>
</glyph>
<glyph name="aspercmb" format="2">
	<outline>
		<contour>
			<point x="128" y="560" type="curve"/>
			<point x="140" y="582" type="line"/>
			<point x="108" y="594"/>
			<point x="88" y="614"/>
			<point x="88" y="646" type="curve" smooth="yes"/>
			<point x="88" y="684"/>
			<point x="118" y="710"/>
			<point x="186" y="712" type="curve"/>
			<point x="188" y="736" type="line"/>
			<point x="102" y="734"/>
			<point x="60" y="698"/>
			<point x="60" y="640" type="curve" smooth="yes"/>
			<point x="60" y="598"/>
			<point x="94" y="572"/>
		</contour>
	</outline>
	<anchor name="_aboveLC" x="100" y="502"/>
</glyph>
<glyph name="aspergrave.cap" format="2">
	<advance width="170"/>
	<outline>
		<contour>
			<point x="104" y="446" type="curve"/>
			<point x="116" y="468" type="line"/>
			<point x="100" y="478"/>
			<point x="74" y="500"/>
			<point x="74" y="548" type="curve" smooth="yes"/>
			<point x="74" y="596"/>
			<point x="115" y="636"/>
			<point x="168" y="636" type="curve"/>
			<point x="172" y="662" type="line"/>
			<point x="101" y="662"/>
			<point x="44" y="614"/>
			<point x="44" y="542" type="curve" smooth="yes"/>
			<point x="44" y="490"/>
			<point x="82" y="455"/>
		</contour>
		<contour>
			<point x="210" y="450" type="line"/>
			<point x="230" y="450" type="line"/>
			<point x="222" y="660" type="line"/>
			<point x="192" y="660" type="line"/>
			<point x="190" y="656" type="line"/>
		</contour>
	</outline>
</glyph>
<glyph name="aspergravecmb" format="2">
	<outline>
		<contour>
			<point x="52" y="558" type="curve"/>
			<point x="60" y="576" type="line"/>
			<point x="26" y="586"/>
			<point x="10" y="608"/>
			<point x="10" y="636" type="curve" smooth="yes"/>
			<point x="10" y="678"/>
			<point x="52" y="712"/>
			<point x="110" y="714" type="curve"/>
			<point x="114" y="736" type="line"/>
			<point x="40" y="732"/>
			<point x="-18" y="696"/>
			<point x="-18" y="630" type="curve" smooth="yes"/>
			<point x="-18" y="594"/>
			<point x="4" y="568"/>
		</contour>
		<contour>
			<point x="170" y="564" type="line"/>
			<point x="190" y="564" type="line"/>
			<point x="172" y="730" type="line"/>
			<point x="142" y="730" type="line"/>
			<point x="140" y="726" type="line"/>
		</contour>
	</outline>
	<anchor name="_aboveLC" x="100" y="502"/>
</glyph>
<glyph name="aspertilde.cap" format="2">
	<advance width="160"/>
	<outline>
		<contour>
			<point x="136" y="428" type="curve"/>
			<point x="144" y="450" type="line"/>
			<point x="118" y="456"/>
			<point x="100" y="468"/>
			<point x="100" y="492" type="curve" smooth="yes"/>
			<point x="100" y="528"/>
			<point x="128" y="558"/>
			<point x="192" y="558" type="curve"/>
			<point x="194" y="580" type="line"/>
			<point x="122" y="580"/>
			<point x="70" y="548"/>
			<point x="70" y="490" type="curve" smooth="yes"/>
			<point x="70" y="456"/>
			<point x="104" y="432"/>
		</contour>
		<contour>
			<point x="198" y="602" type="curve" smooth="yes"/>
			<point x="234" y="602"/>
			<point x="254" y="636"/>
			<point x="260" y="668" type="curve"/>
			<point x="236" y="672" type="line"/>
			<point x="230" y="644"/>
			<point x="218" y="628"/>
			<point x="200" y="628" type="curve" smooth="yes"/>
			<point x="166" y="628"/>
			<point x="154" y="674"/>
			<point x="108" y="674" type="curve" smooth="yes"/>
			<point x="72" y="674"/>
			<point x="50" y="640"/>
			<point x="44" y="608" type="curve"/>
			<point x="68" y="604" type="line"/>
			<point x="74" y="632"/>
			<point x="86" y="648"/>
			<point x="104" y="648" type="curve" smooth="yes"/>
			<point x="138" y="648"/>
			<point x="152" y="602"/>
		</contour>
	</outline>
</glyph>
<glyph name="at.cap" format="2">
	<advance width="776"/>
	<outline>
		<contour>
			<point x="368" y="-12" type="curve" smooth="yes"/>
			<point x="422" y="-12"/>
			<point x="478" y="0"/>
			<point x="530" y="30" type="curve"/>
			<point x="518" y="52" type="line"/>
			<point x="474" y="26"/>
			<point x="428" y="14"/>
			<point x="370" y="14" type="curve" smooth="yes"/>
			<point x="230" y="14"/>
			<point x="136" y="106"/>
			<point x="136" y="254" type="curve" smooth="yes"/>
			<point x="136" y="480"/>
			<point x="306" y="650"/>
			<point x="490" y="650" type="curve" smooth="yes"/>
			<point x="636" y="650"/>
			<point x="719" y="556"/>
			<point x="719" y="414" type="curve" smooth="yes"/>
			<point x="719" y="266"/>
			<point x="654" y="182"/>
			<point x="590" y="182" type="curve" smooth="yes"/>
			<point x="530" y="182"/>
			<point x="516" y="232"/>
			<point x="532" y="300" type="curve" smooth="yes"/>
			<point x="576" y="492" type="line"/>
			<point x="552" y="492" type="line"/>
			<point x="540" y="448" type="line"/>
			<point x="538" y="448" type="line"/>
			<point x="520" y="480"/>
			<point x="494" y="498"/>
			<point x="462" y="498" type="curve" smooth="yes"/>
			<point x="362" y="498"/>
			<point x="286" y="392"/>
			<point x="286" y="290" type="curve" smooth="yes"/>
			<point x="286" y="204"/>
			<point x="336" y="164"/>
			<point x="384" y="164" type="curve" smooth="yes"/>
			<point x="430" y="164"/>
			<point x="466" y="192"/>
			<point x="500" y="230" type="curve"/>
			<point x="502" y="230" type="line"/>
			<point x="510" y="186"/>
			<point x="538" y="156"/>
			<point x="586" y="156" type="curve" smooth="yes"/>
			<point x="668" y="156"/>
			<point x="747" y="250"/>
			<point x="747" y="420" type="curve" smooth="yes"/>
			<point x="747" y="572"/>
			<point x="654" y="676"/>
			<point x="492" y="676" type="curve" smooth="yes"/>
			<point x="292" y="676"/>
			<point x="108" y="496"/>
			<point x="108" y="248" type="curve" smooth="yes"/>
			<point x="108" y="90"/>
			<point x="214" y="-12"/>
		</contour>
		<contour>
			<point x="386" y="190" type="curve" smooth="yes"/>
			<point x="348" y="190"/>
			<point x="314" y="222"/>
			<point x="314" y="296" type="curve" smooth="yes"/>
			<point x="314" y="376"/>
			<point x="372" y="472"/>
			<point x="460" y="472" type="curve" smooth="yes"/>
			<point x="484" y="472"/>
			<point x="508" y="462"/>
			<point x="532" y="418" type="curve"/>
			<point x="496" y="260" type="line"/>
			<point x="460" y="212"/>
			<point x="422" y="190"/>
		</contour>
	</outline>
</glyph>
<glyph name="aturned.b" format="2">
	<advance width="474"/>
	<outline>
		<contour>
			<point x="214" y="-12" type="curve" smooth="yes"/>
			<point x="272" y="-12"/>
			<point x="332" y="14"/>
			<point x="380" y="42" type="curve"/>
			<point x="366" y="64" type="line"/>
			<point x="318" y="34"/>
			<point x="264" y="14"/>
			<point x="216" y="14" type="curve" smooth="yes"/>
			<point x="136" y="14"/>
			<point x="102" y="42"/>
			<point x="102" y="122" type="curve" smooth="yes"/>
			<point x="102" y="142"/>
			<point x="104" y="158"/>
			<point x="110" y="184" type="curve"/>
			<point x="310" y="196"/>
			<point x="448" y="256"/>
			<point x="448" y="386" type="curve" smooth="yes"/>
			<point x="448" y="455"/>
			<point x="397" y="490"/>
			<point x="340" y="490" type="curve" smooth="yes"/>
			<point x="279" y="490"/>
			<point x="208" y="454"/>
			<point x="158" y="416" type="curve"/>
			<point x="156" y="416" type="line"/>
			<point x="160" y="436"/>
			<point x="160" y="444"/>
			<point x="160" y="450" type="curve" smooth="yes"/>
			<point x="160" y="474"/>
			<point x="145" y="486"/>
			<point x="126" y="486" type="curve" smooth="yes"/>
			<point x="114" y="486"/>
			<point x="108" y="484"/>
			<point x="98" y="480" type="curve"/>
			<point x="102" y="456" type="line"/>
			<point x="112" y="460"/>
			<point x="114" y="460"/>
			<point x="118" y="460" type="curve" smooth="yes"/>
			<point x="128" y="460"/>
			<point x="132" y="454"/>
			<point x="132" y="446" type="curve" smooth="yes"/>
			<point x="132" y="443"/>
			<point x="132" y="438"/>
			<point x="130" y="430" type="curve" smooth="yes"/>
			<point x="82" y="182" type="line" smooth="yes"/>
			<point x="78" y="164"/>
			<point x="74" y="138"/>
			<point x="74" y="120" type="curve" smooth="yes"/>
			<point x="74" y="22"/>
			<point x="127" y="-12"/>
		</contour>
		<contour>
			<point x="114" y="210" type="curve"/>
			<point x="148" y="378" type="line"/>
			<point x="216" y="434"/>
			<point x="279" y="464"/>
			<point x="334" y="464" type="curve" smooth="yes"/>
			<point x="382" y="464"/>
			<point x="420" y="439"/>
			<point x="420" y="380" type="curve" smooth="yes"/>
			<point x="420" y="276"/>
			<point x="292" y="220"/>
		</contour>
	</outline>
	<anchor name="aboveLC" x="310" y="502"/>
	<anchor name="belowLC" x="220" y="-22"/>
	<anchor name="ogonekLC" x="280" y="0"/>
</glyph>
<glyph name="be.c" format="2">
	<advance width="490"/>
	<outline>
		<contour>
			<point x="208" y="-12" type="curve" smooth="yes"/>
			<point x="352" y="-12"/>
			<point x="438" y="128"/>
			<point x="438" y="254" type="curve" smooth="yes"/>
			<point x="438" y="337"/>
			<point x="392" y="392"/>
			<point x="332" y="452" type="curve" smooth="yes"/>
			<point x="276" y="508"/>
			<point x="212" y="559"/>
			<point x="212" y="598" type="curve" smooth="yes"/>
			<point x="212" y="650"/>
			<point x="272" y="662"/>
			<point x="406" y="670" type="curve" smooth="yes"/>
			<point x="472" y="674"/>
			<point x="518" y="682"/>
			<point x="536" y="693" type="curve"/>
			<point x="538" y="726" type="line"/>
			<point x="511" y="712"/>
			<point x="480" y="704"/>
			<point x="406" y="700" type="curve" smooth="yes"/>
			<point x="256" y="692"/>
			<point x="184" y="674"/>
			<point x="184" y="594" type="curve" smooth="yes"/>
			<point x="184" y="542"/>
			<point x="254" y="490"/>
			<point x="312" y="432" type="curve" smooth="yes"/>
			<point x="366" y="378"/>
			<point x="410" y="326"/>
			<point x="410" y="248" type="curve" smooth="yes"/>
			<point x="410" y="149"/>
			<point x="334" y="14"/>
			<point x="210" y="14" type="curve" smooth="yes"/>
			<point x="132" y="14"/>
			<point x="72" y="74"/>
			<point x="72" y="172" type="curve" smooth="yes"/>
			<point x="72" y="286"/>
			<point x="160" y="398"/>
			<point x="328" y="418" type="curve"/>
			<point x="313" y="440" type="line"/>
			<point x="144" y="418"/>
			<point x="44" y="303"/>
			<point x="44" y="166" type="curve" smooth="yes"/>
			<point x="44" y="52"/>
			<point x="120" y="-12"/>
		</contour>
	</outline>
</glyph>
<glyph name="brevegrave.cap" format="2">
	<outline>
		<contour>
			<point x="138" y="712" type="curve" smooth="yes"/>
			<point x="227" y="712"/>
			<point x="278" y="779"/>
			<point x="294" y="834" type="curve"/>
			<point x="268" y="838" type="line"/>
			<point x="250" y="786"/>
			<point x="210" y="738"/>
			<point x="144" y="738" type="curve" smooth="yes"/>
			<point x="77" y="738"/>
			<point x="53" y="786"/>
			<point x="56" y="838" type="curve"/>
			<point x="30" y="834" type="line"/>
			<point x="27" y="779"/>
			<point x="53" y="712"/>
		</contour>
		<contour>
			<point x="168" y="820" type="line"/>
			<point x="190" y="820" type="line"/>
			<point x="114" y="920" type="line"/>
			<point x="82" y="920" type="line"/>
			<point x="80" y="916" type="line"/>
		</contour>
	</outline>
	<anchor name="_aboveUC" x="130" y="682"/>
</glyph>
<glyph name="breveinvertedcmb.cap" format="2">
	<outline>
		<contour>
			<point x="38" y="712" type="line"/>
			<point x="58" y="764"/>
			<point x="98" y="812"/>
			<point x="162" y="812" type="curve" smooth="yes"/>
			<point x="230" y="812"/>
			<point x="250" y="768"/>
			<point x="250" y="712" type="curve"/>
			<point x="276" y="716" type="line"/>
			<point x="276" y="772"/>
			<point x="256" y="838"/>
			<point x="168" y="838" type="curve" smooth="yes"/>
			<point x="80" y="838"/>
			<point x="28" y="770"/>
			<point x="12" y="716" type="curve"/>
		</contour>
	</outline>
	<anchor name="_aboveUC" x="130" y="682"/>
</glyph>
<glyph name="brevetilde" format="2">
	<outline>
		<contour>
			<point x="110" y="570" type="curve" smooth="yes"/>
			<point x="204" y="570"/>
			<point x="251" y="628"/>
			<point x="266" y="672" type="curve"/>
			<point x="240" y="676" type="line"/>
			<point x="228" y="638"/>
			<point x="184" y="596"/>
			<point x="115" y="596" type="curve" smooth="yes"/>
			<point x="46" y="596"/>
			<point x="18" y="638"/>
			<point x="20" y="676" type="curve"/>
			<point x="-6" y="672" type="line"/>
			<point x="-9" y="628"/>
			<point x="16" y="570"/>
		</contour>
		<contour>
			<point x="208" y="700" type="curve" smooth="yes"/>
			<point x="256" y="700"/>
			<point x="280" y="740"/>
			<point x="288" y="776" type="curve"/>
			<point x="264" y="778" type="line"/>
			<point x="256" y="744"/>
			<point x="239" y="726"/>
			<point x="210" y="726" type="curve" smooth="yes"/>
			<point x="160" y="726"/>
			<point x="140" y="780"/>
			<point x="78" y="780" type="curve" smooth="yes"/>
			<point x="30" y="780"/>
			<point x="6" y="740"/>
			<point x="-2" y="704" type="curve"/>
			<point x="22" y="702" type="line"/>
			<point x="30" y="736"/>
			<point x="47" y="754"/>
			<point x="76" y="754" type="curve" smooth="yes"/>
			<point x="126" y="754"/>
			<point x="146" y="700"/>
		</contour>
	</outline>
	<anchor name="_aboveLC" x="100" y="502"/>
</glyph>
<glyph name="candrabinducmb.cap" format="2">
	<outline>
		<contour>
			<point x="138" y="712" type="curve" smooth="yes"/>
			<point x="227" y="712"/>
			<point x="278" y="779"/>
			<point x="294" y="834" type="curve"/>
			<point x="268" y="838" type="line"/>
			<point x="250" y="786"/>
			<point x="210" y="738"/>
			<point x="144" y="738" type="curve" smooth="yes"/>
			<point x="77" y="738"/>
			<point x="53" y="786"/>
			<point x="56" y="838" type="curve"/>
			<point x="30" y="834" type="line"/>
			<point x="27" y="779"/>
			<point x="53" y="712"/>
		</contour>
		<contour>
			<point x="154" y="826" type="curve" smooth="yes"/>
			<point x="172" y="826"/>
			<point x="190" y="842"/>
			<point x="190" y="864" type="curve" smooth="yes"/>
			<point x="190" y="882"/>
			<point x="178" y="894"/>
			<point x="162" y="894" type="curve" smooth="yes"/>
			<point x="144" y="894"/>
			<point x="126" y="878"/>
			<point x="126" y="854" type="curve" smooth="yes"/>
			<point x="126" y="838"/>
			<point x="138" y="826"/>
		</contour>
	</outline>
	<anchor name="_aboveUC" x="138" y="682"/>
</glyph>
<glyph name="carondotaccent.cap" format="2">
	<outline>
		<contour>
			<point x="158" y="826" type="curve" smooth="yes"/>
			<point x="176" y="826"/>
			<point x="194" y="842"/>
			<point x="194" y="864" type="curve" smooth="yes"/>
			<point x="194" y="882"/>
			<point x="182" y="894"/>
			<point x="166" y="894" type="curve" smooth="yes"/>
			<point x="148" y="894"/>
			<point x="130" y="878"/>
			<point x="130" y="854" type="curve" smooth="yes"/>
			<point x="130" y="838"/>
			<point x="142" y="826"/>
		</contour>
		<contour>
			<point x="124" y="712" type="line"/>
			<point x="150" y="712" type="line"/>
			<point x="310" y="812" type="line"/>
			<point x="276" y="812" type="line"/>
			<point x="140" y="742" type="line"/>
			<point x="136" y="742" type="line"/>
			<point x="50" y="812" type="line"/>
			<point x="20" y="812" type="line"/>
		</contour>
	</outline>
	<anchor name="_aboveUC" x="130" y="682"/>
</glyph>
<glyph name="circumflexbreve.cap" format="2">
	<outline>
		<contour>
			<point x="10" y="710" type="line"/>
			<point x="44" y="710" type="line"/>
			<point x="156" y="780" type="line"/>
			<point x="160" y="780" type="line"/>
			<point x="240" y="710" type="line"/>
			<point x="270" y="710" type="line"/>
			<point x="170" y="810" type="line"/>
			<point x="150" y="810" type="line"/>
		</contour>
		<contour>
			<point x="162" y="834" type="curve" smooth="yes"/>
			<point x="242" y="834"/>
			<point x="286" y="880"/>
			<point x="298" y="916" type="curve"/>
			<point x="272" y="920" type="line"/>
			<point x="260" y="888"/>
			<point x="226" y="860"/>
			<point x="166" y="860" type="curve" smooth="yes"/>
			<point x="104" y="860"/>
			<point x="80" y="888"/>
			<point x="80" y="920" type="curve"/>
			<point x="54" y="916" type="line"/>
			<point x="54" y="879"/>
			<point x="80" y="834"/>
		</contour>
	</outline>
	<anchor name="_aboveUC" x="130" y="682"/>
</glyph>
<glyph name="circumflexmacron.cap" format="2">
	<outline>
		<contour>
			<point x="10" y="710" type="line"/>
			<point x="44" y="710" type="line"/>
			<point x="156" y="780" type="line"/>
			<point x="160" y="780" type="line"/>
			<point x="240" y="710" type="line"/>
			<point x="270" y="710" type="line"/>
			<point x="170" y="810" type="line"/>
			<point x="150" y="810" type="line"/>
		</contour>
		<contour>
			<point x="50" y="852" type="line"/>
			<point x="280" y="852" type="line"/>
			<point x="286" y="878" type="line"/>
			<point x="56" y="878" type="line"/>
		</contour>
	</outline>
	<anchor name="_aboveUC" x="130" y="682"/>
	<guideline x="125" y="654" angle="79" identifier="KyJ08VFr0a"/>
</glyph>
<glyph name="circumflextilde.cap" format="2">
	<outline>
		<contour>
			<point x="10" y="710" type="line"/>
			<point x="44" y="710" type="line"/>
			<point x="156" y="780" type="line"/>
			<point x="160" y="780" type="line"/>
			<point x="240" y="710" type="line"/>
			<point x="270" y="710" type="line"/>
			<point x="170" y="810" type="line"/>
			<point x="150" y="810" type="line"/>
		</contour>
		<contour>
			<point x="236" y="840" type="curve" smooth="yes"/>
			<point x="290" y="840"/>
			<point x="310" y="882"/>
			<point x="318" y="914" type="curve"/>
			<point x="294" y="918" type="line"/>
			<point x="284" y="887"/>
			<point x="270" y="866"/>
			<point x="242" y="866" type="curve" smooth="yes"/>
			<point x="190" y="866"/>
			<point x="168" y="920"/>
			<point x="110" y="920" type="curve" smooth="yes"/>
			<point x="56" y="920"/>
			<point x="36" y="878"/>
			<point x="30" y="846" type="curve"/>
			<point x="52" y="842" type="line"/>
			<point x="62" y="873"/>
			<point x="76" y="894"/>
			<point x="104" y="894" type="curve" smooth="yes"/>
			<point x="156" y="894"/>
			<point x="178" y="840"/>
		</contour>
	</outline>
	<anchor name="_aboveUC" x="130" y="682"/>
</glyph>
<glyph name="commabelowcmb.a" format="2">
	<outline>
		<contour>
			<point x="154" y="582" type="curve"/>
			<point x="164" y="606" type="line"/>
			<point x="119" y="610"/>
			<point x="96" y="622"/>
			<point x="96" y="652" type="curve" smooth="yes"/>
			<point x="96" y="685"/>
			<point x="138" y="710"/>
			<point x="220" y="712" type="curve"/>
			<point x="218" y="736" type="line"/>
			<point x="128" y="734"/>
			<point x="66" y="701"/>
			<point x="66" y="644" type="curve" smooth="yes"/>
			<point x="66" y="609"/>
			<point x="82" y="592"/>
		</contour>
	</outline>
	<anchor name="_aboveLC" x="100" y="502"/>
</glyph>
<glyph name="dotaccentcmb.cap" format="2">
	<outline>
		<contour>
			<point x="144" y="726" type="curve" smooth="yes"/>
			<point x="162" y="726"/>
			<point x="180" y="742"/>
			<point x="180" y="764" type="curve" smooth="yes"/>
			<point x="180" y="782"/>
			<point x="168" y="794"/>
			<point x="152" y="794" type="curve" smooth="yes"/>
			<point x="134" y="794"/>
			<point x="116" y="778"/>
			<point x="116" y="754" type="curve" smooth="yes"/>
			<point x="116" y="738"/>
			<point x="128" y="726"/>
		</contour>
	</outline>
	<anchor name="_aboveUC" x="130" y="682"/>
</glyph>
<glyph name="eacute.sups" format="2">
	<advance width="316"/>
	<outline>
		<contour>
			<point x="220" y="790" type="line"/>
			<point x="246" y="790" type="line"/>
			<point x="370" y="886" type="line"/>
			<point x="368" y="890" type="line"/>
			<point x="330" y="890" type="line"/>
		</contour>
		<component base="e.sups"/>
	</outline>
</glyph>
<glyph name="egrave.sups" format="2">
	<advance width="316"/>
	<outline>
		<contour>
			<point x="298" y="790" type="line"/>
			<point x="320" y="790" type="line"/>
			<point x="244" y="890" type="line"/>
			<point x="212" y="890" type="line"/>
			<point x="210" y="886" type="line"/>
		</contour>
		<component base="e.sups"/>
	</outline>
</glyph>
<glyph name="el.a" format="2">
	<advance width="426"/>
	<outline>
		<contour>
			<point x="-1" y="-8" type="curve" smooth="yes"/>
			<point x="43" y="-8"/>
			<point x="67" y="15"/>
			<point x="96" y="74" type="curve" smooth="yes"/>
			<point x="214" y="312" type="line" smooth="yes"/>
			<point x="238" y="360"/>
			<point x="260" y="406"/>
			<point x="284" y="452" type="curve"/>
			<point x="288" y="452" type="line"/>
			<point x="296" y="406"/>
			<point x="302" y="358"/>
			<point x="308" y="312" type="curve" smooth="yes"/>
			<point x="346" y="0" type="line"/>
			<point x="374" y="0" type="line"/>
			<point x="310" y="478" type="line"/>
			<point x="270" y="478" type="line"/>
			<point x="68" y="78" type="line" smooth="yes"/>
			<point x="47" y="36"/>
			<point x="31" y="22"/>
			<point x="2" y="22" type="curve" smooth="yes"/>
			<point x="-4" y="22"/>
			<point x="-8" y="24"/>
			<point x="-14" y="26" type="curve"/>
			<point x="-26" y="-2" type="line"/>
			<point x="-22" y="-4"/>
			<point x="-10" y="-8"/>
		</contour>
	</outline>
</glyph>
<glyph name="endash.sups" format="2">
	<advance width="347"/>
	<outline>
		<contour>
			<point x="108" y="564" type="line"/>
			<point x="376" y="564" type="line"/>
			<point x="376" y="586" type="line"/>
			<point x="108" y="586" type="line"/>
		</contour>
	</outline>
</glyph>
<glyph name="eopenogonek" format="2">
	<advance width="396"/>
	<outline>
		<contour>
			<point x="140" y="-212" type="curve" smooth="yes"/>
			<point x="166" y="-212"/>
			<point x="188" y="-202"/>
			<point x="212" y="-180" type="curve"/>
			<point x="200" y="-164" type="line"/>
			<point x="178" y="-180"/>
			<point x="164" y="-186"/>
			<point x="144" y="-186" type="curve" smooth="yes"/>
			<point x="118" y="-186"/>
			<point x="100" y="-168"/>
			<point x="100" y="-138" type="curve" smooth="yes"/>
			<point x="100" y="-96"/>
			<point x="140" y="-32"/>
			<point x="236" y="-6" type="curve" smooth="yes"/>
			<point x="294" y="10"/>
			<point x="324" y="30"/>
			<point x="350" y="48" type="curve"/>
			<point x="338" y="66" type="line"/>
			<point x="278" y="26"/>
			<point x="232" y="14"/>
			<point x="176" y="14" type="curve" smooth="yes"/>
			<point x="100" y="14"/>
			<point x="50" y="50"/>
			<point x="50" y="110" type="curve" smooth="yes"/>
			<point x="50" y="190"/>
			<point x="124" y="242"/>
			<point x="238" y="242" type="curve" smooth="yes"/>
			<point x="296" y="242" type="line"/>
			<point x="302" y="268" type="line"/>
			<point x="258" y="268" type="line" smooth="yes"/>
			<point x="164" y="268"/>
			<point x="128" y="306"/>
			<point x="128" y="358" type="curve" smooth="yes"/>
			<point x="128" y="424"/>
			<point x="182" y="464"/>
			<point x="266" y="464" type="curve" smooth="yes"/>
			<point x="314" y="464"/>
			<point x="350" y="448"/>
			<point x="386" y="420" type="curve"/>
			<point x="402" y="438" type="line"/>
			<point x="368" y="468"/>
			<point x="324" y="490"/>
			<point x="268" y="490" type="curve" smooth="yes"/>
			<point x="168" y="490"/>
			<point x="100" y="436"/>
			<point x="100" y="352" type="curve" smooth="yes"/>
			<point x="100" y="304"/>
			<point x="136" y="274"/>
			<point x="168" y="262" type="curve"/>
			<point x="168" y="258" type="line"/>
			<point x="100" y="244"/>
			<point x="22" y="200"/>
			<point x="22" y="104" type="curve" smooth="yes"/>
			<point x="22" y="34"/>
			<point x="78" y="-12"/>
			<point x="174" y="-12" type="curve"/>
			<point x="194" y="2" type="line"/>
			<point x="120" y="-26"/>
			<point x="70" y="-86"/>
			<point x="70" y="-144" type="curve" smooth="yes"/>
			<point x="70" y="-190"/>
			<point x="100" y="-212"/>
		</contour>
	</outline>
	<anchor name="aboveLC" x="280" y="502"/>
</glyph>
<glyph name="five.cap" format="2">
	<advance width="456"/>
	<outline>
		<contour>
			<point x="174" y="-12" type="curve" smooth="yes"/>
			<point x="296" y="-12"/>
			<point x="402" y="85"/>
			<point x="402" y="234" type="curve" smooth="yes"/>
			<point x="402" y="352"/>
			<point x="333" y="410"/>
			<point x="238" y="410" type="curve" smooth="yes"/>
			<point x="196" y="410"/>
			<point x="162" y="398"/>
			<point x="136" y="384" type="curve"/>
			<point x="204" y="634" type="line"/>
			<point x="444" y="634" type="line"/>
			<point x="450" y="660" type="line"/>
			<point x="184" y="660" type="line"/>
			<point x="102" y="362" type="line"/>
			<point x="120" y="348" type="line"/>
			<point x="160" y="370"/>
			<point x="190" y="384"/>
			<point x="238" y="384" type="curve" smooth="yes"/>
			<point x="319" y="384"/>
			<point x="374" y="334"/>
			<point x="374" y="228" type="curve" smooth="yes"/>
			<point x="374" y="101"/>
			<point x="282" y="14"/>
			<point x="180" y="14" type="curve" smooth="yes"/>
			<point x="88" y="14"/>
			<point x="50" y="66"/>
			<point x="24" y="108" type="curve"/>
			<point x="2" y="92" type="line"/>
			<point x="28" y="46"/>
			<point x="80" y="-12"/>
		</contour>
	</outline>
</glyph>
<glyph name="hoicmb.cap" format="2">
	<outline>
		<contour>
			<point x="100" y="708" type="line"/>
			<point x="167" y="726"/>
			<point x="202" y="760"/>
			<point x="202" y="804" type="curve" smooth="yes"/>
			<point x="202" y="848"/>
			<point x="155" y="864"/>
			<point x="102" y="866" type="curve"/>
			<point x="96" y="842" type="line"/>
			<point x="144" y="840"/>
			<point x="174" y="827"/>
			<point x="174" y="798" type="curve" smooth="yes"/>
			<point x="174" y="767"/>
			<point x="148" y="744"/>
			<point x="96" y="730" type="curve"/>
		</contour>
	</outline>
	<anchor name="_aboveUC" x="130" y="682"/>
</glyph>
<glyph name="hyphen.sups" format="2">
	<advance width="224"/>
	<outline>
		<contour>
			<point x="108" y="562" type="line"/>
			<point x="255" y="562" type="line"/>
			<point x="255" y="586" type="line"/>
			<point x="108" y="586" type="line"/>
		</contour>
	</outline>
</glyph>
<glyph name="lenisacutecmb" format="2">
	<outline>
		<contour>
			<point x="32" y="558" type="line"/>
			<point x="98" y="576"/>
			<point x="132" y="616"/>
			<point x="132" y="664" type="curve" smooth="yes"/>
			<point x="132" y="716"/>
			<point x="88" y="734"/>
			<point x="38" y="736" type="curve"/>
			<point x="34" y="712" type="line"/>
			<point x="78" y="710"/>
			<point x="104" y="694"/>
			<point x="104" y="658" type="curve" smooth="yes"/>
			<point x="104" y="624"/>
			<point x="80" y="594"/>
			<point x="26" y="580" type="curve"/>
		</contour>
		<contour>
			<point x="140" y="564" type="line"/>
			<point x="164" y="564" type="line"/>
			<point x="260" y="726" type="line"/>
			<point x="258" y="730" type="line"/>
			<point x="228" y="730" type="line"/>
		</contour>
	</outline>
	<anchor name="_aboveLC" x="100" y="502"/>
</glyph>
<glyph name="lje.a" format="2">
	<advance width="684"/>
	<outline>
		<contour>
			<point x="-1" y="-8" type="curve" smooth="yes"/>
			<point x="43" y="-8"/>
			<point x="67" y="15"/>
			<point x="96" y="74" type="curve" smooth="yes"/>
			<point x="214" y="312" type="line" smooth="yes"/>
			<point x="237" y="358"/>
			<point x="260" y="406"/>
			<point x="284" y="452" type="curve"/>
			<point x="288" y="452" type="line"/>
			<point x="296" y="406"/>
			<point x="303" y="358"/>
			<point x="308" y="312" type="curve" smooth="yes"/>
			<point x="330" y="128" type="line" smooth="yes"/>
			<point x="342" y="24"/>
			<point x="397" y="-12"/>
			<point x="464" y="-12" type="curve" smooth="yes"/>
			<point x="559" y="-12"/>
			<point x="636" y="70"/>
			<point x="636" y="180" type="curve" smooth="yes"/>
			<point x="636" y="245"/>
			<point x="599" y="298"/>
			<point x="524" y="298" type="curve" smooth="yes"/>
			<point x="475" y="298"/>
			<point x="421" y="277"/>
			<point x="348" y="198" type="curve"/>
			<point x="310" y="478" type="line"/>
			<point x="270" y="478" type="line"/>
			<point x="68" y="78" type="line" smooth="yes"/>
			<point x="47" y="36"/>
			<point x="31" y="22"/>
			<point x="2" y="22" type="curve" smooth="yes"/>
			<point x="-4" y="22"/>
			<point x="-8" y="24"/>
			<point x="-14" y="26" type="curve"/>
			<point x="-26" y="-2" type="line"/>
			<point x="-22" y="-4"/>
			<point x="-10" y="-8"/>
		</contour>
		<contour>
			<point x="466" y="14" type="curve" smooth="yes"/>
			<point x="400" y="14"/>
			<point x="364" y="42"/>
			<point x="350" y="170" type="curve"/>
			<point x="430" y="254"/>
			<point x="482" y="272"/>
			<point x="522" y="272" type="curve" smooth="yes"/>
			<point x="579" y="272"/>
			<point x="608" y="232"/>
			<point x="608" y="174" type="curve" smooth="yes"/>
			<point x="608" y="80"/>
			<point x="538" y="14"/>
		</contour>
	</outline>
</glyph>
<glyph name="lslash.a" format="2">
	<advance width="246"/>
	<outline>
		<contour>
			<point x="34" y="354" type="line"/>
			<point x="144" y="404" type="line"/>
			<point x="158" y="408" type="line"/>
			<point x="282" y="466" type="line"/>
			<point x="272" y="488" type="line"/>
			<point x="164" y="438" type="line"/>
			<point x="150" y="434" type="line"/>
			<point x="24" y="376" type="line"/>
		</contour>
		<component base="l.a" xOffset="10"/>
	</outline>
	<anchor name="aboveUC" x="210" y="732"/>
	<anchor name="belowLC" x="70" y="-22"/>
</glyph>
<glyph name="macronacute" format="2">
	<outline>
		<contour>
			<point x="4" y="610" type="line"/>
			<point x="236" y="610" type="line"/>
			<point x="240" y="636" type="line"/>
			<point x="8" y="636" type="line"/>
		</contour>
		<contour>
			<point x="90" y="700" type="line"/>
			<point x="120" y="700" type="line"/>
			<point x="240" y="796" type="line"/>
			<point x="238" y="800" type="line"/>
			<point x="202" y="800" type="line"/>
		</contour>
	</outline>
	<anchor name="_aboveLC" x="100" y="502"/>
</glyph>
<glyph name="macrongrave.cap" format="2">
	<outline>
		<contour>
			<point x="30" y="748" type="line"/>
			<point x="260" y="748" type="line"/>
			<point x="266" y="774" type="line"/>
			<point x="36" y="774" type="line"/>
		</contour>
		<contour>
			<point x="168" y="820" type="line"/>
			<point x="190" y="820" type="line"/>
			<point x="114" y="920" type="line"/>
			<point x="82" y="920" type="line"/>
			<point x="80" y="916" type="line"/>
		</contour>
	</outline>
	<anchor name="_aboveUC" x="130" y="682"/>
</glyph>
<glyph name="nine.dnom" format="2">
	<advance width="346"/>
	<outline>
		<contour>
			<point x="98" y="-12" type="curve" smooth="yes"/>
			<point x="198" y="-12"/>
			<point x="290" y="82"/>
			<point x="290" y="254" type="curve" smooth="yes"/>
			<point x="290" y="350"/>
			<point x="232" y="402"/>
			<point x="170" y="402" type="curve" smooth="yes"/>
			<point x="108" y="402"/>
			<point x="44" y="350"/>
			<point x="44" y="256" type="curve" smooth="yes"/>
			<point x="44" y="198"/>
			<point x="84" y="152"/>
			<point x="150" y="152" type="curve" smooth="yes"/>
			<point x="198" y="152"/>
			<point x="242" y="182"/>
			<point x="264" y="214" type="curve"/>
			<point x="266" y="248" type="line"/>
			<point x="234" y="198"/>
			<point x="188" y="176"/>
			<point x="152" y="176" type="curve" smooth="yes"/>
			<point x="102" y="176"/>
			<point x="72" y="210"/>
			<point x="72" y="262" type="curve" smooth="yes"/>
			<point x="72" y="330"/>
			<point x="118" y="378"/>
			<point x="168" y="378" type="curve" smooth="yes"/>
			<point x="216" y="378"/>
			<point x="262" y="338"/>
			<point x="262" y="246" type="curve" smooth="yes"/>
			<point x="262" y="96"/>
			<point x="180" y="12"/>
			<point x="100" y="12" type="curve" smooth="yes"/>
			<point x="72" y="12"/>
			<point x="48" y="20"/>
			<point x="30" y="38" type="curve"/>
			<point x="12" y="18" type="line"/>
			<point x="34" y="-2"/>
			<point x="64" y="-12"/>
		</contour>
	</outline>
</glyph>
<glyph name="ogonekcmb.cap" format="2">
	<outline>
		<contour>
			<point x="-28" y="-212" type="curve" smooth="yes"/>
			<point x="-2" y="-212"/>
			<point x="20" y="-202"/>
			<point x="44" y="-180" type="curve"/>
			<point x="32" y="-164" type="line"/>
			<point x="10" y="-180"/>
			<point x="-4" y="-186"/>
			<point x="-24" y="-186" type="curve" smooth="yes"/>
			<point x="-50" y="-186"/>
			<point x="-68" y="-168"/>
			<point x="-68" y="-138" type="curve" smooth="yes"/>
			<point x="-68" y="-90"/>
			<point x="-28" y="-42"/>
			<point x="28" y="4" type="curve"/>
			<point x="2" y="4" type="line"/>
			<point x="-44" y="-26"/>
			<point x="-98" y="-86"/>
			<point x="-98" y="-144" type="curve" smooth="yes"/>
			<point x="-98" y="-190"/>
			<point x="-68" y="-212"/>
		</contour>
	</outline>
	<anchor name="_ogonekUC" x="0" y="0"/>
</glyph>
<glyph name="one.cap" format="2">
	<advance width="456"/>
	<outline>
		<contour>
			<point x="32" y="0" type="line"/>
			<point x="346" y="0" type="line"/>
			<point x="350" y="26" type="line"/>
			<point x="210" y="26" type="line"/>
			<point x="338" y="660" type="line"/>
			<point x="314" y="660" type="line"/>
			<point x="284" y="642"/>
			<point x="238" y="628"/>
			<point x="190" y="622" type="curve"/>
			<point x="186" y="602" type="line"/>
			<point x="298" y="602" type="line"/>
			<point x="182" y="26" type="line"/>
			<point x="38" y="26" type="line"/>
		</contour>
	</outline>
</glyph>
<glyph name="ringacute.cap" format="2">
	<outline>
		<contour>
			<point x="142" y="702" type="curve" smooth="yes"/>
			<point x="194" y="702"/>
			<point x="242" y="738"/>
			<point x="242" y="786" type="curve" smooth="yes"/>
			<point x="242" y="834"/>
			<point x="202" y="856"/>
			<point x="164" y="856" type="curve"/>
			<point x="152" y="842" type="line"/>
			<point x="260" y="916" type="line"/>
			<point x="258" y="920" type="line"/>
			<point x="220" y="920" type="line"/>
			<point x="124" y="852" type="line" smooth="yes"/>
			<point x="92" y="830"/>
			<point x="64" y="810"/>
			<point x="64" y="770" type="curve" smooth="yes"/>
			<point x="64" y="724"/>
			<point x="102" y="702"/>
		</contour>
		<contour>
			<point x="144" y="724" type="curve" smooth="yes"/>
			<point x="112" y="724"/>
			<point x="90" y="740"/>
			<point x="90" y="772" type="curve" smooth="yes"/>
			<point x="90" y="808"/>
			<point x="124" y="834"/>
			<point x="162" y="834" type="curve" smooth="yes"/>
			<point x="194" y="834"/>
			<point x="216" y="816"/>
			<point x="216" y="784" type="curve" smooth="yes"/>
			<point x="216" y="750"/>
			<point x="182" y="724"/>
		</contour>
	</outline>
	<anchor name="_aboveUC" x="130" y="682"/>
</glyph>
<glyph name="sha.c" format="2">
	<advance width="776"/>
	<outline>
		<contour>
			<point x="84" y="-162" type="line"/>
			<point x="556" y="-162" type="line"/>
			<point x="560" y="-136" type="line"/>
			<point x="88" y="-136" type="line"/>
		</contour>
		<component base="sha"/>
	</outline>
</glyph>
<glyph name="six.dnom" format="2">
	<advance width="346"/>
	<outline>
		<contour>
			<point x="150" y="-12" type="curve" smooth="yes"/>
			<point x="212" y="-12"/>
			<point x="276" y="40"/>
			<point x="276" y="134" type="curve" smooth="yes"/>
			<point x="276" y="192"/>
			<point x="236" y="238"/>
			<point x="170" y="238" type="curve" smooth="yes"/>
			<point x="122" y="238"/>
			<point x="78" y="208"/>
			<point x="56" y="176" type="curve"/>
			<point x="54" y="142" type="line"/>
			<point x="86" y="192"/>
			<point x="132" y="214"/>
			<point x="168" y="214" type="curve" smooth="yes"/>
			<point x="218" y="214"/>
			<point x="248" y="180"/>
			<point x="248" y="128" type="curve" smooth="yes"/>
			<point x="248" y="60"/>
			<point x="202" y="12"/>
			<point x="152" y="12" type="curve" smooth="yes"/>
			<point x="104" y="12"/>
			<point x="58" y="52"/>
			<point x="58" y="144" type="curve" smooth="yes"/>
			<point x="58" y="294"/>
			<point x="140" y="378"/>
			<point x="220" y="378" type="curve" smooth="yes"/>
			<point x="248" y="378"/>
			<point x="272" y="370"/>
			<point x="290" y="352" type="curve"/>
			<point x="308" y="372" type="line"/>
			<point x="286" y="392"/>
			<point x="256" y="402"/>
			<point x="222" y="402" type="curve" smooth="yes"/>
			<point x="122" y="402"/>
			<point x="30" y="308"/>
			<point x="30" y="136" type="curve" smooth="yes"/>
			<point x="30" y="40"/>
			<point x="88" y="-12"/>
		</contour>
	</outline>
</glyph>
<glyph name="suestion" format="2">
	<advance width="380"/>
	<outline>
		<contour>
			<point x="144" y="176" type="curve"/>
			<point x="170" y="174" type="line"/>
			<point x="178" y="338"/>
			<point x="386" y="388"/>
			<point x="386" y="554" type="curve" smooth="yes"/>
			<point x="386" y="634"/>
			<point x="338" y="682"/>
			<point x="258" y="682" type="curve" smooth="yes"/>
			<point x="198" y="682"/>
			<point x="142" y="650"/>
			<point x="110" y="614" type="curve"/>
			<point x="128" y="594" type="line"/>
			<point x="160" y="630"/>
			<point x="208" y="656"/>
			<point x="256" y="656" type="curve" smooth="yes"/>
			<point x="320" y="656"/>
			<point x="358" y="616"/>
			<point x="358" y="548" type="curve" smooth="yes"/>
			<point x="358" y="402"/>
			<point x="150" y="352"/>
		</contour>
		<component base="sariod" xOffset="60"/>
	</outline>
</glyph>
<glyph name="three.cap" format="2">
	<advance width="456"/>
	<outline>
		<contour>
			<point x="174" y="-12" type="curve" smooth="yes"/>
			<point x="304" y="-12"/>
			<point x="396" y="70"/>
			<point x="396" y="188" type="curve" smooth="yes"/>
			<point x="396" y="265"/>
			<point x="347" y="320"/>
			<point x="278" y="340" type="curve"/>
			<point x="278" y="344" type="line"/>
			<point x="378" y="368"/>
			<point x="438" y="445"/>
			<point x="438" y="532" type="curve" smooth="yes"/>
			<point x="438" y="616"/>
			<point x="392" y="672"/>
			<point x="292" y="672" type="curve" smooth="yes"/>
			<point x="234" y="672"/>
			<point x="174" y="646"/>
			<point x="128" y="608" type="curve"/>
			<point x="146" y="586" type="line"/>
			<point x="182" y="622"/>
			<point x="244" y="646"/>
			<point x="290" y="646" type="curve" smooth="yes"/>
			<point x="374" y="646"/>
			<point x="410" y="596"/>
			<point x="410" y="526" type="curve" smooth="yes"/>
			<point x="410" y="456"/>
			<point x="347" y="358"/>
			<point x="168" y="358" type="curve"/>
			<point x="162" y="332" type="line"/>
			<point x="307" y="332"/>
			<point x="368" y="266"/>
			<point x="368" y="182" type="curve" smooth="yes"/>
			<point x="368" y="88"/>
			<point x="288" y="14"/>
			<point x="178" y="14" type="curve" smooth="yes"/>
			<point x="96" y="14"/>
			<point x="48" y="66"/>
			<point x="18" y="110" type="curve"/>
			<point x="-4" y="94" type="line"/>
			<point x="24" y="50"/>
			<point x="82" y="-12"/>
		</contour>
	</outline>
</glyph>
<glyph name="tildecmb.cap" format="2">
	<outline>
		<contour>
			<point x="216" y="722" type="curve" smooth="yes"/>
			<point x="268" y="722"/>
			<point x="306" y="768"/>
			<point x="316" y="828" type="curve"/>
			<point x="294" y="830" type="line"/>
			<point x="278" y="781"/>
			<point x="253" y="748"/>
			<point x="222" y="748" type="curve" smooth="yes"/>
			<point x="167" y="748"/>
			<point x="156" y="832"/>
			<point x="88" y="832" type="curve" smooth="yes"/>
			<point x="36" y="832"/>
			<point x="-2" y="786"/>
			<point x="-12" y="726" type="curve"/>
			<point x="10" y="724" type="line"/>
			<point x="24" y="773"/>
			<point x="51" y="806"/>
			<point x="82" y="806" type="curve" smooth="yes"/>
			<point x="136" y="806"/>
			<point x="148" y="722"/>
		</contour>
	</outline>
	<anchor name="_aboveUC" x="130" y="682"/>
</glyph>
<glyph name="zero.pnum" format="2">
	<advance width="474"/>
	<outline>
		<contour>
			<point x="196" y="-12" type="curve" smooth="yes"/>
			<point x="348" y="-12"/>
			<point x="456" y="238"/>
			<point x="456" y="442" type="curve" smooth="yes"/>
			<point x="456" y="540"/>
			<point x="412" y="652"/>
			<point x="306" y="652" type="curve" smooth="yes"/>
			<point x="154" y="652"/>
			<point x="46" y="400"/>
			<point x="46" y="196" type="curve" smooth="yes"/>
			<point x="46" y="96"/>
			<point x="88" y="-12"/>
		</contour>
		<contour>
			<point x="196" y="14" type="curve" smooth="yes"/>
			<point x="108" y="14"/>
			<point x="74" y="106"/>
			<point x="74" y="202" type="curve" smooth="yes"/>
			<point x="74" y="376"/>
			<point x="170" y="626"/>
			<point x="304" y="626" type="curve" smooth="yes"/>
			<point x="392" y="626"/>
			<point x="428" y="534"/>
			<point x="428" y="436" type="curve" smooth="yes"/>
			<point x="428" y="260"/>
			<point x="330" y="14"/>
		</contour>
	</outline>
</glyph>
